{
DisplayStrings = (
"/knmU/knTTHA \012/knDA/knDA/knTTHA/knZero/knDA/knDA  /knDA/knDA/knOne/knDA/knDA  /knDA/knDA/knTwo/knDA/knDA  /knDA/knDA/knThree/knDA/knDA  /knDA/knDA/knFour/knDA/knDA  /knDA/knDA/knFive/knDA/knDA  /knDA/knDA/knSix/knDA/knDA  /knDA/knDA/knSeven/knDA/knDA  /knDA/knDA/knA/knEight/knDA/knDA  /knDA/knDA/knNine/knDA/knDA",
"/knDA/knKAc2/knDA/knKHA/knDA t/knKHAc2/knDA/knNGAc2/knDA/knDA/knGAc2/knDA/knDA/knGHAc2/knDA/knDA \012/knDA/knDA/knNGAc2/knDA/knDA/knCAc2/knDA/knDA/knCHAc2/knDA/knDA/knJAc2/knDA/knDA \012/knDA/knDA/knJHAc2/knDA/knDA/knNYAc2/knDA/knDA/knTTAc2/knDA/knDA/knDDAc2/knDA/knDA \012/knDA/knDA/knTTHAc2/knDA/knDA/knDDHAc2/knDA/knDA/knNNAc2/knDA/knDA/knTAc2/knDA/knDA \012/knDA/knDA/knTHAc2/knDA/knDA/knDAc2/knDA/knDA/knDHAc2/knDA/knDA/knNAc2/knDA/knDA \012/knDA/knDA/knPAc2/knDA/knDA/knPHAc2/knDA/knDA/knBAc2/knDA/knDA/knBHAc2/knDA/knDA \012/knDA/knDA/knMAc2/knDA/knDA/knYAc2/knDA/knDA/knRAc2/knDA/knDA/knLAc2/knDA/knDA \012/knDA/knDA/knVAc2/knDA/knDA/knSHAc2/knDA/knDA/knSSAc2/knDA/knDA/knSAc2/knDA/knDA \012/knDA/knDA/knHAc2/knDA/knDA/knRRAc2/knDA/knDA/knLLAc2/knDA/knDA/knLLLAc2/knDA/knDA/knDA/knDA/knKSSAc2/knDA/knDA/knTAc2_RAc2/knDA/knDA \012",
/knDDA/knDDHA/knNNA/knTA/knTHA/knDA/knDHA/knNA/knPA/knPHA/knBA/knBHA/knMA/knYA/knRA/knLA/knVA/knSHA/knSSA/knSA/knHA/knRRA/knLLA/knLLLA
);
classes = (
{
code = knA;
name = default;
}
);
copyright = "Copyright \U00A9 2015 by John-Daniel Harrington  All rights reserved. Copyright \U00A9 2015 by Georg Duffner. All rights reserved. Copyright \U00A9 2015 by Indian Type Foundry. All rights reserved.";
customParameters = (
{
name = glyphOrder;
value = (
    knA,
    knAA,
    knI,
    knII,
    knU,
    knUU,
    knvR,
    knvRR,
    knvL,
    knvLL,
    knE,
    knEE,
    knAI,
    knO,
    knOO,
    knAU,
    knmAA,
    knmI,
    knmII,
    knmU,
    knmUU,
    knmvR,
    knmvRR,
    knmvL,
    knmvLL,
    knmE,
    knmEE,
    knmAI,
    knmO,
    knmOO,
    knmAU,
    knLengthmark,
    knAIlengthmark,
    knKA,

glyphs = (
{
color = 3;
glyphname = knA;
lastChange = "2015-12-16 18:05:56 +0000";
layers = (
{
background = {
paths = (
{
closed = 1;
nodes = (
"104 171 OFFCURVE",
"200 71 OFFCURVE",
"391 71 CURVE SMOOTH",
"581 71 OFFCURVE",
"679 171 OFFCURVE",
"679 294 CURVE SMOOTH",
"679 389 OFFCURVE",
"639 459 OFFCURVE",
"561 459 CURVE SMOOTH",
"519 459 OFFCURVE",
"494 440 OFFCURVE",
"494 405 CURVE SMOOTH",
"494 375 OFFCURVE",
"513 354 OFFCURVE",
"561 354 CURVE SMOOTH",
"614 354 LINE",
"614 283 LINE",
"384 283 LINE",
"384 354 LINE",
"479 354 LINE",
"470 362 OFFCURVE",
"465 379 OFFCURVE",
"465 405 CURVE SMOOTH",
"465 467 OFFCURVE",
"491 520 OFFCURVE",
"561 520 CURVE SMOOTH",
"647 520 OFFCURVE",
"726 414 OFFCURVE",
"726 283 CURVE SMOOTH",
"726 104 OFFCURVE",
"602 -14 OFFCURVE",
"391 -14 CURVE SMOOTH",
"180 -14 OFFCURVE",
"56 104 OFFCURVE",
"56 283 CURVE SMOOTH",
"56 414 OFFCURVE",
"128 519 OFFCURVE",
"230 519 CURVE SMOOTH",
"301 519 OFFCURVE",
"337 457 OFFCURVE",
"337 391 CURVE SMOOTH",
"337 325 OFFCURVE",
"295 273 OFFCURVE",
"232 273 CURVE SMOOTH",
"174 273 OFFCURVE",
"132 308 OFFCURVE",
"132 381 CURVE SMOOTH",
"132 394 OFFCURVE",
"133 407 OFFCURVE",
"136 429 CURVE",
"157 497 LINE",
"172 501 OFFCURVE",
"177 475 OFFCURVE",
"166 450 CURVE",
"163 440 OFFCURVE",
"162 419 OFFCURVE",
"162 408 CURVE SMOOTH",
"162 362 OFFCURVE",
"190 344 OFFCURVE",
"232 344 CURVE SMOOTH",
"279 344 OFFCURVE",
"307 365 OFFCURVE",
"307 401 CURVE SMOOTH",
"307 440 OFFCURVE",
"273 459 OFFCURVE",
"235 459 CURVE SMOOTH",
"142 459 OFFCURVE",
"104 407 OFFCURVE",
"104 294 CURVE SMOOTH"
);
}
);
};
layerId = "034236B8-3FA8-43DA-9EDA-EFF269A687EC";
name = Regular;
paths = (
{
closed = 1;
nodes = (
"602 -14 OFFCURVE",
"722 104 OFFCURVE",
"722 283 CURVE SMOOTH",
"722 414 OFFCURVE",
"650 520 OFFCURVE",
"556 520 CURVE SMOOTH",
"482 520 OFFCURVE",
"455 471 OFFCURVE",
"455 416 CURVE SMOOTH",
"455 392 OFFCURVE",
"470 364 OFFCURVE",
"479 354 CURVE",
"384 354 LINE",
"384 283 LINE",
"614 283 LINE",
"614 354 LINE",
"561 354 LINE SMOOTH",
"516 354 OFFCURVE",
"495 379 OFFCURVE",
"495 405 CURVE SMOOTH",
"495 437 OFFCURVE",
"519 454 OFFCURVE",
"561 454 CURVE SMOOTH",
"639 454 OFFCURVE",
"683 389 OFFCURVE",
"683 294 CURVE SMOOTH",
"683 171 OFFCURVE",
"581 71 OFFCURVE",
"391 71 CURVE SMOOTH",
"200 71 OFFCURVE",
"100 171 OFFCURVE",
"100 294 CURVE SMOOTH",
"100 387 OFFCURVE",
"142 454 OFFCURVE",
"235 454 CURVE SMOOTH",
"273 454 OFFCURVE",
"307 440 OFFCURVE",
"307 401 CURVE SMOOTH",
"307 365 OFFCURVE",
"279 344 OFFCURVE",
"232 344 CURVE SMOOTH",
"190 344 OFFCURVE",
"159 365 OFFCURVE",
"159 408 CURVE SMOOTH",
"159 419 OFFCURVE",
"163 440 OFFCURVE",
"166 450 CURVE",
"177 475 OFFCURVE",
"172 501 OFFCURVE",
"157 497 CURVE",
"135 429 LINE",
"132 407 OFFCURVE",
"131 394 OFFCURVE",
"131 381 CURVE SMOOTH",
"131 308 OFFCURVE",
"174 273 OFFCURVE",
"232 273 CURVE SMOOTH",
"295 273 OFFCURVE",
"337 325 OFFCURVE",
"337 391 CURVE SMOOTH",
"337 457 OFFCURVE",
"301 519 OFFCURVE",
"230 519 CURVE SMOOTH",
"128 519 OFFCURVE",
"60 414 OFFCURVE",
"60 283 CURVE SMOOTH",
"60 104 OFFCURVE",
"180 -14 OFFCURVE",
"391 -14 CURVE SMOOTH"
);
}
);
width = 782;
}
);
unicode = 0C85;
},
{
color = 3;
glyphname = knAA;
lastChange = "2015-12-16 18:05:57 +0000";
layers = (
{
background = {
paths = (
{
closed = 1;
nodes = (
"103 171 OFFCURVE",
"202 71 OFFCURVE",
"371 71 CURVE SMOOTH",
"515 71 OFFCURVE",
"619 126 OFFCURVE",
"619 213 CURVE SMOOTH",
"619 286 OFFCURVE",
"513 328 OFFCURVE",
"513 416 CURVE SMOOTH",
"513 477 OFFCURVE",
"565 519 OFFCURVE",
"613 519 CURVE SMOOTH",
"666 519 OFFCURVE",
"708 471 OFFCURVE",
"708 403 CURVE SMOOTH",
"708 327 OFFCURVE",
"652 283 OFFCURVE",
"568 283 CURVE SMOOTH",
"396 283 LINE",
"396 355 LINE",
"601 355 LINE SMOOTH",
"646 355 OFFCURVE",
"673 383 OFFCURVE",
"673 413 CURVE SMOOTH",
"673 440 OFFCURVE",
"651 459 OFFCURVE",
"619 459 CURVE SMOOTH",
"586 459 OFFCURVE",
"559 440 OFFCURVE",
"559 406 CURVE SMOOTH",
"559 337 OFFCURVE",
"673 314 OFFCURVE",
"673 199 CURVE SMOOTH",
"673 73 OFFCURVE",
"535 -14 OFFCURVE",
"381 -14 CURVE SMOOTH",
"180 -14 OFFCURVE",
"56 104 OFFCURVE",
"56 276 CURVE SMOOTH",
"56 414 OFFCURVE",
"128 519 OFFCURVE",
"230 519 CURVE SMOOTH",
"301 519 OFFCURVE",
"337 457 OFFCURVE",
"337 391 CURVE SMOOTH",
"337 325 OFFCURVE",
"295 273 OFFCURVE",
"232 273 CURVE SMOOTH",
"174 273 OFFCURVE",
"132 308 OFFCURVE",
"132 381 CURVE SMOOTH",
"132 394 OFFCURVE",
"133 407 OFFCURVE",
"136 429 CURVE",
"157 497 LINE",
"172 501 OFFCURVE",
"177 475 OFFCURVE",
"166 450 CURVE",
"163 440 OFFCURVE",
"162 419 OFFCURVE",
"162 408 CURVE SMOOTH",
"162 362 OFFCURVE",
"190 344 OFFCURVE",
"232 344 CURVE SMOOTH",
"279 344 OFFCURVE",
"307 365 OFFCURVE",
"307 401 CURVE SMOOTH",
"307 440 OFFCURVE",
"273 459 OFFCURVE",
"235 459 CURVE SMOOTH",
"142 459 OFFCURVE",
"104 407 OFFCURVE",
"104 294 CURVE SMOOTH"
);
}
);
};
layerId = "034236B8-3FA8-43DA-9EDA-EFF269A687EC";
name = Regular;
paths = (
{
closed = 1;
nodes = (
"575 -14 OFFCURVE",
"665 90 OFFCURVE",
"665 188 CURVE SMOOTH",
"665 303 OFFCURVE",
"554 333 OFFCURVE",
"554 405 CURVE SMOOTH",
"554 432 OFFCURVE",
"576 454 OFFCURVE",
"616 454 CURVE SMOOTH",
"654 454 OFFCURVE",
"678 431 OFFCURVE",
"678 406 CURVE SMOOTH",
"678 373 OFFCURVE",
"652 355 OFFCURVE",
"601 355 CURVE SMOOTH",
"396 355 LINE",
"396 283 LINE",
"568 283 LINE SMOOTH",
"655 283 OFFCURVE",
"709 332 OFFCURVE",
"709 408 CURVE SMOOTH",
"709 463 OFFCURVE",
"668 519 OFFCURVE",
"605 519 CURVE SMOOTH",
"552 519 OFFCURVE",
"515 485 OFFCURVE",
"515 423 CURVE SMOOTH",
"515 335 OFFCURVE",
"621 293 OFFCURVE",
"621 213 CURVE SMOOTH",
"621 136 OFFCURVE",
"535 71 OFFCURVE",
"371 71 CURVE SMOOTH",
"202 71 OFFCURVE",
"100 171 OFFCURVE",
"100 294 CURVE SMOOTH",
"100 387 OFFCURVE",
"142 454 OFFCURVE",
"235 454 CURVE SMOOTH",
"273 454 OFFCURVE",
"307 440 OFFCURVE",
"307 401 CURVE SMOOTH",
"307 365 OFFCURVE",
"279 344 OFFCURVE",
"232 344 CURVE SMOOTH",
"190 344 OFFCURVE",
"159 365 OFFCURVE",
"159 408 CURVE SMOOTH",
"159 419 OFFCURVE",
"163 440 OFFCURVE",
"166 450 CURVE",
"177 475 OFFCURVE",
"172 501 OFFCURVE",
"157 497 CURVE",
"135 429 LINE",
"132 407 OFFCURVE",
"131 394 OFFCURVE",
"131 381 CURVE SMOOTH",
"131 308 OFFCURVE",
"174 273 OFFCURVE",
"232 273 CURVE SMOOTH",
"295 273 OFFCURVE",
"337 325 OFFCURVE",
"337 391 CURVE SMOOTH",
"337 457 OFFCURVE",
"301 519 OFFCURVE",
"230 519 CURVE SMOOTH",
"128 519 OFFCURVE",
"60 414 OFFCURVE",
"60 283 CURVE SMOOTH",
"60 109 OFFCURVE",
"180 -14 OFFCURVE",
"381 -14 CURVE SMOOTH"
);
}
);
width = 744;
}
);
unicode = 0C86;
},
{
color = 3;
glyphname = knI;
lastChange = "2015-12-16 18:04:18 +0000";
layers = (
{
background = {
paths = (
{
closed = 1;
nodes = (
"436 519 OFFCURVE",
"367 461 OFFCURVE",
"344 377 CURVE",
"342 377 LINE",
"319 461 OFFCURVE",
"250 519 OFFCURVE",
"181 519 CURVE",
"105 519 OFFCURVE",
"46 456 OFFCURVE",
"46 377 CURVE SMOOTH",
"46 347 OFFCURVE",
"55 321 OFFCURVE",
"76 296 CURVE",
"107 317 LINE",
"101 325 OFFCURVE",
"95 340 OFFCURVE",
"95 359 CURVE SMOOTH",
"95 401 OFFCURVE",
"123 444 OFFCURVE",
"184 444 CURVE",
"269 444 OFFCURVE",
"325 358 OFFCURVE",
"339 283 CURVE",
"348 283 LINE",
"360 357 OFFCURVE",
"416 446 OFFCURVE",
"500 446 CURVE",
"565 446 OFFCURVE",
"600 377 OFFCURVE",
"600 285 CURVE",
"600 149 OFFCURVE",
"530 71 OFFCURVE",
"408 71 CURVE",
"349 71 OFFCURVE",
"308 85 OFFCURVE",
"308 124 CURVE SMOOTH",
"308 153 OFFCURVE",
"343 176 OFFCURVE",
"401 176 CURVE SMOOTH",
"536 176 OFFCURVE",
"637 48 OFFCURVE",
"637 -70 CURVE SMOOTH",
"637 -85 OFFCURVE",
"649 -97 OFFCURVE",
"661 -97 CURVE SMOOTH",
"674 -97 OFFCURVE",
"686 -85 OFFCURVE",
"686 -61 CURVE SMOOTH",
"686 30 OFFCURVE",
"580 223 OFFCURVE",
"391 223 CURVE SMOOTH",
"295 223 OFFCURVE",
"235 168 OFFCURVE",
"235 108 CURVE SMOOTH",
"235 38 OFFCURVE",
"310 -14 OFFCURVE",
"400 -14 CURVE SMOOTH",
"545 -14 OFFCURVE",
"649 108 OFFCURVE",
"649 294 CURVE",
"649 430 OFFCURVE",
"598 519 OFFCURVE",
"505 519 CURVE"
);
}
);
};
guideLines = (
{
position = "{15, 368}";
},
{
position = "{43, 444}";
},
{
position = "{63, 71}";
}
);
layerId = "034236B8-3FA8-43DA-9EDA-EFF269A687EC";
name = Regular;
paths = (
{
closed = 1;
nodes = (
"643 -97 OFFCURVE",
"656 -85 OFFCURVE",
"656 -61 CURVE SMOOTH",
"656 39 OFFCURVE",
"549 216 OFFCURVE",
"349 216 CURVE SMOOTH",
"262 216 OFFCURVE",
"205 168 OFFCURVE",
"205 108 CURVE SMOOTH",
"205 38 OFFCURVE",
"268 -14 OFFCURVE",
"370 -14 CURVE SMOOTH",
"515 -14 OFFCURVE",
"649 148 OFFCURVE",
"649 315 CURVE SMOOTH",
"649 442 OFFCURVE",
"596 519 OFFCURVE",
"505 519 CURVE SMOOTH",
"432 519 OFFCURVE",
"367 461 OFFCURVE",
"344 377 CURVE",
"342 377 LINE",
"319 461 OFFCURVE",
"253 519 OFFCURVE",
"178 519 CURVE SMOOTH",
"104 519 OFFCURVE",
"55 467 OFFCURVE",
"55 391 CURVE SMOOTH",
"55 346 OFFCURVE",
"74 308 OFFCURVE",
"112 269 CURVE",
"134 286 LINE",
"111 312 OFFCURVE",
"102 329 OFFCURVE",
"102 359 CURVE SMOOTH",
"102 402 OFFCURVE",
"133 442 OFFCURVE",
"189 442 CURVE SMOOTH",
"274 442 OFFCURVE",
"324 358 OFFCURVE",
"338 283 CURVE",
"348 283 LINE",
"360 357 OFFCURVE",
"416 441 OFFCURVE",
"500 441 CURVE SMOOTH",
"561 441 OFFCURVE",
"613 390 OFFCURVE",
"613 310 CURVE SMOOTH",
"613 164 OFFCURVE",
"500 71 OFFCURVE",
"378 71 CURVE SMOOTH",
"309 71 OFFCURVE",
"258 95 OFFCURVE",
"258 124 CURVE SMOOTH",
"258 155 OFFCURVE",
"296 184 OFFCURVE",
"356 184 CURVE SMOOTH",
"514 184 OFFCURVE",
"597 46 OFFCURVE",
"597 -70 CURVE SMOOTH",
"597 -85 OFFCURVE",
"610 -97 OFFCURVE",
"626 -97 CURVE SMOOTH"
);
}
);
width = 741;
}
);
unicode = 0C87;
},
{
color = 3;
glyphname = knII;
lastChange = "2015-12-16 17:45:47 +0000";
layers = (
{
background = {
paths = (
{
closed = 1;
nodes = (
"682 397 OFFCURVE",
"708 418 OFFCURVE",
"739 418 CURVE SMOOTH",
"772 418 OFFCURVE",
"798 400 OFFCURVE",
"798 363 CURVE SMOOTH",
"798 325 OFFCURVE",
"768 298 OFFCURVE",
"692 298 CURVE SMOOTH",
"45 298 LINE",
"45 239 LINE",
"659 239 LINE SMOOTH",
"764 239 OFFCURVE",
"836 286 OFFCURVE",
"836 369 CURVE SMOOTH",
"836 434 OFFCURVE",
"792 479 OFFCURVE",
"739 479 CURVE SMOOTH",
"681 479 OFFCURVE",
"642 441 OFFCURVE",
"642 379 CURVE SMOOTH",
"642 277 OFFCURVE",
"765 228 OFFCURVE",
"765 134 CURVE SMOOTH",
"765 102 OFFCURVE",
"746 87 OFFCURVE",
"716 77 CURVE SMOOTH",
"697 70 OFFCURVE",
"676 72 OFFCURVE",
"661 67 CURVE SMOOTH",
"644 61 OFFCURVE",
"633 48 OFFCURVE",
"633 30 CURVE SMOOTH",
"633 5 OFFCURVE",
"652 -14 OFFCURVE",
"690 -14 CURVE SMOOTH",
"762 -14 OFFCURVE",
"816 30 OFFCURVE",
"816 108 CURVE SMOOTH",
"816 223 OFFCURVE",
"682 279 OFFCURVE",
"682 363 CURVE SMOOTH"
);
},
{
closed = 1;
nodes = (
"514 635 OFFCURVE",
"536 610 OFFCURVE",
"536 576 CURVE SMOOTH",
"536 536 OFFCURVE",
"505 509 OFFCURVE",
"444 509 CURVE SMOOTH",
"115 509 LINE",
"115 434 LINE",
"235 434 LINE",
"345 444 LINE",
"444 434 LINE",
"525 434 OFFCURVE",
"579 480 OFFCURVE",
"579 552 CURVE SMOOTH",
"579 607 OFFCURVE",
"548 648 OFFCURVE",
"505 664 CURVE",
"490 644 LINE"
);
},
{
closed = 1;
nodes = (
"160 401 OFFCURVE",
"114 317 OFFCURVE",
"114 228 CURVE SMOOTH",
"114 88 OFFCURVE",
"208 -14 OFFCURVE",
"344 -14 CURVE SMOOTH",
"480 -14 OFFCURVE",
"574 88 OFFCURVE",
"574 228 CURVE SMOOTH",
"574 317 OFFCURVE",
"528 401 OFFCURVE",
"454 439 CURVE SMOOTH",
"422 456 OFFCURVE",
"385 464 OFFCURVE",
"344 464 CURVE SMOOTH",
"303 464 OFFCURVE",
"266 456 OFFCURVE",
"234 439 CURVE SMOOTH"
);
},
{
closed = 1;
nodes = (
"529 147 OFFCURVE",
"453 71 OFFCURVE",
"344 71 CURVE SMOOTH",
"234 71 OFFCURVE",
"159 146 OFFCURVE",
"159 249 CURVE SMOOTH",
"159 350 OFFCURVE",
"243 436 OFFCURVE",
"344 436 CURVE SMOOTH",
"445 436 OFFCURVE",
"529 351 OFFCURVE",
"529 250 CURVE SMOOTH"
);
}
);
};
layerId = "034236B8-3FA8-43DA-9EDA-EFF269A687EC";
name = Regular;
paths = (
{
closed = 1;
nodes = (
"762 -14 OFFCURVE",
"816 30 OFFCURVE",
"816 108 CURVE SMOOTH",
"816 223 OFFCURVE",
"682 279 OFFCURVE",
"682 363 CURVE SMOOTH",
"682 397 OFFCURVE",
"708 418 OFFCURVE",
"739 418 CURVE SMOOTH",
"772 418 OFFCURVE",
"798 400 OFFCURVE",
"798 363 CURVE SMOOTH",
"798 325 OFFCURVE",
"768 298 OFFCURVE",
"692 298 CURVE SMOOTH",
"45 298 LINE",
"45 239 LINE",
"659 239 LINE SMOOTH",
"764 239 OFFCURVE",
"836 286 OFFCURVE",
"836 369 CURVE SMOOTH",
"836 434 OFFCURVE",
"792 479 OFFCURVE",
"739 479 CURVE SMOOTH",
"681 479 OFFCURVE",
"642 441 OFFCURVE",
"642 379 CURVE SMOOTH",
"642 277 OFFCURVE",
"765 228 OFFCURVE",
"765 134 CURVE SMOOTH",
"765 102 OFFCURVE",
"746 87 OFFCURVE",
"716 77 CURVE SMOOTH",
"697 70 OFFCURVE",
"676 72 OFFCURVE",
"661 67 CURVE SMOOTH",
"644 61 OFFCURVE",
"633 48 OFFCURVE",
"633 30 CURVE SMOOTH",
"633 5 OFFCURVE",
"652 -14 OFFCURVE",
"690 -14 CURVE SMOOTH"
);
},
{
closed = 1;
nodes = (
"480 -14 OFFCURVE",
"574 88 OFFCURVE",
"574 228 CURVE SMOOTH",
"574 317 OFFCURVE",
"528 401 OFFCURVE",
"454 439 CURVE SMOOTH",
"422 456 OFFCURVE",
"385 464 OFFCURVE",
"344 464 CURVE SMOOTH",
"303 464 OFFCURVE",
"266 456 OFFCURVE",
"234 439 CURVE SMOOTH",
"160 401 OFFCURVE",
"114 317 OFFCURVE",
"114 228 CURVE SMOOTH",
"114 88 OFFCURVE",
"208 -14 OFFCURVE",
"344 -14 CURVE SMOOTH"
);
},
{
closed = 1;
nodes = (
"234 71 OFFCURVE",
"159 146 OFFCURVE",
"159 249 CURVE SMOOTH",
"159 350 OFFCURVE",
"243 436 OFFCURVE",
"344 436 CURVE SMOOTH",
"445 436 OFFCURVE",
"529 351 OFFCURVE",
"529 250 CURVE SMOOTH",
"529 147 OFFCURVE",
"453 71 OFFCURVE",
"344 71 CURVE SMOOTH"
);
},
{
closed = 1;
nodes = (
"235 434 LINE",
"345 444 LINE",
"444 434 LINE",
"525 434 OFFCURVE",
"579 480 OFFCURVE",
"579 552 CURVE SMOOTH",
"579 607 OFFCURVE",
"548 648 OFFCURVE",
"505 664 CURVE",
"490 644 LINE",
"514 635 OFFCURVE",
"536 610 OFFCURVE",
"536 576 CURVE SMOOTH",
"536 536 OFFCURVE",
"505 509 OFFCURVE",
"444 509 CURVE SMOOTH",
"115 509 LINE",
"115 434 LINE"
);
}
);
width = 896;
},
{
associatedMasterId = "034236B8-3FA8-43DA-9EDA-EFF269A687EC";
layerId = "3DA93FC8-5D78-4078-9953-D9D244ADBC50";
name = "Regular Nov 17 15, 18:00";
paths = (
{
closed = 1;
nodes = (
"262 404 OFFCURVE",
"230 393 OFFCURVE",
"202 378 CURVE SMOOTH",
"138 345 OFFCURVE",
"98 283 OFFCURVE",
"98 206 CURVE SMOOTH",
"98 84 OFFCURVE",
"187 -14 OFFCURVE",
"298 -14 CURVE",
"409 -14 OFFCURVE",
"498 84 OFFCURVE",
"498 206 CURVE SMOOTH",
"498 283 OFFCURVE",
"458 345 OFFCURVE",
"394 378 CURVE SMOOTH",
"366 393 OFFCURVE",
"334 404 OFFCURVE",
"298 404 CURVE"
);
},
{
closed = 1;
nodes = (
"386 378 OFFCURVE",
"451 313 OFFCURVE",
"451 230 CURVE SMOOTH",
"451 143 OFFCURVE",
"386 76 OFFCURVE",
"298 76 CURVE",
"210 76 OFFCURVE",
"145 143 OFFCURVE",
"145 230 CURVE SMOOTH",
"145 313 OFFCURVE",
"210 378 OFFCURVE",
"298 378 CURVE"
);
},
{
closed = 1;
nodes = (
"427 567 LINE",
"451 552 OFFCURVE",
"459 530 OFFCURVE",
"459 511 CURVE SMOOTH",
"459 475 OFFCURVE",
"432 450 OFFCURVE",
"387 450 CURVE SMOOTH",
"96 450 LINE",
"96 378 LINE",
"387 378 LINE SMOOTH",
"456 378 OFFCURVE",
"505 426 OFFCURVE",
"505 486 CURVE SMOOTH",
"505 525 OFFCURVE",
"485 561 OFFCURVE",
"440 585 CURVE"
);
},
{
closed = 1;
nodes = (
"708 215 OFFCURVE",
"597 251 OFFCURVE",
"597 317 CURVE SMOOTH",
"597 345 OFFCURVE",
"618 362 OFFCURVE",
"639 362 CURVE SMOOTH",
"665 362 OFFCURVE",
"685 344 OFFCURVE",
"685 318 CURVE SMOOTH",
"685 262 OFFCURVE",
"625 254 OFFCURVE",
"545 255 CURVE SMOOTH",
"37 259 LINE",
"37 206 LINE",
"571 206 LINE SMOOTH",
"680 206 OFFCURVE",
"725 247 OFFCURVE",
"725 319 CURVE",
"725 383 OFFCURVE",
"684 415 OFFCURVE",
"640 415 CURVE SMOOTH",
"594 415 OFFCURVE",
"556 372 OFFCURVE",
"556 322 CURVE SMOOTH",
"556 229 OFFCURVE",
"659 208 OFFCURVE",
"659 131 CURVE",
"660 102 OFFCURVE",
"647 76 OFFCURVE",
"621 67 CURVE SMOOTH",
"604 61 OFFCURVE",
"588 63 OFFCURVE",
"572 58 CURVE SMOOTH",
"558 54 OFFCURVE",
"548 40 OFFCURVE",
"548 23 CURVE SMOOTH",
"548 3 OFFCURVE",
"565 -14 OFFCURVE",
"596 -14 CURVE SMOOTH",
"661 -14 OFFCURVE",
"708 47 OFFCURVE",
"708 113 CURVE"
);
}
);
width = 772;
}
);
unicode = 0C88;
},
{
color = 3;
glyphname = knU;
lastChange = "2015-12-16 18:05:59 +0000";
layers = (
{
background = {
paths = (
{
closed = 1;
nodes = (
"872 71 OFFCURVE",
"926 123 OFFCURVE",
"926 253 CURVE",
"926 365 OFFCURVE",
"887 414 OFFCURVE",
"850 426 CURVE SMOOTH",
"826 434 OFFCURVE",
"817 430 OFFCURVE",
"794 436 CURVE SMOOTH",
"777 441 OFFCURVE",
"766 457 OFFCURVE",
"766 477 CURVE SMOOTH",
"766 500 OFFCURVE",
"785 519 OFFCURVE",
"821 519 CURVE SMOOTH",
"896 519 OFFCURVE",
"973 439 OFFCURVE",
"973 283 CURVE",
"973 113 OFFCURVE",
"889 -14 OFFCURVE",
"782 -14 CURVE",
"681 -14 OFFCURVE",
"630 65 OFFCURVE",
"630 150 CURVE SMOOTH",
"630 220 OFFCURVE",
"635 276 OFFCURVE",
"635 339 CURVE SMOOTH",
"635 406 OFFCURVE",
"605 454 OFFCURVE",
"551 454 CURVE",
"492 454 OFFCURVE",
"465 396 OFFCURVE",
"465 339 CURVE SMOOTH",
"465 284 OFFCURVE",
"477 229 OFFCURVE",
"477 150 CURVE SMOOTH",
"477 42 OFFCURVE",
"397 -14 OFFCURVE",
"289 -14 CURVE",
"163 -14 OFFCURVE",
"56 107 OFFCURVE",
"56 283 CURVE",
"56 414 OFFCURVE",
"128 519 OFFCURVE",
"230 519 CURVE SMOOTH",
"301 519 OFFCURVE",
"337 457 OFFCURVE",
"337 391 CURVE SMOOTH",
"337 325 OFFCURVE",
"295 273 OFFCURVE",
"232 273 CURVE SMOOTH",
"174 273 OFFCURVE",
"132 308 OFFCURVE",
"132 381 CURVE SMOOTH",
"132 394 OFFCURVE",
"133 407 OFFCURVE",
"136 429 CURVE",
"157 497 LINE",
"172 501 OFFCURVE",
"177 475 OFFCURVE",
"166 450 CURVE",
"163 440 OFFCURVE",
"162 419 OFFCURVE",
"162 408 CURVE SMOOTH",
"162 362 OFFCURVE",
"190 344 OFFCURVE",
"232 344 CURVE SMOOTH",
"279 344 OFFCURVE",
"307 365 OFFCURVE",
"307 401 CURVE SMOOTH",
"307 440 OFFCURVE",
"273 459 OFFCURVE",
"235 459 CURVE SMOOTH",
"142 459 OFFCURVE",
"104 407 OFFCURVE",
"104 294 CURVE",
"104 218 OFFCURVE",
"155 71 OFFCURVE",
"301 71 CURVE SMOOTH",
"379 71 OFFCURVE",
"436 118 OFFCURVE",
"436 189 CURVE SMOOTH",
"436 256 OFFCURVE",
"419 312 OFFCURVE",
"419 368 CURVE SMOOTH",
"419 453 OFFCURVE",
"469 519 OFFCURVE",
"556 519 CURVE",
"637 519 OFFCURVE",
"681 453 OFFCURVE",
"681 375 CURVE SMOOTH",
"681 312 OFFCURVE",
"672 256 OFFCURVE",
"672 206 CURVE SMOOTH",
"672 138 OFFCURVE",
"713 71 OFFCURVE",
"786 71 CURVE"
);
}
);
};
layerId = "034236B8-3FA8-43DA-9EDA-EFF269A687EC";
name = Regular;
paths = (
{
closed = 1;
nodes = (
"387 -14 OFFCURVE",
"473 42 OFFCURVE",
"473 150 CURVE SMOOTH",
"473 229 OFFCURVE",
"461 284 OFFCURVE",
"461 339 CURVE SMOOTH",
"461 396 OFFCURVE",
"492 441 OFFCURVE",
"551 441 CURVE SMOOTH",
"605 441 OFFCURVE",
"639 406 OFFCURVE",
"639 339 CURVE SMOOTH",
"639 276 OFFCURVE",
"634 220 OFFCURVE",
"634 150 CURVE SMOOTH",
"634 65 OFFCURVE",
"679 -14 OFFCURVE",
"786 -14 CURVE SMOOTH",
"899 -14 OFFCURVE",
"979 95 OFFCURVE",
"979 242 CURVE SMOOTH",
"979 415 OFFCURVE",
"883 513 OFFCURVE",
"812 513 CURVE SMOOTH",
"781 513 OFFCURVE",
"764 493 OFFCURVE",
"764 470 CURVE SMOOTH",
"764 451 OFFCURVE",
"776 435 OFFCURVE",
"792 430 CURVE SMOOTH",
"815 423 OFFCURVE",
"836 428 OFFCURVE",
"860 420 CURVE SMOOTH",
"897 407 OFFCURVE",
"944 344 OFFCURVE",
"944 255 CURVE SMOOTH",
"944 137 OFFCURVE",
"874 71 OFFCURVE",
"786 71 CURVE SMOOTH",
"713 71 OFFCURVE",
"672 138 OFFCURVE",
"672 206 CURVE SMOOTH",
"672 256 OFFCURVE",
"681 312 OFFCURVE",
"681 375 CURVE SMOOTH",
"681 453 OFFCURVE",
"637 519 OFFCURVE",
"556 519 CURVE SMOOTH",
"469 519 OFFCURVE",
"419 453 OFFCURVE",
"419 368 CURVE SMOOTH",
"419 312 OFFCURVE",
"436 256 OFFCURVE",
"436 189 CURVE SMOOTH",
"436 118 OFFCURVE",
"379 71 OFFCURVE",
"321 71 CURVE SMOOTH",
"190 71 OFFCURVE",
"100 171 OFFCURVE",
"100 294 CURVE SMOOTH",
"100 387 OFFCURVE",
"142 454 OFFCURVE",
"235 454 CURVE SMOOTH",
"273 454 OFFCURVE",
"307 440 OFFCURVE",
"307 401 CURVE SMOOTH",
"307 365 OFFCURVE",
"279 344 OFFCURVE",
"232 344 CURVE SMOOTH",
"190 344 OFFCURVE",
"159 365 OFFCURVE",
"159 408 CURVE SMOOTH",
"159 419 OFFCURVE",
"163 440 OFFCURVE",
"166 450 CURVE",
"177 475 OFFCURVE",
"172 501 OFFCURVE",
"157 497 CURVE",
"135 429 LINE",
"132 407 OFFCURVE",
"131 394 OFFCURVE",
"131 381 CURVE SMOOTH",
"131 308 OFFCURVE",
"174 273 OFFCURVE",
"232 273 CURVE SMOOTH",
"295 273 OFFCURVE",
"337 325 OFFCURVE",
"337 391 CURVE SMOOTH",
"337 457 OFFCURVE",
"301 519 OFFCURVE",
"230 519 CURVE SMOOTH",
"128 519 OFFCURVE",
"60 414 OFFCURVE",
"60 283 CURVE SMOOTH",
"60 104 OFFCURVE",
"168 -14 OFFCURVE",
"319 -14 CURVE SMOOTH"
);
}
);
width = 1029;
}
);
unicode = 0C89;
},
{
color = 3;
glyphname = knUU;
lastChange = "2015-12-16 18:04:22 +0000";
layers = (
{
background = {
paths = (
{
closed = 1;
nodes = (
"875 -14 OFFCURVE",
"918 73 OFFCURVE",
"918 231 CURVE SMOOTH",
"918 371 OFFCURVE",
"994 441 OFFCURVE",
"1101 441 CURVE SMOOTH",
"1216 441 OFFCURVE",
"1315 363 OFFCURVE",
"1315 235 CURVE SMOOTH",
"1315 129 OFFCURVE",
"1253 68 OFFCURVE",
"1163 68 CURVE SMOOTH",
"1090 68 OFFCURVE",
"1046 111 OFFCURVE",
"1045 169 CURVE SMOOTH",
"1044 211 OFFCURVE",
"1066 237 OFFCURVE",
"1078 237 CURVE SMOOTH",
"1083 237 OFFCURVE",
"1085 233 OFFCURVE",
"1084 227 CURVE",
"1085 191 OFFCURVE",
"1106 165 OFFCURVE",
"1139 165 CURVE SMOOTH",
"1174 165 OFFCURVE",
"1200 194 OFFCURVE",
"1199 230 CURVE",
"1200 262 OFFCURVE",
"1175 299 OFFCURVE",
"1120 299 CURVE SMOOTH",
"1048 299 OFFCURVE",
"1008 235 OFFCURVE",
"1007 157 CURVE SMOOTH",
"1008 58 OFFCURVE",
"1068 -14 OFFCURVE",
"1164 -14 CURVE SMOOTH",
"1276 -14 OFFCURVE",
"1350 92 OFFCURVE",
"1350 238 CURVE SMOOTH",
"1350 402 OFFCURVE",
"1240 519 OFFCURVE",
"1092 519 CURVE SMOOTH",
"970 519 OFFCURVE",
"881 423 OFFCURVE",
"881 248 CURVE SMOOTH",
"881 116 OFFCURVE",
"845 71 OFFCURVE",
"772 71 CURVE SMOOTH",
"702 71 OFFCURVE",
"668 138 OFFCURVE",
"668 206 CURVE SMOOTH",
"668 256 OFFCURVE",
"677 312 OFFCURVE",
"677 375 CURVE SMOOTH",
"677 453 OFFCURVE",
"633 519 OFFCURVE",
"552 519 CURVE SMOOTH",
"465 519 OFFCURVE",
"415 453 OFFCURVE",
"415 368 CURVE SMOOTH",
"415 312 OFFCURVE",
"432 256 OFFCURVE",
"432 189 CURVE SMOOTH",
"432 118 OFFCURVE",
"375 71 OFFCURVE",
"317 71 CURVE SMOOTH",
"186 71 OFFCURVE",
"96 171 OFFCURVE",
"96 294 CURVE SMOOTH",
"96 387 OFFCURVE",
"138 454 OFFCURVE",
"231 454 CURVE SMOOTH",
"269 454 OFFCURVE",
"303 440 OFFCURVE",
"303 401 CURVE SMOOTH",
"303 365 OFFCURVE",
"275 344 OFFCURVE",
"228 344 CURVE SMOOTH",
"186 344 OFFCURVE",
"155 365 OFFCURVE",
"155 408 CURVE SMOOTH",
"155 419 OFFCURVE",
"159 440 OFFCURVE",
"162 450 CURVE",
"173 475 OFFCURVE",
"168 501 OFFCURVE",
"153 497 CURVE",
"131 429 LINE",
"128 407 OFFCURVE",
"127 394 OFFCURVE",
"127 381 CURVE SMOOTH",
"127 308 OFFCURVE",
"170 273 OFFCURVE",
"228 273 CURVE SMOOTH",
"291 273 OFFCURVE",
"333 325 OFFCURVE",
"333 391 CURVE SMOOTH",
"333 457 OFFCURVE",
"297 519 OFFCURVE",
"226 519 CURVE SMOOTH",
"124 519 OFFCURVE",
"56 414 OFFCURVE",
"56 283 CURVE SMOOTH",
"56 104 OFFCURVE",
"164 -14 OFFCURVE",
"315 -14 CURVE SMOOTH",
"383 -14 OFFCURVE",
"469 42 OFFCURVE",
"469 150 CURVE SMOOTH",
"469 229 OFFCURVE",
"457 284 OFFCURVE",
"457 339 CURVE SMOOTH",
"457 396 OFFCURVE",
"488 441 OFFCURVE",
"547 441 CURVE SMOOTH",
"601 441 OFFCURVE",
"635 406 OFFCURVE",
"635 339 CURVE SMOOTH",
"635 276 OFFCURVE",
"630 220 OFFCURVE",
"630 150 CURVE SMOOTH",
"630 65 OFFCURVE",
"670 -14 OFFCURVE",
"775 -14 CURVE SMOOTH"
);
}
);
};
layerId = "034236B8-3FA8-43DA-9EDA-EFF269A687EC";
name = Regular;
paths = (
{
closed = 1;
nodes = (
"387 -14 OFFCURVE",
"473 42 OFFCURVE",
"473 150 CURVE SMOOTH",
"473 229 OFFCURVE",
"461 284 OFFCURVE",
"461 339 CURVE SMOOTH",
"461 396 OFFCURVE",
"492 441 OFFCURVE",
"551 441 CURVE SMOOTH",
"605 441 OFFCURVE",
"639 406 OFFCURVE",
"639 339 CURVE SMOOTH",
"639 276 OFFCURVE",
"634 220 OFFCURVE",
"634 150 CURVE SMOOTH",
"634 65 OFFCURVE",
"674 -14 OFFCURVE",
"779 -14 CURVE SMOOTH",
"879 -14 OFFCURVE",
"922 73 OFFCURVE",
"922 231 CURVE SMOOTH",
"922 371 OFFCURVE",
"998 441 OFFCURVE",
"1105 441 CURVE SMOOTH",
"1220 441 OFFCURVE",
"1319 363 OFFCURVE",
"1319 235 CURVE SMOOTH",
"1319 129 OFFCURVE",
"1257 68 OFFCURVE",
"1167 68 CURVE SMOOTH",
"1094 68 OFFCURVE",
"1050 111 OFFCURVE",
"1049 169 CURVE SMOOTH",
"1048 211 OFFCURVE",
"1070 237 OFFCURVE",
"1082 237 CURVE SMOOTH",
"1087 237 OFFCURVE",
"1088 233 OFFCURVE",
"1088 227 CURVE",
"1089 191 OFFCURVE",
"1110 165 OFFCURVE",
"1143 165 CURVE SMOOTH",
"1178 165 OFFCURVE",
"1204 194 OFFCURVE",
"1203 230 CURVE",
"1204 262 OFFCURVE",
"1179 299 OFFCURVE",
"1124 299 CURVE SMOOTH",
"1052 299 OFFCURVE",
"1012 235 OFFCURVE",
"1011 157 CURVE SMOOTH",
"1012 58 OFFCURVE",
"1072 -14 OFFCURVE",
"1168 -14 CURVE SMOOTH",
"1280 -14 OFFCURVE",
"1354 92 OFFCURVE",
"1354 238 CURVE SMOOTH",
"1354 402 OFFCURVE",
"1244 519 OFFCURVE",
"1096 519 CURVE SMOOTH",
"974 519 OFFCURVE",
"885 423 OFFCURVE",
"885 248 CURVE SMOOTH",
"885 116 OFFCURVE",
"849 71 OFFCURVE",
"776 71 CURVE SMOOTH",
"706 71 OFFCURVE",
"672 138 OFFCURVE",
"672 206 CURVE SMOOTH",
"672 256 OFFCURVE",
"681 312 OFFCURVE",
"681 375 CURVE SMOOTH",
"681 453 OFFCURVE",
"637 519 OFFCURVE",
"556 519 CURVE SMOOTH",
"469 519 OFFCURVE",
"419 453 OFFCURVE",
"419 368 CURVE SMOOTH",
"419 312 OFFCURVE",
"436 256 OFFCURVE",
"436 189 CURVE SMOOTH",
"436 118 OFFCURVE",
"379 71 OFFCURVE",
"321 71 CURVE SMOOTH",
"190 71 OFFCURVE",
"100 171 OFFCURVE",
"100 294 CURVE SMOOTH",
"100 387 OFFCURVE",
"142 454 OFFCURVE",
"235 454 CURVE SMOOTH",
"273 454 OFFCURVE",
"307 440 OFFCURVE",
"307 401 CURVE SMOOTH",
"307 365 OFFCURVE",
"279 344 OFFCURVE",
"232 344 CURVE SMOOTH",
"190 344 OFFCURVE",
"159 365 OFFCURVE",
"159 408 CURVE SMOOTH",
"159 419 OFFCURVE",
"163 440 OFFCURVE",
"166 450 CURVE",
"177 475 OFFCURVE",
"172 501 OFFCURVE",
"157 497 CURVE",
"135 429 LINE",
"132 407 OFFCURVE",
"131 394 OFFCURVE",
"131 381 CURVE SMOOTH",
"131 308 OFFCURVE",
"174 273 OFFCURVE",
"232 273 CURVE SMOOTH",
"295 273 OFFCURVE",
"337 325 OFFCURVE",
"337 391 CURVE SMOOTH",
"337 457 OFFCURVE",
"301 519 OFFCURVE",
"230 519 CURVE SMOOTH",
"128 519 OFFCURVE",
"60 414 OFFCURVE",
"60 283 CURVE SMOOTH",
"60 104 OFFCURVE",
"168 -14 OFFCURVE",
"319 -14 CURVE SMOOTH"
);
}
);
width = 1409;
}
);
unicode = 0C8A;
},
{
color = 3;
glyphname = knvR;
lastChange = "2015-12-16 18:04:23 +0000";
layers = (
{
background = {
paths = (
{
closed = 1;
nodes = (
"367 436 OFFCURVE",
"261 519 OFFCURVE",
"168 519 CURVE",
"97 519 OFFCURVE",
"61 457 OFFCURVE",
"61 401 CURVE SMOOTH",
"61 325 OFFCURVE",
"103 283 OFFCURVE",
"166 283 CURVE SMOOTH",
"224 283 OFFCURVE",
"266 308 OFFCURVE",
"266 381 CURVE SMOOTH",
"266 394 OFFCURVE",
"265 407 OFFCURVE",
"262 429 CURVE",
"222 450 LINE",
"235 440 OFFCURVE",
"236 419 OFFCURVE",
"236 408 CURVE SMOOTH",
"236 372 OFFCURVE",
"208 354 OFFCURVE",
"166 354 CURVE SMOOTH",
"119 354 OFFCURVE",
"91 375 OFFCURVE",
"91 407 CURVE SMOOTH",
"91 440 OFFCURVE",
"115 459 OFFCURVE",
"153 459 CURVE",
"240 459 OFFCURVE",
"325 381 OFFCURVE",
"325 253 CURVE",
"325 124 OFFCURVE",
"240 46 OFFCURVE",
"153 46 CURVE",
"115 46 OFFCURVE",
"91 65 OFFCURVE",
"91 98 CURVE SMOOTH",
"91 130 OFFCURVE",
"119 151 OFFCURVE",
"166 151 CURVE SMOOTH",
"208 151 OFFCURVE",
"236 133 OFFCURVE",
"236 97 CURVE SMOOTH",
"236 86 OFFCURVE",
"235 65 OFFCURVE",
"222 55 CURVE",
"262 76 LINE",
"265 98 OFFCURVE",
"266 111 OFFCURVE",
"266 124 CURVE SMOOTH",
"266 197 OFFCURVE",
"224 222 OFFCURVE",
"166 222 CURVE SMOOTH",
"103 222 OFFCURVE",
"61 180 OFFCURVE",
"61 104 CURVE SMOOTH",
"61 48 OFFCURVE",
"97 -14 OFFCURVE",
"168 -14 CURVE",
"261 -14 OFFCURVE",
"367 69 OFFCURVE",
"367 253 CURVE"
);
},
{
closed = 1;
nodes = (
"687 392 OFFCURVE",
"573 509 OFFCURVE",
"487 509 CURVE SMOOTH",
"451 509 OFFCURVE",
"432 496 OFFCURVE",
"432 473 CURVE SMOOTH",
"432 450 OFFCURVE",
"443 434 OFFCURVE",
"473 434 CURVE",
"572 434 OFFCURVE",
"645 338 OFFCURVE",
"645 257 CURVE SMOOTH",
"645 158 OFFCURVE",
"576 71 OFFCURVE",
"491 71 CURVE",
"404 71 OFFCURVE",
"355 145 OFFCURVE",
"335 189 CURVE",
"311 139 LINE",
"323 82 OFFCURVE",
"398 -14 OFFCURVE",
"503 -14 CURVE",
"628 -14 OFFCURVE",
"687 109 OFFCURVE",
"687 245 CURVE SMOOTH"
);
},
{
closed = 1;
nodes = (
"629 644 LINE",
"653 635 OFFCURVE",
"675 610 OFFCURVE",
"675 576 CURVE SMOOTH",
"675 536 OFFCURVE",
"644 509 OFFCURVE",
"583 509 CURVE SMOOTH",
"391 509 LINE",
"391 434 LINE",
"583 434 LINE SMOOTH",
"664 434 OFFCURVE",
"718 480 OFFCURVE",
"718 552 CURVE SMOOTH",
"718 607 OFFCURVE",
"687 648 OFFCURVE",
"644 664 CURVE"
);
},
{
closed = 1;
nodes = (
"744 71 OFFCURVE",
"695 145 OFFCURVE",
"675 189 CURVE",
"651 139 LINE",
"663 82 OFFCURVE",
"738 -14 OFFCURVE",
"834 -14 CURVE",
"947 -14 OFFCURVE",
"1027 115 OFFCURVE",
"1027 242 CURVE",
"1027 415 OFFCURVE",
"941 513 OFFCURVE",
"870 513 CURVE SMOOTH",
"839 513 OFFCURVE",
"822 493 OFFCURVE",
"822 470 CURVE SMOOTH",
"822 451 OFFCURVE",
"834 435 OFFCURVE",
"850 430 CURVE SMOOTH",
"873 423 OFFCURVE",
"894 428 OFFCURVE",
"918 420 CURVE SMOOTH",
"955 407 OFFCURVE",
"986 344 OFFCURVE",
"986 255 CURVE",
"986 159 OFFCURVE",
"916 71 OFFCURVE",
"834 71 CURVE"
);
}
);
};
layerId = "034236B8-3FA8-43DA-9EDA-EFF269A687EC";
name = Regular;
paths = (
{
closed = 1;
nodes = (
"972 -14 OFFCURVE",
"1052 95 OFFCURVE",
"1052 242 CURVE SMOOTH",
"1052 415 OFFCURVE",
"956 513 OFFCURVE",
"885 513 CURVE SMOOTH",
"854 513 OFFCURVE",
"837 493 OFFCURVE",
"837 470 CURVE SMOOTH",
"837 451 OFFCURVE",
"849 435 OFFCURVE",
"865 430 CURVE SMOOTH",
"888 423 OFFCURVE",
"909 428 OFFCURVE",
"933 420 CURVE SMOOTH",
"970 407 OFFCURVE",
"1017 344 OFFCURVE",
"1017 255 CURVE SMOOTH",
"1017 137 OFFCURVE",
"947 71 OFFCURVE",
"859 71 CURVE SMOOTH",
"790 71 OFFCURVE",
"737 105 OFFCURVE",
"700 207 CURVE",
"680 188 LINE",
"698 61 OFFCURVE",
"773 -14 OFFCURVE",
"859 -14 CURVE SMOOTH"
);
},
{
closed = 1;
nodes = (
"308 -15 OFFCURVE",
"388 120 OFFCURVE",
"388 251 CURVE SMOOTH",
"388 382 OFFCURVE",
"310 519 OFFCURVE",
"158 519 CURVE SMOOTH",
"96 519 OFFCURVE",
"43 471 OFFCURVE",
"43 405 CURVE SMOOTH",
"43 339 OFFCURVE",
"102 289 OFFCURVE",
"155 289 CURVE SMOOTH",
"213 289 OFFCURVE",
"257 332 OFFCURVE",
"257 405 CURVE SMOOTH",
"257 418 OFFCURVE",
"256 431 OFFCURVE",
"253 453 CURVE",
"222 470 LINE",
"225 460 OFFCURVE",
"229 439 OFFCURVE",
"229 428 CURVE SMOOTH",
"229 382 OFFCURVE",
"199 355 OFFCURVE",
"157 355 CURVE SMOOTH",
"111 355 OFFCURVE",
"80 377 OFFCURVE",
"80 405 CURVE SMOOTH",
"80 432 OFFCURVE",
"109 449 OFFCURVE",
"153 449 CURVE SMOOTH",
"266 449 OFFCURVE",
"348 365 OFFCURVE",
"348 249 CURVE SMOOTH",
"348 149 OFFCURVE",
"281 57 OFFCURVE",
"158 57 CURVE SMOOTH",
"108 57 OFFCURVE",
"78 83 OFFCURVE",
"78 112 CURVE SMOOTH",
"78 140 OFFCURVE",
"107 161 OFFCURVE",
"154 161 CURVE SMOOTH",
"196 161 OFFCURVE",
"226 122 OFFCURVE",
"226 76 CURVE SMOOTH",
"226 65 OFFCURVE",
"222 44 OFFCURVE",
"219 34 CURVE",
"250 54 LINE",
"253 76 OFFCURVE",
"254 89 OFFCURVE",
"254 102 CURVE SMOOTH",
"254 175 OFFCURVE",
"210 227 OFFCURVE",
"152 227 CURVE SMOOTH",
"89 227 OFFCURVE",
"40 176 OFFCURVE",
"40 110 CURVE SMOOTH",
"40 42 OFFCURVE",
"96 -15 OFFCURVE",
"165 -15 CURVE SMOOTH"
);
},
{
closed = 1;
nodes = (
"636 -14 OFFCURVE",
"716 95 OFFCURVE",
"716 242 CURVE SMOOTH",
"716 415 OFFCURVE",
"620 509 OFFCURVE",
"549 509 CURVE SMOOTH",
"518 509 OFFCURVE",
"501 493 OFFCURVE",
"501 470 CURVE SMOOTH",
"501 464 OFFCURVE",
"530 453 OFFCURVE",
"569 434 CURVE SMOOTH",
"616 411 OFFCURVE",
"681 344 OFFCURVE",
"681 255 CURVE SMOOTH",
"681 137 OFFCURVE",
"611 71 OFFCURVE",
"523 71 CURVE SMOOTH",
"454 71 OFFCURVE",
"401 105 OFFCURVE",
"364 207 CURVE",
"344 188 LINE",
"362 61 OFFCURVE",
"437 -14 OFFCURVE",
"523 -14 CURVE SMOOTH"
);
},
{
closed = 1;
nodes = (
"613 434 LINE SMOOTH",
"694 434 OFFCURVE",
"748 480 OFFCURVE",
"748 552 CURVE SMOOTH",
"748 607 OFFCURVE",
"717 648 OFFCURVE",
"674 664 CURVE",
"659 644 LINE",
"683 635 OFFCURVE",
"705 610 OFFCURVE",
"705 576 CURVE SMOOTH",
"705 536 OFFCURVE",
"674 509 OFFCURVE",
"613 509 CURVE SMOOTH",
"421 509 LINE",
"421 434 LINE"
);
}
);
width = 1102;
},
{
associatedMasterId = "034236B8-3FA8-43DA-9EDA-EFF269A687EC";
background = {
paths = (
{
closed = 1;
nodes = (
"383 339 OFFCURVE",
"284 450 OFFCURVE",
"209 450 CURVE SMOOTH",
"178 450 OFFCURVE",
"161 433 OFFCURVE",
"161 413 CURVE SMOOTH",
"161 393 OFFCURVE",
"171 378 OFFCURVE",
"197 378 CURVE",
"283 362 OFFCURVE",
"347 292 OFFCURVE",
"347 213 CURVE SMOOTH",
"347 136 OFFCURVE",
"287 79 OFFCURVE",
"213 79 CURVE",
"154 79 OFFCURVE",
"94 124 OFFCURVE",
"77 163 CURVE",
"56 102 LINE",
"84 52 OFFCURVE",
"158 -14 OFFCURVE",
"223 -14 CURVE",
"332 -14 OFFCURVE",
"383 93 OFFCURVE",
"383 203 CURVE SMOOTH"
);
}
);
};
layerId = "CC23B812-8F97-44EF-8D0E-01E21B7BC2CA";
name = "Regular Nov 3 15, 12:19";
paths = (
{
closed = 1;
nodes = (
"574 567 LINE",
"598 552 OFFCURVE",
"606 530 OFFCURVE",
"606 511 CURVE SMOOTH",
"606 475 OFFCURVE",
"579 450 OFFCURVE",
"534 450 CURVE SMOOTH",
"366 450 LINE",
"366 378 LINE",
"534 378 LINE SMOOTH",
"603 378 OFFCURVE",
"652 426 OFFCURVE",
"652 486 CURVE SMOOTH",
"652 525 OFFCURVE",
"632 561 OFFCURVE",
"587 585 CURVE"
);
},
{
closed = 1;
nodes = (
"623 339 OFFCURVE",
"524 450 OFFCURVE",
"449 450 CURVE SMOOTH",
"418 450 OFFCURVE",
"401 433 OFFCURVE",
"401 413 CURVE SMOOTH",
"401 393 OFFCURVE",
"411 378 OFFCURVE",
"437 378 CURVE",
"523 362 OFFCURVE",
"587 292 OFFCURVE",
"587 213 CURVE SMOOTH",
"587 136 OFFCURVE",
"527 79 OFFCURVE",
"453 79 CURVE",
"394 79 OFFCURVE",
"334 124 OFFCURVE",
"317 163 CURVE",
"296 102 LINE",
"324 52 OFFCURVE",
"398 -14 OFFCURVE",
"463 -14 CURVE",
"572 -14 OFFCURVE",
"623 93 OFFCURVE",
"623 203 CURVE SMOOTH"
);
},
{
closed = 1;
nodes = (
"917 339 OFFCURVE",
"818 450 OFFCURVE",
"743 450 CURVE SMOOTH",
"712 450 OFFCURVE",
"695 433 OFFCURVE",
"695 413 CURVE SMOOTH",
"695 398 OFFCURVE",
"704 385 OFFCURVE",
"716 379 CURVE SMOOTH",
"729 372 OFFCURVE",
"749 376 OFFCURVE",
"777 370 CURVE SMOOTH",
"830 359 OFFCURVE",
"881 286 OFFCURVE",
"881 213 CURVE",
"881 136 OFFCURVE",
"821 79 OFFCURVE",
"747 79 CURVE",
"688 79 OFFCURVE",
"628 124 OFFCURVE",
"611 163 CURVE",
"590 102 LINE",
"618 52 OFFCURVE",
"692 -14 OFFCURVE",
"757 -14 CURVE",
"866 -14 OFFCURVE",
"917 93 OFFCURVE",
"917 203 CURVE"
);
},
{
closed = 1;
nodes = (
"323 343 OFFCURVE",
"231 450 OFFCURVE",
"150 450 CURVE SMOOTH",
"89 450 OFFCURVE",
"66 404 OFFCURVE",
"66 347 CURVE SMOOTH",
"66 290 OFFCURVE",
"94 244 OFFCURVE",
"140 244 CURVE SMOOTH",
"182 244 OFFCURVE",
"218 275 OFFCURVE",
"218 338 CURVE SMOOTH",
"218 370 OFFCURVE",
"211 398 OFFCURVE",
"200 417 CURVE",
"179 413 LINE",
"188 403 OFFCURVE",
"192 382 OFFCURVE",
"192 362 CURVE SMOOTH",
"192 322 OFFCURVE",
"168 306 OFFCURVE",
"140 306 CURVE SMOOTH",
"108 306 OFFCURVE",
"92 324 OFFCURVE",
"92 347 CURVE SMOOTH",
"92 381 OFFCURVE",
"113 397 OFFCURVE",
"155 397 CURVE SMOOTH",
"222 397 OFFCURVE",
"287 295 OFFCURVE",
"287 214 CURVE",
"287 111 OFFCURVE",
"222 39 OFFCURVE",
"155 39 CURVE SMOOTH",
"113 39 OFFCURVE",
"92 55 OFFCURVE",
"92 89 CURVE SMOOTH",
"92 112 OFFCURVE",
"108 130 OFFCURVE",
"140 130 CURVE SMOOTH",
"168 130 OFFCURVE",
"192 114 OFFCURVE",
"192 74 CURVE SMOOTH",
"192 54 OFFCURVE",
"188 33 OFFCURVE",
"179 23 CURVE",
"200 19 LINE",
"211 38 OFFCURVE",
"218 66 OFFCURVE",
"218 98 CURVE SMOOTH",
"218 161 OFFCURVE",
"182 192 OFFCURVE",
"140 192 CURVE SMOOTH",
"94 192 OFFCURVE",
"66 146 OFFCURVE",
"66 89 CURVE SMOOTH",
"66 32 OFFCURVE",
"89 -14 OFFCURVE",
"150 -14 CURVE SMOOTH",
"231 -14 OFFCURVE",
"323 91 OFFCURVE",
"323 207 CURVE"
);
}
);
width = 962;
}
);
unicode = 0C8B;
},
{
color = 3;
glyphname = knvRR;
lastChange = "2015-12-16 18:04:24 +0000";
layers = (
{
background = {
paths = (
{
closed = 1;
nodes = (
"1031 519 OFFCURVE",
"933 456 OFFCURVE",
"933 273 CURVE SMOOTH",
"933 117 OFFCURVE",
"907 71 OFFCURVE",
"834 71 CURVE SMOOTH",
"776 71 OFFCURVE",
"717 145 OFFCURVE",
"698 189 CURVE",
"674 119 LINE",
"706 62 OFFCURVE",
"771 -14 OFFCURVE",
"856 -14 CURVE SMOOTH",
"965 -14 OFFCURVE",
"980 103 OFFCURVE",
"980 274 CURVE SMOOTH",
"980 416 OFFCURVE",
"1050 454 OFFCURVE",
"1135 454 CURVE SMOOTH",
"1228 454 OFFCURVE",
"1313 373 OFFCURVE",
"1313 217 CURVE SMOOTH",
"1313 125 OFFCURVE",
"1266 50 OFFCURVE",
"1184 50 CURVE SMOOTH",
"1141 50 OFFCURVE",
"1106 79 OFFCURVE",
"1106 116 CURVE",
"1106 132 OFFCURVE",
"1113 155 OFFCURVE",
"1126 155 CURVE SMOOTH",
"1128 155 OFFCURVE",
"1129 154 OFFCURVE",
"1129 148 CURVE SMOOTH",
"1129 118 OFFCURVE",
"1147 97 OFFCURVE",
"1174 97 CURVE SMOOTH",
"1202 97 OFFCURVE",
"1223 120 OFFCURVE",
"1223 149 CURVE SMOOTH",
"1223 176 OFFCURVE",
"1198 206 OFFCURVE",
"1155 206 CURVE SMOOTH",
"1095 206 OFFCURVE",
"1065 153 OFFCURVE",
"1065 99 CURVE",
"1065 36 OFFCURVE",
"1116 -14 OFFCURVE",
"1177 -14 CURVE SMOOTH",
"1276 -14 OFFCURVE",
"1355 77 OFFCURVE",
"1355 252 CURVE SMOOTH",
"1355 438 OFFCURVE",
"1241 519 OFFCURVE",
"1124 519 CURVE"
);
},
{
closed = 1;
nodes = (
"476 508 OFFCURVE",
"457 488 OFFCURVE",
"457 465 CURVE SMOOTH",
"457 442 OFFCURVE",
"468 434 OFFCURVE",
"498 434 CURVE",
"597 434 OFFCURVE",
"670 358 OFFCURVE",
"670 247 CURVE SMOOTH",
"670 158 OFFCURVE",
"601 71 OFFCURVE",
"516 71 CURVE SMOOTH",
"429 71 OFFCURVE",
"380 145 OFFCURVE",
"360 189 CURVE",
"336 119 LINE",
"368 62 OFFCURVE",
"433 -14 OFFCURVE",
"528 -14 CURVE SMOOTH",
"653 -14 OFFCURVE",
"712 109 OFFCURVE",
"712 235 CURVE SMOOTH",
"712 392 OFFCURVE",
"598 508 OFFCURVE",
"512 508 CURVE SMOOTH"
);
},
{
closed = 1;
nodes = (
"642 644 LINE",
"666 635 OFFCURVE",
"688 610 OFFCURVE",
"688 576 CURVE SMOOTH",
"688 536 OFFCURVE",
"657 509 OFFCURVE",
"596 509 CURVE SMOOTH",
"405 509 LINE",
"405 434 LINE",
"596 434 LINE SMOOTH",
"677 434 OFFCURVE",
"731 480 OFFCURVE",
"731 552 CURVE SMOOTH",
"731 607 OFFCURVE",
"700 648 OFFCURVE",
"657 664 CURVE"
);
},
{
closed = 1;
nodes = (
"367 436 OFFCURVE",
"261 519 OFFCURVE",
"168 519 CURVE",
"97 519 OFFCURVE",
"61 457 OFFCURVE",
"61 401 CURVE SMOOTH",
"61 325 OFFCURVE",
"103 283 OFFCURVE",
"166 283 CURVE SMOOTH",
"224 283 OFFCURVE",
"266 308 OFFCURVE",
"266 381 CURVE SMOOTH",
"266 394 OFFCURVE",
"265 407 OFFCURVE",
"262 429 CURVE",
"222 450 LINE",
"235 440 OFFCURVE",
"236 419 OFFCURVE",
"236 408 CURVE SMOOTH",
"236 372 OFFCURVE",
"208 354 OFFCURVE",
"166 354 CURVE SMOOTH",
"119 354 OFFCURVE",
"91 375 OFFCURVE",
"91 407 CURVE SMOOTH",
"91 440 OFFCURVE",
"115 459 OFFCURVE",
"153 459 CURVE",
"240 459 OFFCURVE",
"325 381 OFFCURVE",
"325 253 CURVE",
"325 124 OFFCURVE",
"240 46 OFFCURVE",
"153 46 CURVE",
"115 46 OFFCURVE",
"91 65 OFFCURVE",
"91 98 CURVE SMOOTH",
"91 130 OFFCURVE",
"119 151 OFFCURVE",
"166 151 CURVE SMOOTH",
"208 151 OFFCURVE",
"236 133 OFFCURVE",
"236 97 CURVE SMOOTH",
"236 86 OFFCURVE",
"235 65 OFFCURVE",
"222 55 CURVE",
"262 76 LINE",
"265 98 OFFCURVE",
"266 111 OFFCURVE",
"266 124 CURVE SMOOTH",
"266 197 OFFCURVE",
"224 222 OFFCURVE",
"166 222 CURVE SMOOTH",
"103 222 OFFCURVE",
"61 180 OFFCURVE",
"61 104 CURVE SMOOTH",
"61 48 OFFCURVE",
"97 -14 OFFCURVE",
"168 -14 CURVE",
"261 -14 OFFCURVE",
"367 69 OFFCURVE",
"367 253 CURVE"
);
}
);
};
layerId = "034236B8-3FA8-43DA-9EDA-EFF269A687EC";
name = Regular;
paths = (
{
closed = 1;
nodes = (
"963 -14 OFFCURVE",
"996 73 OFFCURVE",
"996 231 CURVE SMOOTH",
"996 371 OFFCURVE",
"1072 441 OFFCURVE",
"1179 441 CURVE SMOOTH",
"1294 441 OFFCURVE",
"1393 363 OFFCURVE",
"1393 235 CURVE SMOOTH",
"1393 129 OFFCURVE",
"1331 68 OFFCURVE",
"1241 68 CURVE SMOOTH",
"1168 68 OFFCURVE",
"1124 111 OFFCURVE",
"1123 169 CURVE SMOOTH",
"1122 211 OFFCURVE",
"1144 237 OFFCURVE",
"1156 237 CURVE SMOOTH",
"1161 237 OFFCURVE",
"1163 233 OFFCURVE",
"1162 227 CURVE",
"1163 191 OFFCURVE",
"1184 165 OFFCURVE",
"1217 165 CURVE SMOOTH",
"1252 165 OFFCURVE",
"1278 194 OFFCURVE",
"1277 230 CURVE",
"1278 262 OFFCURVE",
"1253 299 OFFCURVE",
"1198 299 CURVE SMOOTH",
"1126 299 OFFCURVE",
"1086 235 OFFCURVE",
"1085 157 CURVE SMOOTH",
"1086 58 OFFCURVE",
"1146 -14 OFFCURVE",
"1242 -14 CURVE SMOOTH",
"1354 -14 OFFCURVE",
"1428 92 OFFCURVE",
"1428 238 CURVE SMOOTH",
"1428 402 OFFCURVE",
"1318 519 OFFCURVE",
"1170 519 CURVE SMOOTH",
"1048 519 OFFCURVE",
"959 423 OFFCURVE",
"959 248 CURVE SMOOTH",
"959 116 OFFCURVE",
"923 71 OFFCURVE",
"850 71 CURVE SMOOTH",
"769 71 OFFCURVE",
"719 145 OFFCURVE",
"690 222 CURVE",
"673 186 LINE",
"697 88 OFFCURVE",
"775 -14 OFFCURVE",
"853 -14 CURVE SMOOTH"
);
},
{
closed = 1;
nodes = (
"308 -15 OFFCURVE",
"388 120 OFFCURVE",
"388 251 CURVE SMOOTH",
"388 382 OFFCURVE",
"310 519 OFFCURVE",
"158 519 CURVE SMOOTH",
"96 519 OFFCURVE",
"43 471 OFFCURVE",
"43 405 CURVE SMOOTH",
"43 339 OFFCURVE",
"102 289 OFFCURVE",
"155 289 CURVE SMOOTH",
"213 289 OFFCURVE",
"257 332 OFFCURVE",
"257 405 CURVE SMOOTH",
"257 418 OFFCURVE",
"256 431 OFFCURVE",
"253 453 CURVE",
"222 470 LINE",
"225 460 OFFCURVE",
"229 439 OFFCURVE",
"229 428 CURVE SMOOTH",
"229 382 OFFCURVE",
"199 355 OFFCURVE",
"157 355 CURVE SMOOTH",
"111 355 OFFCURVE",
"80 377 OFFCURVE",
"80 405 CURVE SMOOTH",
"80 432 OFFCURVE",
"109 449 OFFCURVE",
"153 449 CURVE SMOOTH",
"266 449 OFFCURVE",
"348 365 OFFCURVE",
"348 249 CURVE SMOOTH",
"348 149 OFFCURVE",
"281 57 OFFCURVE",
"158 57 CURVE SMOOTH",
"108 57 OFFCURVE",
"78 83 OFFCURVE",
"78 112 CURVE SMOOTH",
"78 140 OFFCURVE",
"107 161 OFFCURVE",
"154 161 CURVE SMOOTH",
"196 161 OFFCURVE",
"226 122 OFFCURVE",
"226 76 CURVE SMOOTH",
"226 65 OFFCURVE",
"222 44 OFFCURVE",
"219 34 CURVE",
"250 54 LINE",
"253 76 OFFCURVE",
"254 89 OFFCURVE",
"254 102 CURVE SMOOTH",
"254 175 OFFCURVE",
"210 227 OFFCURVE",
"152 227 CURVE SMOOTH",
"89 227 OFFCURVE",
"40 176 OFFCURVE",
"40 110 CURVE SMOOTH",
"40 42 OFFCURVE",
"96 -15 OFFCURVE",
"165 -15 CURVE SMOOTH"
);
},
{
closed = 1;
nodes = (
"636 -14 OFFCURVE",
"716 95 OFFCURVE",
"716 242 CURVE SMOOTH",
"716 415 OFFCURVE",
"620 509 OFFCURVE",
"549 509 CURVE SMOOTH",
"518 509 OFFCURVE",
"501 493 OFFCURVE",
"501 470 CURVE SMOOTH",
"501 464 OFFCURVE",
"530 453 OFFCURVE",
"569 434 CURVE SMOOTH",
"616 411 OFFCURVE",
"681 344 OFFCURVE",
"681 255 CURVE SMOOTH",
"681 137 OFFCURVE",
"611 71 OFFCURVE",
"523 71 CURVE SMOOTH",
"454 71 OFFCURVE",
"401 105 OFFCURVE",
"364 207 CURVE",
"344 188 LINE",
"362 61 OFFCURVE",
"437 -14 OFFCURVE",
"523 -14 CURVE SMOOTH"
);
},
{
closed = 1;
nodes = (
"613 434 LINE SMOOTH",
"694 434 OFFCURVE",
"748 480 OFFCURVE",
"748 552 CURVE SMOOTH",
"748 607 OFFCURVE",
"717 648 OFFCURVE",
"674 664 CURVE",
"659 644 LINE",
"683 635 OFFCURVE",
"705 610 OFFCURVE",
"705 576 CURVE SMOOTH",
"705 536 OFFCURVE",
"674 509 OFFCURVE",
"613 509 CURVE SMOOTH",
"421 509 LINE",
"421 434 LINE"
);
}
);
width = 1483;
}
);
unicode = 0CE0;
},
{
color = 3;
glyphname = knvL;
lastChange = "2015-12-16 17:45:46 +0000";
layers = (
{
background = {
paths = (
{
closed = 1;
nodes = (
"916 372 OFFCURVE",
"813 509 OFFCURVE",
"726 509 CURVE SMOOTH",
"691 509 OFFCURVE",
"671 496 OFFCURVE",
"671 473 CURVE SMOOTH",
"671 456 OFFCURVE",
"682 444 OFFCURVE",
"695 437 CURVE SMOOTH",
"710 429 OFFCURVE",
"733 435 OFFCURVE",
"766 427 CURVE SMOOTH",
"815 414 OFFCURVE",
"874 306 OFFCURVE",
"874 215 CURVE",
"874 135 OFFCURVE",
"816 71 OFFCURVE",
"728 71 CURVE SMOOTH",
"559 71 LINE SMOOTH",
"496 71 OFFCURVE",
"464 113 OFFCURVE",
"464 155 CURVE SMOOTH",
"464 236 OFFCURVE",
"607 252 OFFCURVE",
"607 371 CURVE SMOOTH",
"607 461 OFFCURVE",
"548 519 OFFCURVE",
"484 519 CURVE SMOOTH",
"415 519 OFFCURVE",
"347 461 OFFCURVE",
"324 377 CURVE",
"322 377 LINE",
"299 461 OFFCURVE",
"230 519 OFFCURVE",
"161 519 CURVE SMOOTH",
"85 519 OFFCURVE",
"26 456 OFFCURVE",
"26 377 CURVE SMOOTH",
"26 347 OFFCURVE",
"34 321 OFFCURVE",
"56 296 CURVE",
"87 317 LINE",
"80 325 OFFCURVE",
"74 340 OFFCURVE",
"74 354 CURVE SMOOTH",
"74 392 OFFCURVE",
"105 444 OFFCURVE",
"164 444 CURVE SMOOTH",
"249 444 OFFCURVE",
"304 358 OFFCURVE",
"318 283 CURVE",
"327 283 LINE",
"340 358 OFFCURVE",
"396 444 OFFCURVE",
"479 444 CURVE SMOOTH",
"532 444 OFFCURVE",
"560 416 OFFCURVE",
"560 372 CURVE SMOOTH",
"560 269 OFFCURVE",
"417 275 OFFCURVE",
"417 140 CURVE SMOOTH",
"417 55 OFFCURVE",
"470 0 OFFCURVE",
"536 0 CURVE SMOOTH",
"728 0 LINE SMOOTH",
"846 0 OFFCURVE",
"916 73 OFFCURVE",
"916 194 CURVE"
);
}
);
};
guideLines = (
{
position = "{55, 453}";
}
);
layerId = "034236B8-3FA8-43DA-9EDA-EFF269A687EC";
name = Regular;
paths = (
{
closed = 1;
nodes = (
"823 -14 OFFCURVE",
"916 120 OFFCURVE",
"916 241 CURVE SMOOTH",
"916 419 OFFCURVE",
"818 509 OFFCURVE",
"736 509 CURVE SMOOTH",
"701 509 OFFCURVE",
"681 496 OFFCURVE",
"681 473 CURVE SMOOTH",
"681 456 OFFCURVE",
"692 444 OFFCURVE",
"705 437 CURVE SMOOTH",
"720 429 OFFCURVE",
"743 435 OFFCURVE",
"776 427 CURVE SMOOTH",
"825 414 OFFCURVE",
"882 353 OFFCURVE",
"882 262 CURVE SMOOTH",
"882 137 OFFCURVE",
"776 71 OFFCURVE",
"634 71 CURVE SMOOTH",
"519 71 OFFCURVE",
"464 100 OFFCURVE",
"464 155 CURVE SMOOTH",
"464 236 OFFCURVE",
"607 275 OFFCURVE",
"607 387 CURVE SMOOTH",
"607 464 OFFCURVE",
"558 519 OFFCURVE",
"484 519 CURVE SMOOTH",
"413 519 OFFCURVE",
"341 461 OFFCURVE",
"318 377 CURVE",
"316 377 LINE",
"293 461 OFFCURVE",
"228 519 OFFCURVE",
"153 519 CURVE SMOOTH",
"79 519 OFFCURVE",
"30 467 OFFCURVE",
"30 391 CURVE SMOOTH",
"30 346 OFFCURVE",
"49 308 OFFCURVE",
"87 269 CURVE",
"109 286 LINE",
"86 312 OFFCURVE",
"77 329 OFFCURVE",
"77 359 CURVE SMOOTH",
"77 402 OFFCURVE",
"108 442 OFFCURVE",
"164 442 CURVE SMOOTH",
"249 442 OFFCURVE",
"298 358 OFFCURVE",
"312 283 CURVE",
"321 283 LINE",
"334 358 OFFCURVE",
"396 442 OFFCURVE",
"479 442 CURVE SMOOTH",
"533 442 OFFCURVE",
"561 415 OFFCURVE",
"561 371 CURVE SMOOTH",
"561 278 OFFCURVE",
"417 245 OFFCURVE",
"417 141 CURVE SMOOTH",
"417 56 OFFCURVE",
"465 -14 OFFCURVE",
"632 -14 CURVE SMOOTH"
);
}
);
width = 971;
}
);
unicode = 0C8C;
},
{
color = 3;
glyphname = knvLL;
lastChange = "2015-12-16 17:45:47 +0000";
layers = (
{
background = {
paths = (
{
closed = 1;
nodes = (
"1323 424 OFFCURVE",
"1207 509 OFFCURVE",
"1070 509 CURVE",
"750 509 LINE",
"737 469 LINE",
"797 421 OFFCURVE",
"874 335 OFFCURVE",
"874 215 CURVE",
"874 135 OFFCURVE",
"816 71 OFFCURVE",
"728 71 CURVE SMOOTH",
"559 71 LINE SMOOTH",
"496 71 OFFCURVE",
"464 114 OFFCURVE",
"464 161 CURVE SMOOTH",
"464 232 OFFCURVE",
"607 242 OFFCURVE",
"607 371 CURVE SMOOTH",
"607 461 OFFCURVE",
"548 519 OFFCURVE",
"484 519 CURVE SMOOTH",
"415 519 OFFCURVE",
"347 461 OFFCURVE",
"324 377 CURVE",
"322 377 LINE",
"299 461 OFFCURVE",
"230 519 OFFCURVE",
"161 519 CURVE SMOOTH",
"85 519 OFFCURVE",
"26 456 OFFCURVE",
"26 377 CURVE SMOOTH",
"26 347 OFFCURVE",
"34 321 OFFCURVE",
"56 296 CURVE",
"87 317 LINE",
"80 325 OFFCURVE",
"74 340 OFFCURVE",
"74 354 CURVE SMOOTH",
"74 392 OFFCURVE",
"105 444 OFFCURVE",
"164 444 CURVE SMOOTH",
"249 444 OFFCURVE",
"304 358 OFFCURVE",
"318 283 CURVE",
"327 283 LINE",
"340 358 OFFCURVE",
"396 444 OFFCURVE",
"479 444 CURVE SMOOTH",
"532 444 OFFCURVE",
"560 416 OFFCURVE",
"560 372 CURVE SMOOTH",
"560 269 OFFCURVE",
"417 275 OFFCURVE",
"417 140 CURVE SMOOTH",
"417 55 OFFCURVE",
"470 0 OFFCURVE",
"536 0 CURVE SMOOTH",
"728 0 LINE SMOOTH",
"846 0 OFFCURVE",
"916 73 OFFCURVE",
"916 194 CURVE",
"916 306 OFFCURVE",
"875 391 OFFCURVE",
"817 444 CURVE",
"1081 444 LINE SMOOTH",
"1204 444 OFFCURVE",
"1284 341 OFFCURVE",
"1284 235 CURVE",
"1284 140 OFFCURVE",
"1234 71 OFFCURVE",
"1142 71 CURVE SMOOTH",
"1071 71 OFFCURVE",
"1029 112 OFFCURVE",
"1029 169 CURVE",
"1029 211 OFFCURVE",
"1038 237 OFFCURVE",
"1050 237 CURVE SMOOTH",
"1055 237 OFFCURVE",
"1056 232 OFFCURVE",
"1056 227 CURVE SMOOTH",
"1056 191 OFFCURVE",
"1078 165 OFFCURVE",
"1111 165 CURVE SMOOTH",
"1146 165 OFFCURVE",
"1171 194 OFFCURVE",
"1171 230 CURVE SMOOTH",
"1171 262 OFFCURVE",
"1146 299 OFFCURVE",
"1093 299 CURVE SMOOTH",
"1014 299 OFFCURVE",
"977 233 OFFCURVE",
"977 155 CURVE",
"977 56 OFFCURVE",
"1040 -14 OFFCURVE",
"1126 -14 CURVE SMOOTH",
"1237 -14 OFFCURVE",
"1323 82 OFFCURVE",
"1323 248 CURVE"
);
}
);
};
layerId = "034236B8-3FA8-43DA-9EDA-EFF269A687EC";
name = Regular;
paths = (
{
closed = 1;
nodes = (
"803 -14 OFFCURVE",
"896 105 OFFCURVE",
"896 233 CURVE SMOOTH",
"896 325 OFFCURVE",
"856 399 OFFCURVE",
"794 444 CURVE",
"733 435 LINE",
"790 418 OFFCURVE",
"861 344 OFFCURVE",
"861 244 CURVE SMOOTH",
"861 129 OFFCURVE",
"766 71 OFFCURVE",
"634 71 CURVE SMOOTH",
"519 71 OFFCURVE",
"464 100 OFFCURVE",
"464 155 CURVE SMOOTH",
"464 236 OFFCURVE",
"607 275 OFFCURVE",
"607 387 CURVE SMOOTH",
"607 464 OFFCURVE",
"560 519 OFFCURVE",
"484 519 CURVE SMOOTH",
"413 519 OFFCURVE",
"341 461 OFFCURVE",
"318 377 CURVE",
"316 377 LINE",
"293 461 OFFCURVE",
"228 519 OFFCURVE",
"153 519 CURVE SMOOTH",
"79 519 OFFCURVE",
"30 467 OFFCURVE",
"30 391 CURVE SMOOTH",
"30 346 OFFCURVE",
"49 308 OFFCURVE",
"87 269 CURVE",
"109 286 LINE",
"86 312 OFFCURVE",
"77 329 OFFCURVE",
"77 359 CURVE SMOOTH",
"77 402 OFFCURVE",
"108 442 OFFCURVE",
"164 442 CURVE SMOOTH",
"249 442 OFFCURVE",
"298 358 OFFCURVE",
"312 283 CURVE",
"321 283 LINE",
"334 358 OFFCURVE",
"396 442 OFFCURVE",
"479 442 CURVE SMOOTH",
"533 442 OFFCURVE",
"561 415 OFFCURVE",
"561 371 CURVE SMOOTH",
"561 278 OFFCURVE",
"417 245 OFFCURVE",
"417 141 CURVE SMOOTH",
"417 56 OFFCURVE",
"465 -14 OFFCURVE",
"632 -14 CURVE SMOOTH"
);
},
{
closed = 1;
nodes = (
"1241 -13 OFFCURVE",
"1315 93 OFFCURVE",
"1315 239 CURVE SMOOTH",
"1315 390 OFFCURVE",
"1245 509 OFFCURVE",
"1007 509 CURVE SMOOTH",
"730 509 LINE",
"730 434 LINE",
"1016 434 LINE SMOOTH",
"1210 434 OFFCURVE",
"1280 346 OFFCURVE",
"1280 236 CURVE SMOOTH",
"1280 130 OFFCURVE",
"1218 69 OFFCURVE",
"1128 69 CURVE SMOOTH",
"1055 69 OFFCURVE",
"1011 112 OFFCURVE",
"1010 170 CURVE SMOOTH",
"1009 212 OFFCURVE",
"1031 238 OFFCURVE",
"1043 238 CURVE SMOOTH",
"1048 238 OFFCURVE",
"1050 234 OFFCURVE",
"1049 228 CURVE",
"1050 192 OFFCURVE",
"1071 166 OFFCURVE",
"1104 166 CURVE SMOOTH",
"1139 166 OFFCURVE",
"1165 195 OFFCURVE",
"1164 231 CURVE",
"1165 263 OFFCURVE",
"1140 300 OFFCURVE",
"1085 300 CURVE SMOOTH",
"1013 300 OFFCURVE",
"973 236 OFFCURVE",
"972 158 CURVE SMOOTH",
"973 59 OFFCURVE",
"1033 -13 OFFCURVE",
"1129 -13 CURVE SMOOTH"
);
}
);
width = 1370;
},
{
associatedMasterId = "034236B8-3FA8-43DA-9EDA-EFF269A687EC";
layerId = "5ACBC9B8-96C0-4446-975D-7682D443440F";
name = "Regular Nov 4 15, 19:09";
paths = (
{
closed = 1;
nodes = (
"781 282 OFFCURVE",
"781 185 CURVE",
"781 116 OFFCURVE",
"731 79 OFFCURVE",
"654 79 CURVE SMOOTH",
"507 79 LINE SMOOTH",
"453 79 OFFCURVE",
"425 102 OFFCURVE",
"425 138 CURVE SMOOTH",
"425 217 OFFCURVE",
"549 200 OFFCURVE",
"549 321 CURVE SMOOTH",
"549 399 OFFCURVE",
"498 450 OFFCURVE",
"445 450 CURVE SMOOTH",
"377 450 OFFCURVE",
"322 399 OFFCURVE",
"303 326 CURVE",
"301 326 LINE",
"281 399 OFFCURVE",
"221 450 OFFCURVE",
"161 450 CURVE SMOOTH",
"95 450 OFFCURVE",
"44 395 OFFCURVE",
"44 326 CURVE SMOOTH",
"44 300 OFFCURVE",
"51 277 OFFCURVE",
"70 256 CURVE",
"97 274 LINE",
"91 281 OFFCURVE",
"86 294 OFFCURVE",
"86 306 CURVE SMOOTH",
"86 339 OFFCURVE",
"113 357 OFFCURVE",
"154 357 CURVE SMOOTH",
"225 357 OFFCURVE",
"286 310 OFFCURVE",
"298 244 CURVE",
"306 244 LINE",
"317 310 OFFCURVE",
"376 357 OFFCURVE",
"432 357 CURVE SMOOTH",
"478 357 OFFCURVE",
"508 334 OFFCURVE",
"508 296 CURVE SMOOTH",
"508 232 OFFCURVE",
"384 237 OFFCURVE",
"384 120 CURVE SMOOTH",
"384 46 OFFCURVE",
"430 -14 OFFCURVE",
"487 -14 CURVE SMOOTH",
"654 -14 LINE SMOOTH",
"757 -14 OFFCURVE",
"818 62 OFFCURVE",
"818 167 CURVE",
"818 257 OFFCURVE",
"787 331 OFFCURVE",
"747 378 CURVE",
"945 378 LINE",
"1007 378 OFFCURVE",
"1100 313 OFFCURVE",
"1100 217 CURVE SMOOTH",
"1100 107 OFFCURVE",
"1049 42 OFFCURVE",
"987 42 CURVE SMOOTH",
"950 42 OFFCURVE",
"920 67 OFFCURVE",
"920 99 CURVE",
"920 113 OFFCURVE",
"926 133 OFFCURVE",
"937 133 CURVE SMOOTH",
"939 133 OFFCURVE",
"940 132 OFFCURVE",
"940 127 CURVE SMOOTH",
"940 101 OFFCURVE",
"955 83 OFFCURVE",
"979 83 CURVE SMOOTH",
"1003 83 OFFCURVE",
"1021 103 OFFCURVE",
"1021 128 CURVE SMOOTH",
"1021 151 OFFCURVE",
"1000 177 OFFCURVE",
"962 177 CURVE SMOOTH",
"910 177 OFFCURVE",
"884 131 OFFCURVE",
"884 84 CURVE",
"884 30 OFFCURVE",
"928 -14 OFFCURVE",
"981 -14 CURVE SMOOTH",
"1067 -14 OFFCURVE",
"1136 65 OFFCURVE",
"1136 217 CURVE SMOOTH",
"1136 379 OFFCURVE",
"1037 450 OFFCURVE",
"935 450 CURVE",
"618 450 LINE",
"700 382 OFFCURVE"
);
}
);
width = 1180;
}
);
unicode = 0CE1;
},
{
color = 3;
glyphname = knE;
lastChange = "2015-12-16 17:45:46 +0000";
layers = (
{
background = {
paths = (
{
closed = 1;
nodes = (
"418 71 OFFCURVE",
"352 146 OFFCURVE",
"339 221 CURVE",
"330 221 LINE",
"316 145 OFFCURVE",
"251 71 OFFCURVE",
"178 71 CURVE SMOOTH",
"125 71 OFFCURVE",
"93 114 OFFCURVE",
"93 156 CURVE",
"93 203 OFFCURVE",
"119 227 OFFCURVE",
"156 227 CURVE SMOOTH",
"186 227 OFFCURVE",
"211 217 OFFCURVE",
"222 193 CURVE",
"238 208 LINE",
"225 250 OFFCURVE",
"201 287 OFFCURVE",
"153 287 CURVE SMOOTH",
"93 287 OFFCURVE",
"50 232 OFFCURVE",
"50 143 CURVE",
"50 56 OFFCURVE",
"84 -14 OFFCURVE",
"173 -14 CURVE SMOOTH",
"243 -14 OFFCURVE",
"311 43 OFFCURVE",
"334 126 CURVE",
"336 126 LINE",
"359 43 OFFCURVE",
"427 -14 OFFCURVE",
"497 -14 CURVE",
"608 -14 OFFCURVE",
"670 78 OFFCURVE",
"670 224 CURVE SMOOTH",
"670 426 OFFCURVE",
"476 519 OFFCURVE",
"343 519 CURVE SMOOTH",
"308 519 OFFCURVE",
"288 500 OFFCURVE",
"288 477 CURVE SMOOTH",
"288 460 OFFCURVE",
"297 444 OFFCURVE",
"312 438 CURVE SMOOTH",
"334 430 OFFCURVE",
"354 439 OFFCURVE",
"383 439 CURVE SMOOTH",
"512 439 OFFCURVE",
"629 362 OFFCURVE",
"629 237 CURVE SMOOTH",
"629 168 OFFCURVE",
"589 71 OFFCURVE",
"491 71 CURVE"
);
}
);
};
layerId = "034236B8-3FA8-43DA-9EDA-EFF269A687EC";
name = Regular;
paths = (
{
closed = 1;
nodes = (
"243 -14 OFFCURVE",
"311 43 OFFCURVE",
"334 126 CURVE",
"336 126 LINE",
"359 43 OFFCURVE",
"427 -14 OFFCURVE",
"497 -14 CURVE SMOOTH",
"608 -14 OFFCURVE",
"670 88 OFFCURVE",
"670 211 CURVE SMOOTH",
"670 426 OFFCURVE",
"476 519 OFFCURVE",
"343 519 CURVE SMOOTH",
"308 519 OFFCURVE",
"288 500 OFFCURVE",
"288 477 CURVE SMOOTH",
"288 460 OFFCURVE",
"297 444 OFFCURVE",
"312 438 CURVE SMOOTH",
"334 430 OFFCURVE",
"354 439 OFFCURVE",
"383 439 CURVE SMOOTH",
"522 439 OFFCURVE",
"635 352 OFFCURVE",
"635 227 CURVE SMOOTH",
"635 138 OFFCURVE",
"579 71 OFFCURVE",
"491 71 CURVE SMOOTH",
"418 71 OFFCURVE",
"352 146 OFFCURVE",
"339 221 CURVE",
"330 221 LINE",
"316 145 OFFCURVE",
"251 71 OFFCURVE",
"178 71 CURVE SMOOTH",
"127 71 OFFCURVE",
"92 104 OFFCURVE",
"90 156 CURVE",
"92 201 OFFCURVE",
"121 227 OFFCURVE",
"156 227 CURVE SMOOTH",
"188 227 OFFCURVE",
"213 217 OFFCURVE",
"222 193 CURVE",
"238 208 LINE",
"227 250 OFFCURVE",
"203 287 OFFCURVE",
"153 287 CURVE SMOOTH",
"95 287 OFFCURVE",
"52 232 OFFCURVE",
"50 143 CURVE",
"52 56 OFFCURVE",
"101 -14 OFFCURVE",
"173 -14 CURVE SMOOTH"
);
}
);
width = 725;
}
);
unicode = 0C8E;
},
{
color = 3;
glyphname = knEE;
lastChange = "2015-12-16 18:06:02 +0000";
layers = (
{
background = {
paths = (
{
closed = 1;
nodes = (
"608 -14 OFFCURVE",
"670 78 OFFCURVE",
"670 224 CURVE",
"670 391 OFFCURVE",
"547 532 OFFCURVE",
"373 532 CURVE",
"349 480 OFFCURVE",
"318 457 OFFCURVE",
"273 457 CURVE SMOOTH",
"217 457 OFFCURVE",
"174 506 OFFCURVE",
"190 581 CURVE",
"169 594 LINE",
"104 500 OFFCURVE",
"152 378 OFFCURVE",
"265 378 CURVE SMOOTH",
"330 378 OFFCURVE",
"369 420 OFFCURVE",
"394 476 CURVE",
"522 459 OFFCURVE",
"629 370 OFFCURVE",
"629 237 CURVE",
"629 151 OFFCURVE",
"578 71 OFFCURVE",
"490 71 CURVE",
"417 71 OFFCURVE",
"352 146 OFFCURVE",
"339 221 CURVE",
"330 221 LINE",
"316 145 OFFCURVE",
"250 71 OFFCURVE",
"177 71 CURVE SMOOTH",
"124 71 OFFCURVE",
"93 114 OFFCURVE",
"93 156 CURVE",
"93 203 OFFCURVE",
"120 227 OFFCURVE",
"157 227 CURVE SMOOTH",
"187 227 OFFCURVE",
"212 217 OFFCURVE",
"223 193 CURVE",
"239 208 LINE",
"226 250 OFFCURVE",
"202 287 OFFCURVE",
"154 287 CURVE SMOOTH",
"93 287 OFFCURVE",
"50 232 OFFCURVE",
"50 145 CURVE",
"50 56 OFFCURVE",
"84 -14 OFFCURVE",
"174 -14 CURVE SMOOTH",
"242 -14 OFFCURVE",
"311 43 OFFCURVE",
"334 126 CURVE",
"336 126 LINE",
"359 43 OFFCURVE",
"426 -14 OFFCURVE",
"498 -14 CURVE"
);
}
);
};
layerId = "034236B8-3FA8-43DA-9EDA-EFF269A687EC";
name = Regular;
paths = (
{
closed = 1;
nodes = (
"243 -14 OFFCURVE",
"311 43 OFFCURVE",
"334 126 CURVE",
"336 126 LINE",
"359 43 OFFCURVE",
"427 -14 OFFCURVE",
"497 -14 CURVE SMOOTH",
"608 -14 OFFCURVE",
"670 88 OFFCURVE",
"670 211 CURVE SMOOTH",
"670 378 OFFCURVE",
"547 522 OFFCURVE",
"373 532 CURVE",
"349 480 OFFCURVE",
"318 457 OFFCURVE",
"273 457 CURVE SMOOTH",
"225 457 OFFCURVE",
"186 492 OFFCURVE",
"186 547 CURVE SMOOTH",
"186 557 OFFCURVE",
"188 570 OFFCURVE",
"190 581 CURVE",
"169 592 LINE",
"160 566 OFFCURVE",
"153 537 OFFCURVE",
"153 510 CURVE SMOOTH",
"153 441 OFFCURVE",
"195 384 OFFCURVE",
"267 384 CURVE SMOOTH",
"320 384 OFFCURVE",
"356 421 OFFCURVE",
"383 476 CURVE",
"511 459 OFFCURVE",
"635 360 OFFCURVE",
"635 227 CURVE SMOOTH",
"635 138 OFFCURVE",
"579 71 OFFCURVE",
"491 71 CURVE SMOOTH",
"418 71 OFFCURVE",
"352 146 OFFCURVE",
"339 221 CURVE",
"330 221 LINE",
"316 145 OFFCURVE",
"251 71 OFFCURVE",
"178 71 CURVE SMOOTH",
"127 71 OFFCURVE",
"92 104 OFFCURVE",
"90 156 CURVE",
"92 201 OFFCURVE",
"121 227 OFFCURVE",
"156 227 CURVE SMOOTH",
"188 227 OFFCURVE",
"213 217 OFFCURVE",
"222 193 CURVE",
"238 208 LINE",
"227 250 OFFCURVE",
"203 287 OFFCURVE",
"153 287 CURVE SMOOTH",
"95 287 OFFCURVE",
"52 232 OFFCURVE",
"50 143 CURVE",
"52 56 OFFCURVE",
"101 -14 OFFCURVE",
"173 -14 CURVE SMOOTH"
);
}
);
width = 725;
}
);
unicode = 0C8F;
},
{
color = 3;
glyphname = knAI;
lastChange = "2015-12-16 18:06:03 +0000";
layers = (
{
background = {
paths = (
{
closed = 1;
nodes = (
"445 519 OFFCURVE",
"378 461 OFFCURVE",
"355 377 CURVE",
"353 377 LINE",
"330 461 OFFCURVE",
"260 519 OFFCURVE",
"191 519 CURVE SMOOTH",
"103 519 OFFCURVE",
"41 431 OFFCURVE",
"41 350 CURVE",
"72 330 LINE",
"89 377 OFFCURVE",
"115 444 OFFCURVE",
"195 444 CURVE SMOOTH",
"280 444 OFFCURVE",
"336 358 OFFCURVE",
"350 283 CURVE",
"359 283 LINE",
"371 357 OFFCURVE",
"427 444 OFFCURVE",
"510 444 CURVE SMOOTH",
"600 444 OFFCURVE",
"647 370 OFFCURVE",
"647 254 CURVE SMOOTH",
"647 151 OFFCURVE",
"596 71 OFFCURVE",
"510 71 CURVE SMOOTH",
"436 71 OFFCURVE",
"371 146 OFFCURVE",
"358 221 CURVE",
"349 221 LINE",
"335 145 OFFCURVE",
"270 71 OFFCURVE",
"197 71 CURVE SMOOTH",
"144 71 OFFCURVE",
"112 114 OFFCURVE",
"112 156 CURVE SMOOTH",
"112 203 OFFCURVE",
"139 227 OFFCURVE",
"175 227 CURVE SMOOTH",
"206 227 OFFCURVE",
"231 217 OFFCURVE",
"242 193 CURVE",
"258 208 LINE",
"245 250 OFFCURVE",
"221 287 OFFCURVE",
"173 287 CURVE SMOOTH",
"112 287 OFFCURVE",
"69 232 OFFCURVE",
"69 145 CURVE SMOOTH",
"69 56 OFFCURVE",
"103 -14 OFFCURVE",
"194 -14 CURVE SMOOTH",
"261 -14 OFFCURVE",
"330 43 OFFCURVE",
"353 126 CURVE",
"355 126 LINE",
"378 43 OFFCURVE",
"446 -14 OFFCURVE",
"514 -14 CURVE SMOOTH",
"624 -14 OFFCURVE",
"688 77 OFFCURVE",
"688 254 CURVE SMOOTH",
"688 391 OFFCURVE",
"628 519 OFFCURVE",
"514 519 CURVE SMOOTH"
);
}
);
};
guideLines = (
{
position = "{38, 368}";
}
);
layerId = "034236B8-3FA8-43DA-9EDA-EFF269A687EC";
name = Regular;
paths = (
{
closed = 1;
nodes = (
"263 -14 OFFCURVE",
"331 43 OFFCURVE",
"354 126 CURVE",
"356 126 LINE",
"379 43 OFFCURVE",
"447 -14 OFFCURVE",
"517 -14 CURVE SMOOTH",
"628 -14 OFFCURVE",
"690 88 OFFCURVE",
"690 241 CURVE SMOOTH",
"690 388 OFFCURVE",
"628 519 OFFCURVE",
"514 519 CURVE SMOOTH",
"445 519 OFFCURVE",
"378 461 OFFCURVE",
"355 377 CURVE",
"353 377 LINE",
"330 461 OFFCURVE",
"260 519 OFFCURVE",
"191 519 CURVE SMOOTH",
"103 519 OFFCURVE",
"50 428 OFFCURVE",
"50 343 CURVE",
"73 332 LINE",
"88 399 OFFCURVE",
"125 444 OFFCURVE",
"195 444 CURVE SMOOTH",
"280 444 OFFCURVE",
"336 358 OFFCURVE",
"350 283 CURVE",
"359 283 LINE",
"371 357 OFFCURVE",
"427 444 OFFCURVE",
"510 444 CURVE SMOOTH",
"600 444 OFFCURVE",
"655 363 OFFCURVE",
"655 247 CURVE SMOOTH",
"655 138 OFFCURVE",
"599 71 OFFCURVE",
"511 71 CURVE SMOOTH",
"438 71 OFFCURVE",
"372 146 OFFCURVE",
"359 221 CURVE",
"350 221 LINE",
"336 145 OFFCURVE",
"271 71 OFFCURVE",
"198 71 CURVE SMOOTH",
"147 71 OFFCURVE",
"112 104 OFFCURVE",
"110 156 CURVE",
"112 201 OFFCURVE",
"141 227 OFFCURVE",
"176 227 CURVE SMOOTH",
"208 227 OFFCURVE",
"233 217 OFFCURVE",
"242 193 CURVE",
"258 208 LINE",
"247 250 OFFCURVE",
"223 287 OFFCURVE",
"173 287 CURVE SMOOTH",
"115 287 OFFCURVE",
"72 232 OFFCURVE",
"70 143 CURVE",
"72 56 OFFCURVE",
"121 -14 OFFCURVE",
"193 -14 CURVE SMOOTH"
);
}
);
width = 745;
}
);
unicode = 0C90;
},
{
color = 3;
glyphname = knO;
lastChange = "2015-12-16 18:04:28 +0000";
layers = (
{
background = {
paths = (
{
closed = 1;
nodes = (
"660 185 OFFCURVE",
"633 220 OFFCURVE",
"602 250 CURVE",
"576 233 LINE",
"598 209 OFFCURVE",
"610 184 OFFCURVE",
"610 154 CURVE",
"610 116 OFFCURVE",
"587 71 OFFCURVE",
"529 71 CURVE SMOOTH",
"456 71 OFFCURVE",
"390 146 OFFCURVE",
"377 221 CURVE",
"368 221 LINE",
"354 145 OFFCURVE",
"289 71 OFFCURVE",
"216 71 CURVE SMOOTH",
"163 71 OFFCURVE",
"136 114 OFFCURVE",
"136 156 CURVE",
"136 187 OFFCURVE",
"166 219 OFFCURVE",
"198 253 CURVE SMOOTH",
"238 294 OFFCURVE",
"283 340 OFFCURVE",
"283 399 CURVE SMOOTH",
"283 473 OFFCURVE",
"225 519 OFFCURVE",
"159 519 CURVE SMOOTH",
"101 519 OFFCURVE",
"42 485 OFFCURVE",
"42 416 CURVE SMOOTH",
"42 384 OFFCURVE",
"53 352 OFFCURVE",
"74 330 CURVE",
"105 350 LINE",
"97 365 OFFCURVE",
"95 377 OFFCURVE",
"95 388 CURVE SMOOTH",
"95 425 OFFCURVE",
"120 452 OFFCURVE",
"159 452 CURVE SMOOTH",
"196 452 OFFCURVE",
"230 427 OFFCURVE",
"230 385 CURVE SMOOTH",
"230 344 OFFCURVE",
"199 311 OFFCURVE",
"167 278 CURVE SMOOTH",
"128 238 OFFCURVE",
"85 193 OFFCURVE",
"85 125 CURVE",
"85 38 OFFCURVE",
"146 -14 OFFCURVE",
"213 -14 CURVE SMOOTH",
"281 -14 OFFCURVE",
"349 43 OFFCURVE",
"372 126 CURVE",
"374 126 LINE",
"397 43 OFFCURVE",
"465 -14 OFFCURVE",
"533 -14 CURVE SMOOTH",
"599 -14 OFFCURVE",
"660 38 OFFCURVE",
"660 125 CURVE"
);
}
);
};
layerId = "034236B8-3FA8-43DA-9EDA-EFF269A687EC";
name = Regular;
paths = (
{
closed = 1;
nodes = (
"261 -14 OFFCURVE",
"329 43 OFFCURVE",
"352 126 CURVE",
"354 126 LINE",
"377 43 OFFCURVE",
"445 -14 OFFCURVE",
"513 -14 CURVE SMOOTH",
"579 -14 OFFCURVE",
"640 38 OFFCURVE",
"640 125 CURVE SMOOTH",
"640 172 OFFCURVE",
"611 222 OFFCURVE",
"577 251 CURVE",
"556 236 LINE",
"580 212 OFFCURVE",
"592 183 OFFCURVE",
"592 154 CURVE SMOOTH",
"592 116 OFFCURVE",
"567 71 OFFCURVE",
"509 71 CURVE SMOOTH",
"436 71 OFFCURVE",
"370 146 OFFCURVE",
"357 221 CURVE",
"348 221 LINE",
"334 145 OFFCURVE",
"269 71 OFFCURVE",
"196 71 CURVE SMOOTH",
"143 71 OFFCURVE",
"116 114 OFFCURVE",
"116 156 CURVE SMOOTH",
"116 187 OFFCURVE",
"140 223 OFFCURVE",
"174 257 CURVE SMOOTH",
"215 298 OFFCURVE",
"263 349 OFFCURVE",
"263 399 CURVE SMOOTH",
"263 465 OFFCURVE",
"215 519 OFFCURVE",
"139 519 CURVE SMOOTH",
"64 519 OFFCURVE",
"25 465 OFFCURVE",
"25 413 CURVE SMOOTH",
"25 381 OFFCURVE",
"33 352 OFFCURVE",
"54 330 CURVE",
"74 345 LINE",
"67 360 OFFCURVE",
"64 372 OFFCURVE",
"64 383 CURVE SMOOTH",
"64 421 OFFCURVE",
"87 452 OFFCURVE",
"139 452 CURVE SMOOTH",
"176 452 OFFCURVE",
"210 427 OFFCURVE",
"210 385 CURVE SMOOTH",
"210 344 OFFCURVE",
"179 311 OFFCURVE",
"147 278 CURVE SMOOTH",
"108 238 OFFCURVE",
"65 193 OFFCURVE",
"65 125 CURVE SMOOTH",
"65 38 OFFCURVE",
"126 -14 OFFCURVE",
"193 -14 CURVE SMOOTH"
);
}
);
width = 680;
}
);
unicode = 0C92;
},
{
color = 3;
glyphname = knOO;
lastChange = "2015-12-16 18:04:29 +0000";
layers = (
{
background = {
paths = (
{
closed = 1;
nodes = (
"556 236 LINE",
"580 212 OFFCURVE",
"592 183 OFFCURVE",
"592 154 CURVE SMOOTH",
"592 116 OFFCURVE",
"567 71 OFFCURVE",
"509 71 CURVE SMOOTH",
"436 71 OFFCURVE",
"370 146 OFFCURVE",
"357 221 CURVE",
"348 221 LINE",
"334 145 OFFCURVE",
"269 71 OFFCURVE",
"196 71 CURVE SMOOTH",
"143 71 OFFCURVE",
"116 114 OFFCURVE",
"116 156 CURVE SMOOTH",
"116 187 OFFCURVE",
"140 223 OFFCURVE",
"174 257 CURVE SMOOTH",
"215 298 OFFCURVE",
"263 349 OFFCURVE",
"263 399 CURVE SMOOTH",
"263 465 OFFCURVE",
"215 519 OFFCURVE",
"139 519 CURVE SMOOTH",
"64 519 OFFCURVE",
"25 465 OFFCURVE",
"25 413 CURVE SMOOTH",
"25 381 OFFCURVE",
"33 352 OFFCURVE",
"54 330 CURVE",
"74 345 LINE",
"67 360 OFFCURVE",
"64 372 OFFCURVE",
"64 383 CURVE SMOOTH",
"64 421 OFFCURVE",
"87 452 OFFCURVE",
"139 452 CURVE SMOOTH",
"176 452 OFFCURVE",
"210 427 OFFCURVE",
"210 385 CURVE SMOOTH",
"210 344 OFFCURVE",
"179 311 OFFCURVE",
"147 278 CURVE SMOOTH",
"108 238 OFFCURVE",
"65 193 OFFCURVE",
"65 125 CURVE SMOOTH",
"65 38 OFFCURVE",
"126 -14 OFFCURVE",
"193 -14 CURVE SMOOTH",
"261 -14 OFFCURVE",
"329 43 OFFCURVE",
"352 126 CURVE",
"354 126 LINE",
"377 43 OFFCURVE",
"445 -14 OFFCURVE",
"513 -14 CURVE SMOOTH",
"579 -14 OFFCURVE",
"640 38 OFFCURVE",
"640 125 CURVE SMOOTH",
"640 172 OFFCURVE",
"611 222 OFFCURVE",
"577 251 CURVE"
);
}
);
};
layerId = "034236B8-3FA8-43DA-9EDA-EFF269A687EC";
name = Regular;
paths = (
{
closed = 1;
nodes = (
"261 -14 OFFCURVE",
"329 43 OFFCURVE",
"352 126 CURVE",
"354 126 LINE",
"377 43 OFFCURVE",
"445 -14 OFFCURVE",
"513 -14 CURVE SMOOTH",
"579 -14 OFFCURVE",
"640 38 OFFCURVE",
"640 125 CURVE SMOOTH",
"640 172 OFFCURVE",
"611 222 OFFCURVE",
"577 251 CURVE",
"556 236 LINE",
"580 212 OFFCURVE",
"592 183 OFFCURVE",
"592 154 CURVE SMOOTH",
"592 116 OFFCURVE",
"567 71 OFFCURVE",
"509 71 CURVE SMOOTH",
"436 71 OFFCURVE",
"370 146 OFFCURVE",
"357 221 CURVE",
"348 221 LINE",
"334 145 OFFCURVE",
"269 71 OFFCURVE",
"196 71 CURVE SMOOTH",
"143 71 OFFCURVE",
"116 114 OFFCURVE",
"116 156 CURVE SMOOTH",
"116 187 OFFCURVE",
"140 223 OFFCURVE",
"174 257 CURVE SMOOTH",
"215 298 OFFCURVE",
"263 349 OFFCURVE",
"263 399 CURVE SMOOTH",
"263 465 OFFCURVE",
"215 519 OFFCURVE",
"139 519 CURVE SMOOTH",
"64 519 OFFCURVE",
"25 465 OFFCURVE",
"25 413 CURVE SMOOTH",
"25 381 OFFCURVE",
"33 352 OFFCURVE",
"54 330 CURVE",
"74 345 LINE",
"67 360 OFFCURVE",
"64 372 OFFCURVE",
"64 383 CURVE SMOOTH",
"64 421 OFFCURVE",
"87 452 OFFCURVE",
"139 452 CURVE SMOOTH",
"176 452 OFFCURVE",
"210 427 OFFCURVE",
"210 385 CURVE SMOOTH",
"210 344 OFFCURVE",
"179 311 OFFCURVE",
"147 278 CURVE SMOOTH",
"108 238 OFFCURVE",
"65 193 OFFCURVE",
"65 125 CURVE SMOOTH",
"65 38 OFFCURVE",
"126 -14 OFFCURVE",
"193 -14 CURVE SMOOTH"
);
},
{
closed = 1;
nodes = (
"185 508 LINE",
"143 537 OFFCURVE",
"125 564 OFFCURVE",
"125 601 CURVE SMOOTH",
"125 646 OFFCURVE",
"148 677 OFFCURVE",
"200 689 CURVE",
"191 711 LINE",
"107 706 OFFCURVE",
"61 660 OFFCURVE",
"61 606 CURVE SMOOTH",
"61 551 OFFCURVE",
"110 511 OFFCURVE",
"164 492 CURVE"
);
}
);
width = 680;
}
);
unicode = 0C93;
},
{
color = 3;
glyphname = knAU;
lastChange = "2015-12-16 18:04:30 +0000";
layers = (
{
layerId = "034236B8-3FA8-43DA-9EDA-EFF269A687EC";
name = Regular;
paths = (
{
closed = 1;
nodes = (
"261 -14 OFFCURVE",
"329 43 OFFCURVE",
"352 126 CURVE",
"354 126 LINE",
"377 43 OFFCURVE",
"445 -14 OFFCURVE",
"513 -14 CURVE SMOOTH",
"579 -14 OFFCURVE",
"640 38 OFFCURVE",
"640 125 CURVE SMOOTH",
"640 172 OFFCURVE",
"611 222 OFFCURVE",
"577 251 CURVE",
"556 236 LINE",
"580 212 OFFCURVE",
"592 183 OFFCURVE",
"592 154 CURVE SMOOTH",
"592 116 OFFCURVE",
"567 71 OFFCURVE",
"509 71 CURVE SMOOTH",
"436 71 OFFCURVE",
"370 146 OFFCURVE",
"357 221 CURVE",
"348 221 LINE",
"334 145 OFFCURVE",
"269 71 OFFCURVE",
"196 71 CURVE SMOOTH",
"143 71 OFFCURVE",
"116 114 OFFCURVE",
"116 156 CURVE SMOOTH",
"116 187 OFFCURVE",
"140 223 OFFCURVE",
"174 257 CURVE SMOOTH",
"215 298 OFFCURVE",
"263 349 OFFCURVE",
"263 399 CURVE SMOOTH",
"263 465 OFFCURVE",
"215 519 OFFCURVE",
"139 519 CURVE SMOOTH",
"64 519 OFFCURVE",
"25 465 OFFCURVE",
"25 413 CURVE SMOOTH",
"25 381 OFFCURVE",
"33 352 OFFCURVE",
"54 330 CURVE",
"74 345 LINE",
"67 360 OFFCURVE",
"64 372 OFFCURVE",
"64 383 CURVE SMOOTH",
"64 421 OFFCURVE",
"87 452 OFFCURVE",
"139 452 CURVE SMOOTH",
"176 452 OFFCURVE",
"210 427 OFFCURVE",
"210 385 CURVE SMOOTH",
"210 344 OFFCURVE",
"179 311 OFFCURVE",
"147 278 CURVE SMOOTH",
"108 238 OFFCURVE",
"65 193 OFFCURVE",
"65 125 CURVE SMOOTH",
"65 38 OFFCURVE",
"126 -14 OFFCURVE",
"193 -14 CURVE SMOOTH"
);
},
{
closed = 1;
nodes = (
"565 287 OFFCURVE",
"627 364 OFFCURVE",
"627 467 CURVE SMOOTH",
"627 602 OFFCURVE",
"535 698 OFFCURVE",
"386 698 CURVE SMOOTH",
"36 698 LINE",
"36 626 LINE",
"263 626 LINE",
"264 623 OFFCURVE",
"265 618 OFFCURVE",
"265 614 CURVE SMOOTH",
"265 599 OFFCURVE",
"257 578 OFFCURVE",
"229 578 CURVE SMOOTH",
"36 578 LINE",
"36 508 LINE",
"190 508 LINE",
"211 508 LINE SMOOTH",
"265 508 OFFCURVE",
"305 541 OFFCURVE",
"305 586 CURVE SMOOTH",
"305 599 OFFCURVE",
"302 613 OFFCURVE",
"295 626 CURVE",
"386 626 LINE SMOOTH",
"513 626 OFFCURVE",
"593 561 OFFCURVE",
"593 467 CURVE SMOOTH",
"593 399 OFFCURVE",
"545 351 OFFCURVE",
"479 351 CURVE SMOOTH",
"422 351 OFFCURVE",
"385 386 OFFCURVE",
"385 433 CURVE SMOOTH",
"385 470 OFFCURVE",
"405 490 OFFCURVE",
"423 490 CURVE SMOOTH",
"427 490 OFFCURVE",
"428 489 OFFCURVE",
"428 483 CURVE SMOOTH",
"428 453 OFFCURVE",
"446 432 OFFCURVE",
"473 432 CURVE SMOOTH",
"501 432 OFFCURVE",
"522 455 OFFCURVE",
"522 484 CURVE SMOOTH",
"522 511 OFFCURVE",
"497 541 OFFCURVE",
"454 541 CURVE SMOOTH",
"396 541 OFFCURVE",
"349 495 OFFCURVE",
"349 418 CURVE SMOOTH",
"349 348 OFFCURVE",
"403 287 OFFCURVE",
"479 287 CURVE SMOOTH"
);
}
);
width = 715;
}
);
unicode = 0C94;
},
{
color = 3;
glyphname = knmAA;
lastChange = "2015-12-16 17:45:46 +0000";
layers = (
{
background = {
paths = (
{
closed = 1;
nodes = (
"385 390 OFFCURVE",
"315 509 OFFCURVE",
"77 509 CURVE SMOOTH",
"-200 509 LINE",
"-200 434 LINE",
"86 434 LINE SMOOTH",
"280 434 OFFCURVE",
"350 346 OFFCURVE",
"350 236 CURVE SMOOTH",
"350 130 OFFCURVE",
"288 69 OFFCURVE",
"198 69 CURVE SMOOTH",
"125 69 OFFCURVE",
"81 112 OFFCURVE",
"80 170 CURVE SMOOTH",
"79 212 OFFCURVE",
"101 238 OFFCURVE",
"113 238 CURVE SMOOTH",
"118 238 OFFCURVE",
"120 234 OFFCURVE",
"119 228 CURVE",
"120 192 OFFCURVE",
"141 166 OFFCURVE",
"174 166 CURVE SMOOTH",
"209 166 OFFCURVE",
"235 195 OFFCURVE",
"234 231 CURVE",
"235 263 OFFCURVE",
"210 300 OFFCURVE",
"155 300 CURVE SMOOTH",
"83 300 OFFCURVE",
"43 236 OFFCURVE",
"42 158 CURVE SMOOTH",
"43 59 OFFCURVE",
"103 -13 OFFCURVE",
"199 -13 CURVE SMOOTH",
"311 -13 OFFCURVE",
"385 93 OFFCURVE",
"385 239 CURVE SMOOTH"
);
}
);
};
layerId = "034236B8-3FA8-43DA-9EDA-EFF269A687EC";
name = Regular;
paths = (
{
closed = 1;
nodes = (
"311 -13 OFFCURVE",
"385 93 OFFCURVE",
"385 239 CURVE SMOOTH",
"385 390 OFFCURVE",
"315 509 OFFCURVE",
"77 509 CURVE SMOOTH",
"-200 509 LINE",
"-200 434 LINE",
"86 434 LINE SMOOTH",
"280 434 OFFCURVE",
"350 346 OFFCURVE",
"350 236 CURVE SMOOTH",
"350 130 OFFCURVE",
"288 69 OFFCURVE",
"198 69 CURVE SMOOTH",
"125 69 OFFCURVE",
"81 112 OFFCURVE",
"80 170 CURVE SMOOTH",
"79 212 OFFCURVE",
"101 238 OFFCURVE",
"113 238 CURVE SMOOTH",
"118 238 OFFCURVE",
"120 234 OFFCURVE",
"119 228 CURVE",
"120 192 OFFCURVE",
"141 166 OFFCURVE",
"174 166 CURVE SMOOTH",
"209 166 OFFCURVE",
"235 195 OFFCURVE",
"234 231 CURVE",
"235 263 OFFCURVE",
"210 300 OFFCURVE",
"155 300 CURVE SMOOTH",
"83 300 OFFCURVE",
"43 236 OFFCURVE",
"42 158 CURVE SMOOTH",
"43 59 OFFCURVE",
"103 -13 OFFCURVE",
"199 -13 CURVE SMOOTH"
);
}
);
width = 445;
}
);
unicode = 0CBE;
},
{
color = 3;
glyphname = knmI;
lastChange = "2015-12-18 16:21:37 +0000";
layers = (
{
layerId = "034236B8-3FA8-43DA-9EDA-EFF269A687EC";
name = Regular;
paths = (
{
closed = 1;
nodes = (
"181 334 OFFCURVE",
"233 400 OFFCURVE",
"233 494 CURVE SMOOTH",
"233 581 OFFCURVE",
"172 674 OFFCURVE",
"88 674 CURVE SMOOTH",
"29 674 OFFCURVE",
"-7 629 OFFCURVE",
"-7 560 CURVE SMOOTH",
"-7 499 OFFCURVE",
"33 450 OFFCURVE",
"89 451 CURVE SMOOTH",
"147 452 OFFCURVE",
"177 505 OFFCURVE",
"177 563 CURVE SMOOTH",
"177 594 OFFCURVE",
"170 612 OFFCURVE",
"159 627 CURVE",
"131 631 LINE",
"145 617 OFFCURVE",
"149 601 OFFCURVE",
"149 578 CURVE SMOOTH",
"149 548 OFFCURVE",
"130 511 OFFCURVE",
"83 511 CURVE SMOOTH",
"47 511 OFFCURVE",
"26 530 OFFCURVE",
"26 560 CURVE SMOOTH",
"26 583 OFFCURVE",
"46 608 OFFCURVE",
"90 608 CURVE SMOOTH",
"156 608 OFFCURVE",
"201 549 OFFCURVE",
"201 498 CURVE SMOOTH",
"201 431 OFFCURVE",
"151 389 OFFCURVE",
"30 375 CURVE",
"59 314 LINE"
);
}
);
width = 243;
}
);
unicode = 0CBF;
},
{
color = 3;
glyphname = knmII;
lastChange = "2015-12-16 18:06:15 +0000";
layers = (
{
layerId = "034236B8-3FA8-43DA-9EDA-EFF269A687EC";
name = Regular;
paths = (
{
closed = 1;
nodes = (
"568 -13 LINE",
"464 72 OFFCURVE",
"405 164 OFFCURVE",
"405 243 CURVE SMOOTH",
"405 349 OFFCURVE",
"449 411 OFFCURVE",
"519 411 CURVE SMOOTH",
"568 411 OFFCURVE",
"590 389 OFFCURVE",
"590 353 CURVE SMOOTH",
"590 320 OFFCURVE",
"567 296 OFFCURVE",
"526 296 CURVE SMOOTH",
"493 296 OFFCURVE",
"466 319 OFFCURVE",
"466 360 CURVE SMOOTH",
"466 394 OFFCURVE",
"469 411 OFFCURVE",
"485 441 CURVE",
"444 419 LINE",
"438 391 OFFCURVE",
"436 374 OFFCURVE",
"436 338 CURVE SMOOTH",
"436 280 OFFCURVE",
"472 234 OFFCURVE",
"526 234 CURVE SMOOTH",
"577 234 OFFCURVE",
"620 279 OFFCURVE",
"620 352 CURVE SMOOTH",
"620 425 OFFCURVE",
"585 484 OFFCURVE",
"515 484 CURVE SMOOTH",
"424 484 OFFCURVE",
"370 373 OFFCURVE",
"370 247 CURVE SMOOTH",
"370 150 OFFCURVE",
"403 61 OFFCURVE",
"465 -13 CURVE"
);
},
{
closed = 1;
nodes = (
"181 334 OFFCURVE",
"233 400 OFFCURVE",
"233 494 CURVE SMOOTH",
"233 581 OFFCURVE",
"172 674 OFFCURVE",
"88 674 CURVE SMOOTH",
"29 674 OFFCURVE",
"-7 629 OFFCURVE",
"-7 560 CURVE SMOOTH",
"-7 499 OFFCURVE",
"33 450 OFFCURVE",
"89 451 CURVE SMOOTH",
"147 452 OFFCURVE",
"177 505 OFFCURVE",
"177 563 CURVE SMOOTH",
"177 594 OFFCURVE",
"170 612 OFFCURVE",
"159 627 CURVE",
"131 631 LINE",
"145 617 OFFCURVE",
"149 601 OFFCURVE",
"149 578 CURVE SMOOTH",
"149 548 OFFCURVE",
"130 511 OFFCURVE",
"83 511 CURVE SMOOTH",
"47 511 OFFCURVE",
"26 530 OFFCURVE",
"26 560 CURVE SMOOTH",
"26 583 OFFCURVE",
"46 608 OFFCURVE",
"90 608 CURVE SMOOTH",
"156 608 OFFCURVE",
"201 549 OFFCURVE",
"201 498 CURVE SMOOTH",
"201 431 OFFCURVE",
"151 389 OFFCURVE",
"30 375 CURVE",
"59 314 LINE"
);
}
);
width = 535;
},
{
associatedMasterId = "034236B8-3FA8-43DA-9EDA-EFF269A687EC";
layerId = "22EAF33D-C426-4B70-83E5-F92CACEADDA1";
name = "Regular Nov 7 15, 13:02";
paths = (
{
closed = 1;
nodes = (
"270 341 OFFCURVE",
"256 314 OFFCURVE",
"256 283 CURVE SMOOTH",
"256 232 OFFCURVE",
"280 199 OFFCURVE",
"322 199 CURVE SMOOTH",
"354 199 OFFCURVE",
"403 234 OFFCURVE",
"403 300 CURVE SMOOTH",
"403 366 OFFCURVE",
"371 414 OFFCURVE",
"315 414 CURVE SMOOTH",
"236 414 OFFCURVE",
"192 316 OFFCURVE",
"192 216 CURVE SMOOTH",
"192 131 OFFCURVE",
"225 52 OFFCURVE",
"285 -12 CURVE",
"357 -12 LINE",
"272 62 OFFCURVE",
"223 140 OFFCURVE",
"223 209 CURVE",
"223 301 OFFCURVE",
"260 355 OFFCURVE",
"321 355 CURVE SMOOTH",
"354 355 OFFCURVE",
"379 336 OFFCURVE",
"379 302 CURVE SMOOTH",
"379 276 OFFCURVE",
"357 250 OFFCURVE",
"323 250 CURVE SMOOTH",
"293 250 OFFCURVE",
"277 273 OFFCURVE",
"277 302 CURVE SMOOTH",
"277 331 OFFCURVE",
"289 355 OFFCURVE",
"312 381 CURVE",
"279 365 LINE"
);
},
{
closed = 1;
nodes = (
"-32 381 OFFCURVE",
"68 404 OFFCURVE",
"68 492 CURVE",
"68 570 OFFCURVE",
"-5 613 OFFCURVE",
"-52 613 CURVE SMOOTH",
"-90 613 OFFCURVE",
"-108 590 OFFCURVE",
"-108 562 CURVE SMOOTH",
"-108 530 OFFCURVE",
"-81 501 OFFCURVE",
"-46 501 CURVE SMOOTH",
"-7 501 OFFCURVE",
"0 525 OFFCURVE",
"0 556 CURVE SMOOTH",
"0 590 OFFCURVE",
"-21 614 OFFCURVE",
"-47 636 CURVE",
"1 633 LINE",
"24 613 OFFCURVE",
"40 589 OFFCURVE",
"40 549 CURVE",
"40 509 OFFCURVE",
"21 471 OFFCURVE",
"-30 471 CURVE SMOOTH",
"-86 471 OFFCURVE",
"-133 519 OFFCURVE",
"-133 579 CURVE SMOOTH",
"-133 629 OFFCURVE",
"-102 665 OFFCURVE",
"-49 665 CURVE SMOOTH",
"31 665 OFFCURVE",
"91 572 OFFCURVE",
"91 493 CURVE SMOOTH",
"91 406 OFFCURVE",
"51 342 OFFCURVE",
"-74 335 CURVE",
"-98 381 LINE"
);
}
);
width = 466;
}
);
unicode = 0CC0;
},
{
color = 3;
glyphname = knmU;
lastChange = "2015-12-16 18:04:36 +0000";
layers = (
{
background = {
paths = (
{
closed = 1;
nodes = (
"207 -14 OFFCURVE",
"287 115 OFFCURVE",
"287 242 CURVE SMOOTH",
"287 415 OFFCURVE",
"201 513 OFFCURVE",
"130 513 CURVE SMOOTH",
"99 513 OFFCURVE",
"82 493 OFFCURVE",
"82 470 CURVE SMOOTH",
"82 451 OFFCURVE",
"94 435 OFFCURVE",
"110 430 CURVE SMOOTH",
"133 423 OFFCURVE",
"154 428 OFFCURVE",
"178 420 CURVE SMOOTH",
"215 407 OFFCURVE",
"246 344 OFFCURVE",
"246 255 CURVE SMOOTH",
"246 159 OFFCURVE",
"176 71 OFFCURVE",
"94 71 CURVE SMOOTH",
"15 71 OFFCURVE",
"-50 132 OFFCURVE",
"-85 235 CURVE",
"-105 216 LINE",
"-105 89 OFFCURVE",
"-2 -14 OFFCURVE",
"94 -14 CURVE SMOOTH"
);
}
);
};
layerId = "034236B8-3FA8-43DA-9EDA-EFF269A687EC";
name = Regular;
paths = (
{
closed = 1;
nodes = (
"207 -14 OFFCURVE",
"287 95 OFFCURVE",
"287 242 CURVE SMOOTH",
"287 415 OFFCURVE",
"191 513 OFFCURVE",
"120 513 CURVE SMOOTH",
"89 513 OFFCURVE",
"72 493 OFFCURVE",
"72 470 CURVE SMOOTH",
"72 451 OFFCURVE",
"84 435 OFFCURVE",
"100 430 CURVE SMOOTH",
"123 423 OFFCURVE",
"144 428 OFFCURVE",
"168 420 CURVE SMOOTH",
"205 407 OFFCURVE",
"252 344 OFFCURVE",
"252 255 CURVE SMOOTH",
"252 137 OFFCURVE",
"182 71 OFFCURVE",
"94 71 CURVE SMOOTH",
"15 71 OFFCURVE",
"-50 132 OFFCURVE",
"-85 235 CURVE",
"-105 216 LINE",
"-87 89 OFFCURVE",
"-2 -14 OFFCURVE",
"94 -14 CURVE SMOOTH"
);
}
);
width = 342;
}
);
unicode = 0CC1;
},
{
color = 3;
glyphname = knmUU;
lastChange = "2015-12-16 18:04:39 +0000";
layers = (
{
background = {
paths = (
{
closed = 1;
nodes = (
"621 140 OFFCURVE",
"571 71 OFFCURVE",
"479 71 CURVE SMOOTH",
"408 71 OFFCURVE",
"366 112 OFFCURVE",
"366 169 CURVE SMOOTH",
"366 211 OFFCURVE",
"375 237 OFFCURVE",
"387 237 CURVE SMOOTH",
"392 237 OFFCURVE",
"393 232 OFFCURVE",
"393 227 CURVE SMOOTH",
"393 191 OFFCURVE",
"415 165 OFFCURVE",
"448 165 CURVE SMOOTH",
"483 165 OFFCURVE",
"508 194 OFFCURVE",
"508 230 CURVE SMOOTH",
"508 262 OFFCURVE",
"483 299 OFFCURVE",
"430 299 CURVE SMOOTH",
"351 299 OFFCURVE",
"314 233 OFFCURVE",
"314 155 CURVE SMOOTH",
"314 56 OFFCURVE",
"377 -14 OFFCURVE",
"463 -14 CURVE SMOOTH",
"574 -14 OFFCURVE",
"660 82 OFFCURVE",
"660 238 CURVE SMOOTH",
"660 424 OFFCURVE",
"522 519 OFFCURVE",
"405 519 CURVE SMOOTH",
"312 519 OFFCURVE",
"191 456 OFFCURVE",
"191 273 CURVE SMOOTH",
"191 177 OFFCURVE",
"175 71 OFFCURVE",
"82 71 CURVE SMOOTH",
"1 71 OFFCURVE",
"-49 145 OFFCURVE",
"-78 222 CURVE",
"-100 182 LINE",
"-91 84 OFFCURVE",
"-4 -14 OFFCURVE",
"85 -14 CURVE SMOOTH",
"208 -14 OFFCURVE",
"238 103 OFFCURVE",
"238 274 CURVE SMOOTH",
"238 416 OFFCURVE",
"327 437 OFFCURVE",
"405 437 CURVE SMOOTH",
"499 437 OFFCURVE",
"621 357 OFFCURVE",
"621 235 CURVE SMOOTH"
);
}
);
};
layerId = "034236B8-3FA8-43DA-9EDA-EFF269A687EC";
name = Regular;
paths = (
{
closed = 1;
nodes = (
"208 -14 OFFCURVE",
"238 103 OFFCURVE",
"238 274 CURVE SMOOTH",
"238 416 OFFCURVE",
"327 437 OFFCURVE",
"405 437 CURVE SMOOTH",
"499 437 OFFCURVE",
"621 357 OFFCURVE",
"621 235 CURVE SMOOTH",
"621 140 OFFCURVE",
"571 71 OFFCURVE",
"479 71 CURVE SMOOTH",
"408 71 OFFCURVE",
"366 112 OFFCURVE",
"366 169 CURVE SMOOTH",
"366 211 OFFCURVE",
"375 237 OFFCURVE",
"387 237 CURVE SMOOTH",
"392 237 OFFCURVE",
"393 232 OFFCURVE",
"393 227 CURVE SMOOTH",
"393 191 OFFCURVE",
"415 165 OFFCURVE",
"448 165 CURVE SMOOTH",
"483 165 OFFCURVE",
"508 194 OFFCURVE",
"508 230 CURVE SMOOTH",
"508 262 OFFCURVE",
"483 299 OFFCURVE",
"430 299 CURVE SMOOTH",
"351 299 OFFCURVE",
"314 233 OFFCURVE",
"314 155 CURVE SMOOTH",
"314 56 OFFCURVE",
"377 -14 OFFCURVE",
"463 -14 CURVE SMOOTH",
"574 -14 OFFCURVE",
"660 82 OFFCURVE",
"660 238 CURVE SMOOTH",
"660 424 OFFCURVE",
"522 519 OFFCURVE",
"405 519 CURVE SMOOTH",
"312 519 OFFCURVE",
"191 456 OFFCURVE",
"191 273 CURVE SMOOTH",
"191 177 OFFCURVE",
"175 71 OFFCURVE",
"82 71 CURVE SMOOTH",
"1 71 OFFCURVE",
"-49 145 OFFCURVE",
"-78 222 CURVE",
"-100 182 LINE",
"-91 84 OFFCURVE",
"-4 -14 OFFCURVE",
"85 -14 CURVE SMOOTH"
);
}
);
width = 715;
}
);
unicode = 0CC2;
},
{
color = 0;
glyphname = knmvR;
lastChange = "2015-12-16 18:04:41 +0000";
layers = (
{
background = {
paths = (
{
closed = 1;
nodes = (
"-105 -254 OFFCURVE",
"-50 -308 OFFCURVE",
"29 -308 CURVE",
"109 -308 OFFCURVE",
"165 -243 OFFCURVE",
"165 -170 CURVE",
"165 -109 OFFCURVE",
"125 -64 OFFCURVE",
"96 -64 CURVE SMOOTH",
"80 -64 OFFCURVE",
"70 -73 OFFCURVE",
"70 -83 CURVE SMOOTH",
"70 -92 OFFCURVE",
"75 -100 OFFCURVE",
"83 -102 CURVE SMOOTH",
"93 -105 OFFCURVE",
"103 -103 OFFCURVE",
"114 -107 CURVE SMOOTH",
"132 -113 OFFCURVE",
"145 -133 OFFCURVE",
"145 -166 CURVE",
"145 -224 OFFCURVE",
"93 -269 OFFCURVE",
"28 -269 CURVE",
"-36 -269 OFFCURVE",
"-85 -229 OFFCURVE",
"-85 -175 CURVE",
"-85 -144 OFFCURVE",
"-78 -120 OFFCURVE",
"-63 -105 CURVE",
"-63 -110 OFFCURVE",
"-63 -116 OFFCURVE",
"-63 -122 CURVE SMOOTH",
"-63 -155 OFFCURVE",
"-45 -171 OFFCURVE",
"-22 -171 CURVE SMOOTH",
"2 -171 OFFCURVE",
"17 -148 OFFCURVE",
"17 -117 CURVE SMOOTH",
"17 -87 OFFCURVE",
"5 -62 OFFCURVE",
"-28 -62 CURVE SMOOTH",
"-71 -62 OFFCURVE",
"-105 -118 OFFCURVE",
"-105 -175 CURVE"
);
},
{
closed = 1;
nodes = (
"3 -129 OFFCURVE",
"-6 -139 OFFCURVE",
"-22 -139 CURVE SMOOTH",
"-37 -139 OFFCURVE",
"-50 -131 OFFCURVE",
"-50 -109 CURVE SMOOTH",
"-50 -104 OFFCURVE",
"-50 -99 OFFCURVE",
"-49 -94 CURVE",
"-43 -92 OFFCURVE",
"-37 -90 OFFCURVE",
"-30 -90 CURVE SMOOTH",
"-8 -90 OFFCURVE",
"3 -99 OFFCURVE",
"3 -117 CURVE SMOOTH"
);
}
);
};
layerId = "034236B8-3FA8-43DA-9EDA-EFF269A687EC";
name = Regular;
paths = (
{
closed = 1;
nodes = (
"107 -308 OFFCURVE",
"157 -239 OFFCURVE",
"157 -157 CURVE SMOOTH",
"157 -73 OFFCURVE",
"115 12 OFFCURVE",
"74 68 CURVE SMOOTH",
"62 85 OFFCURVE",
"54 89 OFFCURVE",
"44 89 CURVE SMOOTH",
"34 89 OFFCURVE",
"26 83 OFFCURVE",
"26 71 CURVE SMOOTH",
"26 55 OFFCURVE",
"39 37 OFFCURVE",
"70 6 CURVE SMOOTH",
"105 -31 OFFCURVE",
"134 -84 OFFCURVE",
"134 -155 CURVE SMOOTH",
"134 -215 OFFCURVE",
"92 -269 OFFCURVE",
"24 -269 CURVE SMOOTH",
"-36 -269 OFFCURVE",
"-85 -229 OFFCURVE",
"-85 -175 CURVE SMOOTH",
"-85 -115 OFFCURVE",
"-49 -91 OFFCURVE",
"-23 -91 CURVE SMOOTH",
"-4 -91 OFFCURVE",
"11 -105 OFFCURVE",
"11 -124 CURVE SMOOTH",
"11 -144 OFFCURVE",
"0 -160 OFFCURVE",
"-19 -160 CURVE SMOOTH",
"-37 -160 OFFCURVE",
"-50 -145 OFFCURVE",
"-50 -123 CURVE SMOOTH",
"-50 -108 OFFCURVE",
"-44 -89 OFFCURVE",
"-30 -76 CURVE",
"-53 -77 LINE",
"-63 -93 OFFCURVE",
"-66 -108 OFFCURVE",
"-66 -134 CURVE SMOOTH",
"-66 -162 OFFCURVE",
"-46 -188 OFFCURVE",
"-19 -188 CURVE SMOOTH",
"13 -188 OFFCURVE",
"26 -161 OFFCURVE",
"26 -127 CURVE SMOOTH",
"26 -78 OFFCURVE",
"-2 -62 OFFCURVE",
"-28 -62 CURVE SMOOTH",
"-61 -62 OFFCURVE",
"-105 -95 OFFCURVE",
"-105 -175 CURVE SMOOTH",
"-105 -259 OFFCURVE",
"-41 -308 OFFCURVE",
"21 -308 CURVE SMOOTH"
);
}
);
width = 107;
}
);
unicode = 0CC3;
},
{
color = 0;
glyphname = knmvRR;
lastChange = "2015-12-16 18:06:17 +0000";
layers = (
{
layerId = "034236B8-3FA8-43DA-9EDA-EFF269A687EC";
name = Regular;
paths = (
{
closed = 1;
nodes = (
"99 -308 OFFCURVE",
"155 -243 OFFCURVE",
"155 -170 CURVE SMOOTH",
"155 -95 OFFCURVE",
"121 -30 OFFCURVE",
"82 21 CURVE",
"251 21 LINE SMOOTH",
"324 21 OFFCURVE",
"371 -40 OFFCURVE",
"371 -103 CURVE SMOOTH",
"371 -159 OFFCURVE",
"341 -201 OFFCURVE",
"286 -201 CURVE SMOOTH",
"245 -201 OFFCURVE",
"219 -176 OFFCURVE",
"219 -143 CURVE SMOOTH",
"219 -117 OFFCURVE",
"225 -102 OFFCURVE",
"232 -102 CURVE SMOOTH",
"236 -102 OFFCURVE",
"236 -104 OFFCURVE",
"236 -107 CURVE SMOOTH",
"236 -129 OFFCURVE",
"249 -144 OFFCURVE",
"268 -144 CURVE SMOOTH",
"289 -144 OFFCURVE",
"304 -127 OFFCURVE",
"304 -105 CURVE SMOOTH",
"304 -86 OFFCURVE",
"289 -65 OFFCURVE",
"257 -65 CURVE SMOOTH",
"210 -65 OFFCURVE",
"188 -104 OFFCURVE",
"188 -151 CURVE SMOOTH",
"188 -210 OFFCURVE",
"227 -251 OFFCURVE",
"276 -251 CURVE SMOOTH",
"343 -251 OFFCURVE",
"395 -193 OFFCURVE",
"395 -95 CURVE SMOOTH",
"395 9 OFFCURVE",
"326 60 OFFCURVE",
"244 60 CURVE SMOOTH",
"26 60 LINE",
"26 46 LINE",
"72 -3 OFFCURVE",
"134 -78 OFFCURVE",
"134 -168 CURVE SMOOTH",
"134 -224 OFFCURVE",
"83 -269 OFFCURVE",
"18 -269 CURVE SMOOTH",
"-46 -269 OFFCURVE",
"-95 -229 OFFCURVE",
"-95 -175 CURVE SMOOTH",
"-95 -144 OFFCURVE",
"-88 -120 OFFCURVE",
"-73 -105 CURVE",
"-73 -110 OFFCURVE",
"-73 -116 OFFCURVE",
"-73 -122 CURVE SMOOTH",
"-73 -155 OFFCURVE",
"-55 -171 OFFCURVE",
"-32 -171 CURVE SMOOTH",
"-8 -171 OFFCURVE",
"7 -148 OFFCURVE",
"7 -117 CURVE SMOOTH",
"7 -87 OFFCURVE",
"-5 -62 OFFCURVE",
"-38 -62 CURVE SMOOTH",
"-81 -62 OFFCURVE",
"-115 -118 OFFCURVE",
"-115 -175 CURVE SMOOTH",
"-115 -254 OFFCURVE",
"-60 -308 OFFCURVE",
"19 -308 CURVE SMOOTH"
);
},
{
closed = 1;
nodes = (
"-47 -139 OFFCURVE",
"-60 -131 OFFCURVE",
"-60 -109 CURVE SMOOTH",
"-60 -104 OFFCURVE",
"-60 -99 OFFCURVE",
"-59 -94 CURVE",
"-53 -92 OFFCURVE",
"-47 -90 OFFCURVE",
"-40 -90 CURVE SMOOTH",
"-18 -90 OFFCURVE",
"-7 -99 OFFCURVE",
"-7 -117 CURVE SMOOTH",
"-7 -129 OFFCURVE",
"-16 -139 OFFCURVE",
"-32 -139 CURVE SMOOTH"
);
}
);
width = 340;
}
);
unicode = 0CC4;
},
{
color = 3;
glyphname = knmvL;
lastChange = "2015-12-16 18:06:18 +0000";
layers = (
{
anchors = (
{
name = _bottom;
position = "{-10, 0}";
}
);
background = {
paths = (
{
closed = 1;
nodes = (
"324 -135 OFFCURVE",
"264 -55 OFFCURVE",
"212 -55 CURVE SMOOTH",
"193 -55 OFFCURVE",
"180 -61 OFFCURVE",
"180 -75 CURVE SMOOTH",
"180 -86 OFFCURVE",
"188 -93 OFFCURVE",
"195 -97 CURVE SMOOTH",
"203 -102 OFFCURVE",
"217 -98 OFFCURVE",
"236 -103 CURVE SMOOTH",
"266 -112 OFFCURVE",
"298 -175 OFFCURVE",
"298 -228 CURVE SMOOTH",
"298 -275 OFFCURVE",
"266 -315 OFFCURVE",
"214 -315 CURVE SMOOTH",
"114 -315 LINE SMOOTH",
"77 -315 OFFCURVE",
"57 -287 OFFCURVE",
"57 -263 CURVE SMOOTH",
"57 -215 OFFCURVE",
"142 -206 OFFCURVE",
"142 -137 CURVE SMOOTH",
"142 -83 OFFCURVE",
"108 -49 OFFCURVE",
"69 -49 CURVE SMOOTH",
"28 -49 OFFCURVE",
"-12 -83 OFFCURVE",
"-26 -134 CURVE",
"-27 -134 LINE",
"-41 -83 OFFCURVE",
"-82 -49 OFFCURVE",
"-121 -49 CURVE SMOOTH",
"-165 -49 OFFCURVE",
"-202 -86 OFFCURVE",
"-202 -134 CURVE SMOOTH",
"-202 -149 OFFCURVE",
"-196 -166 OFFCURVE",
"-183 -180 CURVE",
"-164 -168 LINE",
"-169 -163 OFFCURVE",
"-171 -154 OFFCURVE",
"-171 -147 CURVE SMOOTH",
"-171 -125 OFFCURVE",
"-154 -93 OFFCURVE",
"-119 -93 CURVE SMOOTH",
"-70 -93 OFFCURVE",
"-38 -145 OFFCURVE",
"-29 -189 CURVE",
"-24 -189 LINE",
"-17 -145 OFFCURVE",
"18 -93 OFFCURVE",
"68 -93 CURVE SMOOTH",
"99 -93 OFFCURVE",
"114 -111 OFFCURVE",
"114 -135 CURVE SMOOTH",
"114 -197 OFFCURVE",
"29 -193 OFFCURVE",
"29 -271 CURVE SMOOTH",
"29 -324 OFFCURVE",
"62 -355 OFFCURVE",
"100 -355 CURVE SMOOTH",
"214 -355 LINE SMOOTH",
"283 -355 OFFCURVE",
"324 -314 OFFCURVE",
"324 -239 CURVE SMOOTH"
);
}
);
};
layerId = "034236B8-3FA8-43DA-9EDA-EFF269A687EC";
name = Regular;
paths = (
{
closed = 1;
nodes = (
"269 -361 OFFCURVE",
"323 -282 OFFCURVE",
"323 -211 CURVE SMOOTH",
"323 -108 OFFCURVE",
"266 -54 OFFCURVE",
"218 -54 CURVE SMOOTH",
"198 -54 OFFCURVE",
"186 -63 OFFCURVE",
"186 -76 CURVE SMOOTH",
"186 -86 OFFCURVE",
"192 -93 OFFCURVE",
"200 -97 CURVE SMOOTH",
"208 -101 OFFCURVE",
"222 -98 OFFCURVE",
"242 -103 CURVE SMOOTH",
"270 -111 OFFCURVE",
"303 -145 OFFCURVE",
"303 -199 CURVE SMOOTH",
"303 -272 OFFCURVE",
"242 -311 OFFCURVE",
"159 -311 CURVE SMOOTH",
"92 -311 OFFCURVE",
"59 -295 OFFCURVE",
"59 -261 CURVE SMOOTH",
"59 -214 OFFCURVE",
"142 -191 OFFCURVE",
"142 -126 CURVE SMOOTH",
"142 -81 OFFCURVE",
"115 -49 OFFCURVE",
"71 -49 CURVE SMOOTH",
"29 -49 OFFCURVE",
"-13 -83 OFFCURVE",
"-26 -132 CURVE",
"-27 -132 LINE",
"-42 -83 OFFCURVE",
"-78 -49 OFFCURVE",
"-124 -49 CURVE SMOOTH",
"-166 -49 OFFCURVE",
"-195 -79 OFFCURVE",
"-195 -123 CURVE SMOOTH",
"-195 -150 OFFCURVE",
"-183 -172 OFFCURVE",
"-161 -195 CURVE",
"-148 -185 LINE",
"-161 -170 OFFCURVE",
"-167 -160 OFFCURVE",
"-167 -142 CURVE SMOOTH",
"-167 -117 OFFCURVE",
"-149 -95 OFFCURVE",
"-116 -95 CURVE SMOOTH",
"-67 -95 OFFCURVE",
"-38 -143 OFFCURVE",
"-30 -186 CURVE",
"-24 -186 LINE",
"-17 -143 OFFCURVE",
"19 -95 OFFCURVE",
"68 -95 CURVE SMOOTH",
"99 -95 OFFCURVE",
"117 -111 OFFCURVE",
"117 -135 CURVE SMOOTH",
"117 -190 OFFCURVE",
"31 -209 OFFCURVE",
"31 -270 CURVE SMOOTH",
"31 -320 OFFCURVE",
"59 -361 OFFCURVE",
"157 -361 CURVE SMOOTH"
);
}
);
width = 68;
}
);
unicode = 0CE2;
},
{
color = 3;
glyphname = knmvLL;
lastChange = "2015-12-16 18:06:20 +0000";
layers = (
{
anchors = (
{
name = _bottom;
position = "{51, 0}";
}
);
layerId = "034236B8-3FA8-43DA-9EDA-EFF269A687EC";
name = Regular;
paths = (
{
closed = 1;
nodes = (
"258 -361 OFFCURVE",
"312 -291 OFFCURVE",
"312 -216 CURVE SMOOTH",
"312 -162 OFFCURVE",
"289 -119 OFFCURVE",
"252 -92 CURVE",
"216 -98 LINE",
"250 -107 OFFCURVE",
"292 -151 OFFCURVE",
"292 -209 CURVE SMOOTH",
"292 -276 OFFCURVE",
"236 -310 OFFCURVE",
"158 -310 CURVE SMOOTH",
"92 -310 OFFCURVE",
"59 -294 OFFCURVE",
"59 -261 CURVE SMOOTH",
"59 -214 OFFCURVE",
"143 -191 OFFCURVE",
"143 -126 CURVE SMOOTH",
"143 -80 OFFCURVE",
"116 -49 OFFCURVE",
"71 -49 CURVE SMOOTH",
"29 -49 OFFCURVE",
"-13 -82 OFFCURVE",
"-26 -132 CURVE",
"-27 -132 LINE",
"-41 -82 OFFCURVE",
"-79 -49 OFFCURVE",
"-123 -49 CURVE SMOOTH",
"-166 -49 OFFCURVE",
"-195 -78 OFFCURVE",
"-195 -123 CURVE SMOOTH",
"-195 -150 OFFCURVE",
"-184 -172 OFFCURVE",
"-161 -194 CURVE",
"-149 -185 LINE",
"-162 -169 OFFCURVE",
"-167 -160 OFFCURVE",
"-167 -142 CURVE SMOOTH",
"-167 -117 OFFCURVE",
"-149 -93 OFFCURVE",
"-116 -93 CURVE SMOOTH",
"-67 -93 OFFCURVE",
"-38 -142 OFFCURVE",
"-30 -187 CURVE",
"-24 -187 LINE",
"-17 -142 OFFCURVE",
"19 -93 OFFCURVE",
"68 -93 CURVE SMOOTH",
"99 -93 OFFCURVE",
"116 -109 OFFCURVE",
"116 -134 CURVE SMOOTH",
"116 -190 OFFCURVE",
"32 -209 OFFCURVE",
"32 -270 CURVE SMOOTH",
"32 -319 OFFCURVE",
"60 -361 OFFCURVE",
"157 -361 CURVE SMOOTH"
);
},
{
closed = 1;
nodes = (
"514 -360 OFFCURVE",
"557 -298 OFFCURVE",
"557 -212 CURVE SMOOTH",
"557 -124 OFFCURVE",
"517 -54 OFFCURVE",
"377 -54 CURVE SMOOTH",
"215 -54 LINE",
"215 -98 LINE",
"382 -98 LINE SMOOTH",
"495 -98 OFFCURVE",
"537 -150 OFFCURVE",
"537 -214 CURVE SMOOTH",
"537 -275 OFFCURVE",
"500 -311 OFFCURVE",
"448 -311 CURVE SMOOTH",
"405 -311 OFFCURVE",
"380 -286 OFFCURVE",
"379 -252 CURVE SMOOTH",
"379 -228 OFFCURVE",
"391 -213 OFFCURVE",
"398 -213 CURVE SMOOTH",
"401 -213 OFFCURVE",
"402 -215 OFFCURVE",
"402 -219 CURVE",
"402 -240 OFFCURVE",
"414 -255 OFFCURVE",
"434 -255 CURVE SMOOTH",
"454 -255 OFFCURVE",
"469 -238 OFFCURVE",
"468 -217 CURVE",
"469 -198 OFFCURVE",
"455 -176 OFFCURVE",
"423 -176 CURVE SMOOTH",
"380 -176 OFFCURVE",
"357 -214 OFFCURVE",
"356 -260 CURVE SMOOTH",
"357 -318 OFFCURVE",
"392 -360 OFFCURVE",
"448 -360 CURVE SMOOTH"
);
}
);
width = 357;
}
);
unicode = 0CE3;
},
{
color = 3;
glyphname = knmE;
lastChange = "2015-12-16 18:06:22 +0000";
layers = (
{
background = {
paths = (
{
closed = 1;
nodes = (
"58 541 OFFCURVE",
"2 590 OFFCURVE",
"-70 590 CURVE",
"-69 567 LINE",
"-23 566 OFFCURVE",
"12 543 OFFCURVE",
"12 501 CURVE",
"58 476 LINE"
);
}
);
};
layerId = "034236B8-3FA8-43DA-9EDA-EFF269A687EC";
name = Regular;
paths = (
{
closed = 1;
nodes = (
"-121 434 OFFCURVE",
"-67 480 OFFCURVE",
"-67 553 CURVE SMOOTH",
"-67 651 OFFCURVE",
"-145 685 OFFCURVE",
"-202 685 CURVE SMOOTH",
"-257 685 OFFCURVE",
"-285 657 OFFCURVE",
"-285 625 CURVE SMOOTH",
"-285 592 OFFCURVE",
"-262 571 OFFCURVE",
"-228 571 CURVE SMOOTH",
"-194 571 OFFCURVE",
"-173 597 OFFCURVE",
"-173 633 CURVE SMOOTH",
"-173 639 OFFCURVE",
"-171 643 OFFCURVE",
"-167 643 CURVE SMOOTH",
"-154 643 OFFCURVE",
"-110 629 OFFCURVE",
"-110 577 CURVE",
"-110 530 OFFCURVE",
"-150 509 OFFCURVE",
"-201 509 CURVE",
"-202 434 LINE"
);
}
);
width = 0;
}
);
unicode = 0CC6;
},
{
color = 3;
glyphname = knmEE;
lastChange = "2015-12-16 18:04:48 +0000";
layers = (
{
layerId = "034236B8-3FA8-43DA-9EDA-EFF269A687EC";
name = Regular;
paths = (
{
closed = 1;
nodes = (
"217 -15 LINE",
"216 14 LINE",
"137 91 OFFCURVE",
"93 170 OFFCURVE",
"93 240 CURVE",
"93 346 OFFCURVE",
"135 408 OFFCURVE",
"205 408 CURVE SMOOTH",
"243 408 OFFCURVE",
"272 386 OFFCURVE",
"272 347 CURVE SMOOTH",
"272 317 OFFCURVE",
"247 287 OFFCURVE",
"208 287 CURVE SMOOTH",
"173 287 OFFCURVE",
"155 314 OFFCURVE",
"155 347 CURVE SMOOTH",
"155 381 OFFCURVE",
"168 408 OFFCURVE",
"195 438 CURVE",
"151 420 LINE",
"141 392 OFFCURVE",
"131 361 OFFCURVE",
"131 325 CURVE SMOOTH",
"131 267 OFFCURVE",
"158 229 OFFCURVE",
"206 229 CURVE SMOOTH",
"243 229 OFFCURVE",
"300 269 OFFCURVE",
"300 345 CURVE SMOOTH",
"300 421 OFFCURVE",
"263 476 OFFCURVE",
"198 476 CURVE SMOOTH",
"108 476 OFFCURVE",
"57 363 OFFCURVE",
"57 248 CURVE SMOOTH",
"57 151 OFFCURVE",
"95 59 OFFCURVE",
"164 -15 CURVE"
);
},
{
closed = 1;
nodes = (
"-121 434 OFFCURVE",
"-67 480 OFFCURVE",
"-67 553 CURVE SMOOTH",
"-67 651 OFFCURVE",
"-145 685 OFFCURVE",
"-202 685 CURVE SMOOTH",
"-257 685 OFFCURVE",
"-285 657 OFFCURVE",
"-285 625 CURVE SMOOTH",
"-285 592 OFFCURVE",
"-262 571 OFFCURVE",
"-228 571 CURVE SMOOTH",
"-194 571 OFFCURVE",
"-173 597 OFFCURVE",
"-173 633 CURVE SMOOTH",
"-173 639 OFFCURVE",
"-171 643 OFFCURVE",
"-167 643 CURVE SMOOTH",
"-154 643 OFFCURVE",
"-110 629 OFFCURVE",
"-110 577 CURVE",
"-110 530 OFFCURVE",
"-150 509 OFFCURVE",
"-201 509 CURVE",
"-202 434 LINE"
);
}
);
width = 350;
}
);
unicode = 0CC7;
},
{
color = 0;
glyphname = knmAI;
lastChange = "2015-12-16 18:06:23 +0000";
layers = (
{
layerId = "034236B8-3FA8-43DA-9EDA-EFF269A687EC";
name = Regular;
paths = (
{
closed = 1;
nodes = (
"63 -308 OFFCURVE",
"113 -245 OFFCURVE",
"113 -177 CURVE",
"113 -106 OFFCURVE",
"54 -69 OFFCURVE",
"18 -64 CURVE",
"16 -75 LINE",
"52 -91 OFFCURVE",
"90 -121 OFFCURVE",
"90 -173 CURVE",
"90 -221 OFFCURVE",
"48 -269 OFFCURVE",
"-20 -269 CURVE SMOOTH",
"-80 -269 OFFCURVE",
"-129 -229 OFFCURVE",
"-129 -175 CURVE SMOOTH",
"-129 -115 OFFCURVE",
"-93 -91 OFFCURVE",
"-67 -91 CURVE SMOOTH",
"-48 -91 OFFCURVE",
"-33 -105 OFFCURVE",
"-33 -124 CURVE SMOOTH",
"-33 -144 OFFCURVE",
"-44 -160 OFFCURVE",
"-63 -160 CURVE SMOOTH",
"-81 -160 OFFCURVE",
"-94 -145 OFFCURVE",
"-94 -123 CURVE SMOOTH",
"-94 -108 OFFCURVE",
"-88 -89 OFFCURVE",
"-74 -76 CURVE",
"-97 -77 LINE",
"-107 -93 OFFCURVE",
"-110 -108 OFFCURVE",
"-110 -134 CURVE SMOOTH",
"-110 -162 OFFCURVE",
"-90 -188 OFFCURVE",
"-63 -188 CURVE SMOOTH",
"-31 -188 OFFCURVE",
"-18 -161 OFFCURVE",
"-18 -127 CURVE SMOOTH",
"-18 -78 OFFCURVE",
"-46 -62 OFFCURVE",
"-72 -62 CURVE SMOOTH",
"-105 -62 OFFCURVE",
"-149 -95 OFFCURVE",
"-149 -175 CURVE SMOOTH",
"-149 -259 OFFCURVE",
"-85 -308 OFFCURVE",
"-23 -308 CURVE SMOOTH"
);
},
{
closed = 1;
nodes = (
"68 -61 OFFCURVE",
"102 -36 OFFCURVE",
"102 6 CURVE SMOOTH",
"102 45 OFFCURVE",
"64 71 OFFCURVE",
"28 85 CURVE",
"20 73 LINE",
"47 61 OFFCURVE",
"68 35 OFFCURVE",
"68 7 CURVE SMOOTH",
"68 -26 OFFCURVE",
"41 -54 OFFCURVE",
"18 -64 CURVE",
"32 -76 LINE"
);
},
{
closed = 1;
nodes = (
"-121 434 OFFCURVE",
"-67 480 OFFCURVE",
"-67 553 CURVE SMOOTH",
"-67 651 OFFCURVE",
"-145 685 OFFCURVE",
"-202 685 CURVE SMOOTH",
"-257 685 OFFCURVE",
"-285 657 OFFCURVE",
"-285 625 CURVE SMOOTH",
"-285 592 OFFCURVE",
"-262 571 OFFCURVE",
"-228 571 CURVE SMOOTH",
"-194 571 OFFCURVE",
"-173 597 OFFCURVE",
"-173 633 CURVE SMOOTH",
"-173 639 OFFCURVE",
"-171 643 OFFCURVE",
"-167 643 CURVE SMOOTH",
"-154 643 OFFCURVE",
"-110 629 OFFCURVE",
"-110 577 CURVE",
"-110 530 OFFCURVE",
"-150 509 OFFCURVE",
"-201 509 CURVE",
"-202 434 LINE"
);
}
);
width = 98;
}
);
unicode = 0CC8;
},
{
color = 3;
glyphname = knmO;
lastChange = "2015-12-16 18:04:51 +0000";
layers = (
{
layerId = "034236B8-3FA8-43DA-9EDA-EFF269A687EC";
name = Regular;
paths = (
{
closed = 1;
nodes = (
"208 -14 OFFCURVE",
"238 103 OFFCURVE",
"238 274 CURVE",
"238 416 OFFCURVE",
"327 437 OFFCURVE",
"405 437 CURVE SMOOTH",
"499 437 OFFCURVE",
"621 357 OFFCURVE",
"621 235 CURVE",
"621 140 OFFCURVE",
"571 71 OFFCURVE",
"479 71 CURVE SMOOTH",
"408 71 OFFCURVE",
"366 112 OFFCURVE",
"366 169 CURVE",
"366 211 OFFCURVE",
"375 237 OFFCURVE",
"387 237 CURVE SMOOTH",
"392 237 OFFCURVE",
"393 232 OFFCURVE",
"393 227 CURVE SMOOTH",
"393 191 OFFCURVE",
"415 165 OFFCURVE",
"448 165 CURVE SMOOTH",
"483 165 OFFCURVE",
"508 194 OFFCURVE",
"508 230 CURVE SMOOTH",
"508 262 OFFCURVE",
"483 299 OFFCURVE",
"430 299 CURVE SMOOTH",
"351 299 OFFCURVE",
"314 233 OFFCURVE",
"314 155 CURVE",
"314 56 OFFCURVE",
"377 -14 OFFCURVE",
"463 -14 CURVE SMOOTH",
"574 -14 OFFCURVE",
"660 82 OFFCURVE",
"660 238 CURVE",
"660 424 OFFCURVE",
"522 519 OFFCURVE",
"405 519 CURVE",
"312 519 OFFCURVE",
"191 456 OFFCURVE",
"191 273 CURVE",
"191 177 OFFCURVE",
"175 71 OFFCURVE",
"82 71 CURVE",
"1 71 OFFCURVE",
"-49 145 OFFCURVE",
"-78 222 CURVE",
"-100 182 LINE",
"-91 84 OFFCURVE",
"-4 -14 OFFCURVE",
"85 -14 CURVE"
);
},
{
closed = 1;
nodes = (
"-121 434 OFFCURVE",
"-67 480 OFFCURVE",
"-67 553 CURVE SMOOTH",
"-67 651 OFFCURVE",
"-145 685 OFFCURVE",
"-202 685 CURVE SMOOTH",
"-257 685 OFFCURVE",
"-285 657 OFFCURVE",
"-285 625 CURVE SMOOTH",
"-285 592 OFFCURVE",
"-262 571 OFFCURVE",
"-228 571 CURVE SMOOTH",
"-194 571 OFFCURVE",
"-173 597 OFFCURVE",
"-173 633 CURVE SMOOTH",
"-173 639 OFFCURVE",
"-171 643 OFFCURVE",
"-167 643 CURVE SMOOTH",
"-154 643 OFFCURVE",
"-110 629 OFFCURVE",
"-110 577 CURVE",
"-110 530 OFFCURVE",
"-150 509 OFFCURVE",
"-201 509 CURVE",
"-202 434 LINE"
);
}
);
width = 730;
},
{
associatedMasterId = "034236B8-3FA8-43DA-9EDA-EFF269A687EC";
layerId = "CD0E6DFA-EC3B-4ACF-B72C-A107C9C8004F";
name = "Regular Nov 20 15, 18:29";
paths = (
{
closed = 1;
nodes = (
"-45 591 OFFCURVE",
"-77 655 OFFCURVE",
"-146 655 CURVE SMOOTH",
"-192 655 OFFCURVE",
"-214 623 OFFCURVE",
"-214 595 CURVE SMOOTH",
"-214 564 OFFCURVE",
"-192 539 OFFCURVE",
"-162 539 CURVE SMOOTH",
"-133 539 OFFCURVE",
"-114 561 OFFCURVE",
"-114 593 CURVE SMOOTH",
"-114 600 OFFCURVE",
"-113 601 OFFCURVE",
"-109 601 CURVE SMOOTH",
"-98 601 OFFCURVE",
"-79 583 OFFCURVE",
"-79 543 CURVE",
"-79 482 OFFCURVE",
"-139 450 OFFCURVE",
"-283 450 CURVE",
"-283 378 LINE",
"-122 378 OFFCURVE",
"-45 421 OFFCURVE",
"-45 533 CURVE"
);
},
{
closed = 1;
nodes = (
"182 -14 OFFCURVE",
"204 88 OFFCURVE",
"204 254 CURVE",
"204 360 OFFCURVE",
"291 378 OFFCURVE",
"339 378 CURVE SMOOTH",
"411 378 OFFCURVE",
"494 313 OFFCURVE",
"494 207 CURVE SMOOTH",
"494 107 OFFCURVE",
"443 42 OFFCURVE",
"381 42 CURVE SMOOTH",
"344 42 OFFCURVE",
"314 67 OFFCURVE",
"314 99 CURVE",
"314 113 OFFCURVE",
"320 133 OFFCURVE",
"331 133 CURVE SMOOTH",
"333 133 OFFCURVE",
"334 132 OFFCURVE",
"334 127 CURVE SMOOTH",
"334 101 OFFCURVE",
"349 83 OFFCURVE",
"373 83 CURVE SMOOTH",
"397 83 OFFCURVE",
"415 103 OFFCURVE",
"415 128 CURVE SMOOTH",
"415 151 OFFCURVE",
"394 177 OFFCURVE",
"356 177 CURVE SMOOTH",
"304 177 OFFCURVE",
"278 131 OFFCURVE",
"278 84 CURVE",
"278 30 OFFCURVE",
"322 -14 OFFCURVE",
"375 -14 CURVE SMOOTH",
"461 -14 OFFCURVE",
"530 65 OFFCURVE",
"530 217 CURVE SMOOTH",
"530 379 OFFCURVE",
"431 450 OFFCURVE",
"329 450 CURVE",
"248 450 OFFCURVE",
"163 395 OFFCURVE",
"163 253 CURVE",
"163 152 OFFCURVE",
"149 79 OFFCURVE",
"77 79 CURVE",
"18 79 OFFCURVE",
"-42 124 OFFCURVE",
"-59 163 CURVE",
"-80 102 LINE",
"-52 52 OFFCURVE",
"23 -14 OFFCURVE",
"87 -14 CURVE"
);
}
);
width = 574;
}
);
unicode = 0CCA;
},
{
color = 3;
glyphname = knmOO;
lastChange = "2015-12-16 18:04:53 +0000";
layers = (
{
background = {
paths = (
{
closed = 1;
nodes = (
"621 140 OFFCURVE",
"571 71 OFFCURVE",
"479 71 CURVE SMOOTH",
"408 71 OFFCURVE",
"366 112 OFFCURVE",
"366 169 CURVE",
"366 211 OFFCURVE",
"375 237 OFFCURVE",
"387 237 CURVE SMOOTH",
"392 237 OFFCURVE",
"393 232 OFFCURVE",
"393 227 CURVE SMOOTH",
"393 191 OFFCURVE",
"415 165 OFFCURVE",
"448 165 CURVE SMOOTH",
"483 165 OFFCURVE",
"508 194 OFFCURVE",
"508 230 CURVE SMOOTH",
"508 262 OFFCURVE",
"483 299 OFFCURVE",
"430 299 CURVE SMOOTH",
"351 299 OFFCURVE",
"314 233 OFFCURVE",
"314 155 CURVE",
"314 56 OFFCURVE",
"377 -14 OFFCURVE",
"463 -14 CURVE SMOOTH",
"574 -14 OFFCURVE",
"660 82 OFFCURVE",
"660 238 CURVE",
"660 424 OFFCURVE",
"522 519 OFFCURVE",
"405 519 CURVE",
"312 519 OFFCURVE",
"191 456 OFFCURVE",
"191 273 CURVE",
"191 177 OFFCURVE",
"175 71 OFFCURVE",
"82 71 CURVE",
"1 71 OFFCURVE",
"-49 145 OFFCURVE",
"-78 222 CURVE",
"-100 182 LINE",
"-91 84 OFFCURVE",
"-4 -14 OFFCURVE",
"85 -14 CURVE",
"208 -14 OFFCURVE",
"238 103 OFFCURVE",
"238 274 CURVE",
"238 416 OFFCURVE",
"327 437 OFFCURVE",
"405 437 CURVE SMOOTH",
"499 437 OFFCURVE",
"621 357 OFFCURVE",
"621 235 CURVE"
);
},
{
closed = 1;
nodes = (
"-202 434 LINE",
"-121 434 OFFCURVE",
"-67 480 OFFCURVE",
"-67 553 CURVE SMOOTH",
"-67 651 OFFCURVE",
"-145 685 OFFCURVE",
"-202 685 CURVE SMOOTH",
"-257 685 OFFCURVE",
"-285 657 OFFCURVE",
"-285 625 CURVE SMOOTH",
"-285 592 OFFCURVE",
"-262 571 OFFCURVE",
"-228 571 CURVE SMOOTH",
"-194 571 OFFCURVE",
"-173 597 OFFCURVE",
"-173 633 CURVE SMOOTH",
"-173 639 OFFCURVE",
"-171 643 OFFCURVE",
"-167 643 CURVE SMOOTH",
"-154 643 OFFCURVE",
"-110 629 OFFCURVE",
"-110 577 CURVE",
"-110 530 OFFCURVE",
"-150 509 OFFCURVE",
"-201 509 CURVE"
);
}
);
};
layerId = "034236B8-3FA8-43DA-9EDA-EFF269A687EC";
name = Regular;
paths = (
{
closed = 1;
nodes = (
"209 -14 OFFCURVE",
"239 103 OFFCURVE",
"239 274 CURVE",
"239 416 OFFCURVE",
"328 437 OFFCURVE",
"406 437 CURVE SMOOTH",
"500 437 OFFCURVE",
"622 357 OFFCURVE",
"622 235 CURVE",
"622 140 OFFCURVE",
"572 71 OFFCURVE",
"480 71 CURVE SMOOTH",
"409 71 OFFCURVE",
"367 112 OFFCURVE",
"367 169 CURVE",
"367 211 OFFCURVE",
"376 237 OFFCURVE",
"388 237 CURVE SMOOTH",
"393 237 OFFCURVE",
"394 232 OFFCURVE",
"394 227 CURVE SMOOTH",
"394 191 OFFCURVE",
"416 165 OFFCURVE",
"449 165 CURVE SMOOTH",
"484 165 OFFCURVE",
"509 194 OFFCURVE",
"509 230 CURVE SMOOTH",
"509 262 OFFCURVE",
"484 299 OFFCURVE",
"431 299 CURVE SMOOTH",
"352 299 OFFCURVE",
"315 233 OFFCURVE",
"315 155 CURVE",
"315 56 OFFCURVE",
"378 -14 OFFCURVE",
"464 -14 CURVE SMOOTH",
"575 -14 OFFCURVE",
"661 82 OFFCURVE",
"661 238 CURVE",
"661 424 OFFCURVE",
"523 519 OFFCURVE",
"406 519 CURVE",
"313 519 OFFCURVE",
"192 456 OFFCURVE",
"192 273 CURVE",
"192 177 OFFCURVE",
"176 71 OFFCURVE",
"83 71 CURVE",
"2 71 OFFCURVE",
"-48 145 OFFCURVE",
"-77 222 CURVE",
"-99 182 LINE",
"-90 84 OFFCURVE",
"-3 -14 OFFCURVE",
"86 -14 CURVE"
);
},
{
closed = 1;
nodes = (
"-121 434 OFFCURVE",
"-67 480 OFFCURVE",
"-67 553 CURVE SMOOTH",
"-67 651 OFFCURVE",
"-145 685 OFFCURVE",
"-202 685 CURVE SMOOTH",
"-257 685 OFFCURVE",
"-285 657 OFFCURVE",
"-285 625 CURVE SMOOTH",
"-285 592 OFFCURVE",
"-262 571 OFFCURVE",
"-228 571 CURVE SMOOTH",
"-194 571 OFFCURVE",
"-173 597 OFFCURVE",
"-173 633 CURVE SMOOTH",
"-173 639 OFFCURVE",
"-171 643 OFFCURVE",
"-167 643 CURVE SMOOTH",
"-154 643 OFFCURVE",
"-110 629 OFFCURVE",
"-110 577 CURVE",
"-110 530 OFFCURVE",
"-150 509 OFFCURVE",
"-201 509 CURVE",
"-202 434 LINE"
);
},
{
closed = 1;
nodes = (
"927 -15 LINE",
"926 14 LINE",
"847 91 OFFCURVE",
"803 170 OFFCURVE",
"803 240 CURVE",
"803 346 OFFCURVE",
"845 408 OFFCURVE",
"915 408 CURVE SMOOTH",
"953 408 OFFCURVE",
"982 386 OFFCURVE",
"982 347 CURVE SMOOTH",
"982 317 OFFCURVE",
"957 287 OFFCURVE",
"918 287 CURVE SMOOTH",
"883 287 OFFCURVE",
"865 314 OFFCURVE",
"865 347 CURVE SMOOTH",
"865 381 OFFCURVE",
"878 408 OFFCURVE",
"905 438 CURVE",
"861 420 LINE",
"851 392 OFFCURVE",
"841 361 OFFCURVE",
"841 325 CURVE SMOOTH",
"841 267 OFFCURVE",
"868 229 OFFCURVE",
"916 229 CURVE SMOOTH",
"953 229 OFFCURVE",
"1010 269 OFFCURVE",
"1010 345 CURVE SMOOTH",
"1010 421 OFFCURVE",
"973 476 OFFCURVE",
"908 476 CURVE SMOOTH",
"818 476 OFFCURVE",
"767 363 OFFCURVE",
"767 248 CURVE SMOOTH",
"767 151 OFFCURVE",
"805 59 OFFCURVE",
"874 -15 CURVE"
);
}
);
width = 1060;
},
{
associatedMasterId = "034236B8-3FA8-43DA-9EDA-EFF269A687EC";
layerId = "D117E8D1-7E84-4CE2-983C-EDDF3C1B6C05";
name = "Regular Nov 20 15, 18:29";
paths = (
{
closed = 1;
nodes = (
"105 591 OFFCURVE",
"73 655 OFFCURVE",
"4 655 CURVE SMOOTH",
"-42 655 OFFCURVE",
"-64 623 OFFCURVE",
"-64 595 CURVE SMOOTH",
"-64 564 OFFCURVE",
"-42 539 OFFCURVE",
"-12 539 CURVE SMOOTH",
"17 539 OFFCURVE",
"36 561 OFFCURVE",
"36 593 CURVE SMOOTH",
"36 600 OFFCURVE",
"37 601 OFFCURVE",
"41 601 CURVE SMOOTH",
"52 601 OFFCURVE",
"71 583 OFFCURVE",
"71 543 CURVE",
"71 482 OFFCURVE",
"11 450 OFFCURVE",
"-133 450 CURVE",
"-133 378 LINE",
"28 378 OFFCURVE",
"105 421 OFFCURVE",
"105 533 CURVE"
);
},
{
closed = 1;
nodes = (
"182 -14 OFFCURVE",
"204 88 OFFCURVE",
"204 254 CURVE",
"204 360 OFFCURVE",
"291 378 OFFCURVE",
"339 378 CURVE SMOOTH",
"411 378 OFFCURVE",
"494 313 OFFCURVE",
"494 207 CURVE SMOOTH",
"494 107 OFFCURVE",
"443 42 OFFCURVE",
"381 42 CURVE SMOOTH",
"344 42 OFFCURVE",
"314 67 OFFCURVE",
"314 99 CURVE",
"314 113 OFFCURVE",
"320 133 OFFCURVE",
"331 133 CURVE SMOOTH",
"333 133 OFFCURVE",
"334 132 OFFCURVE",
"334 127 CURVE SMOOTH",
"334 101 OFFCURVE",
"349 83 OFFCURVE",
"373 83 CURVE SMOOTH",
"397 83 OFFCURVE",
"415 103 OFFCURVE",
"415 128 CURVE SMOOTH",
"415 151 OFFCURVE",
"394 177 OFFCURVE",
"356 177 CURVE SMOOTH",
"304 177 OFFCURVE",
"278 131 OFFCURVE",
"278 84 CURVE",
"278 30 OFFCURVE",
"322 -14 OFFCURVE",
"375 -14 CURVE SMOOTH",
"461 -14 OFFCURVE",
"530 65 OFFCURVE",
"530 217 CURVE SMOOTH",
"530 379 OFFCURVE",
"431 450 OFFCURVE",
"329 450 CURVE",
"248 450 OFFCURVE",
"163 395 OFFCURVE",
"163 253 CURVE",
"163 152 OFFCURVE",
"149 79 OFFCURVE",
"77 79 CURVE",
"18 79 OFFCURVE",
"-42 124 OFFCURVE",
"-59 163 CURVE",
"-80 102 LINE",
"-52 52 OFFCURVE",
"23 -14 OFFCURVE",
"87 -14 CURVE"
);
},
{
closed = 1;
nodes = (
"680 341 OFFCURVE",
"666 314 OFFCURVE",
"666 283 CURVE SMOOTH",
"666 232 OFFCURVE",
"690 199 OFFCURVE",
"732 199 CURVE SMOOTH",
"764 199 OFFCURVE",
"813 234 OFFCURVE",
"813 300 CURVE SMOOTH",
"813 366 OFFCURVE",
"781 414 OFFCURVE",
"725 414 CURVE SMOOTH",
"646 414 OFFCURVE",
"602 316 OFFCURVE",
"602 216 CURVE SMOOTH",
"602 131 OFFCURVE",
"635 52 OFFCURVE",
"695 -12 CURVE",
"767 -12 LINE",
"682 62 OFFCURVE",
"633 140 OFFCURVE",
"633 209 CURVE",
"633 301 OFFCURVE",
"670 355 OFFCURVE",
"731 355 CURVE SMOOTH",
"764 355 OFFCURVE",
"789 336 OFFCURVE",
"789 302 CURVE SMOOTH",
"789 276 OFFCURVE",
"767 250 OFFCURVE",
"733 250 CURVE SMOOTH",
"703 250 OFFCURVE",
"687 273 OFFCURVE",
"687 302 CURVE SMOOTH",
"687 331 OFFCURVE",
"699 355 OFFCURVE",
"722 381 CURVE",
"689 365 LINE"
);
}
);
width = 857;
}
);
unicode = 0CCB;
},
{
color = 3;
glyphname = knmAU;
lastChange = "2015-12-17 19:31:07 +0000";
layers = (
{
background = {
paths = (
{
closed = 1;
nodes = (
"221 634 OFFCURVE",
"316 556 OFFCURVE",
"316 436 CURVE SMOOTH",
"316 332 OFFCURVE",
"267 269 OFFCURVE",
"168 269 CURVE SMOOTH",
"94 269 OFFCURVE",
"51 313 OFFCURVE",
"51 370 CURVE",
"51 412 OFFCURVE",
"70 438 OFFCURVE",
"83 438 CURVE SMOOTH",
"87 438 OFFCURVE",
"89 434 OFFCURVE",
"89 428 CURVE SMOOTH",
"89 392 OFFCURVE",
"110 366 OFFCURVE",
"144 366 CURVE SMOOTH",
"178 366 OFFCURVE",
"204 395 OFFCURVE",
"204 431 CURVE SMOOTH",
"204 463 OFFCURVE",
"178 500 OFFCURVE",
"125 500 CURVE SMOOTH",
"46 500 OFFCURVE",
"9 434 OFFCURVE",
"9 356 CURVE",
"9 257 OFFCURVE",
"72 187 OFFCURVE",
"169 187 CURVE SMOOTH",
"279 187 OFFCURVE",
"355 283 OFFCURVE",
"355 439 CURVE SMOOTH",
"355 602 OFFCURVE",
"240 709 OFFCURVE",
"15 709 CURVE",
"-300 709 LINE",
"-300 634 LINE",
"66 634 LINE"
);
},
{
closed = 1;
nodes = (
"-153 644 LINE",
"-129 635 OFFCURVE",
"-107 610 OFFCURVE",
"-107 576 CURVE SMOOTH",
"-107 536 OFFCURVE",
"-138 509 OFFCURVE",
"-199 509 CURVE SMOOTH",
"-220 509 LINE",
"-220 434 LINE",
"-199 434 LINE SMOOTH",
"-118 434 OFFCURVE",
"-64 480 OFFCURVE",
"-64 552 CURVE SMOOTH",
"-64 607 OFFCURVE",
"-95 648 OFFCURVE",
"-138 664 CURVE"
);
}
);
};
layerId = "034236B8-3FA8-43DA-9EDA-EFF269A687EC";
name = Regular;
paths = (
{
closed = 1;
nodes = (
"280 186 OFFCURVE",
"354 292 OFFCURVE",
"354 438 CURVE SMOOTH",
"354 601 OFFCURVE",
"265 709 OFFCURVE",
"45 709 CURVE SMOOTH",
"-300 709 LINE",
"-300 634 LINE",
"66 634 LINE SMOOTH",
"221 634 OFFCURVE",
"319 555 OFFCURVE",
"319 435 CURVE SMOOTH",
"319 329 OFFCURVE",
"257 268 OFFCURVE",
"167 268 CURVE SMOOTH",
"94 268 OFFCURVE",
"50 311 OFFCURVE",
"49 369 CURVE SMOOTH",
"48 411 OFFCURVE",
"70 437 OFFCURVE",
"82 437 CURVE SMOOTH",
"87 437 OFFCURVE",
"89 433 OFFCURVE",
"88 427 CURVE",
"89 391 OFFCURVE",
"110 365 OFFCURVE",
"143 365 CURVE SMOOTH",
"178 365 OFFCURVE",
"204 394 OFFCURVE",
"203 430 CURVE",
"204 462 OFFCURVE",
"179 499 OFFCURVE",
"124 499 CURVE SMOOTH",
"52 499 OFFCURVE",
"12 435 OFFCURVE",
"11 357 CURVE SMOOTH",
"12 258 OFFCURVE",
"72 186 OFFCURVE",
"168 186 CURVE SMOOTH"
);
},
{
closed = 1;
nodes = (
"-199 434 LINE SMOOTH",
"-118 434 OFFCURVE",
"-64 480 OFFCURVE",
"-64 552 CURVE SMOOTH",
"-64 607 OFFCURVE",
"-95 648 OFFCURVE",
"-138 664 CURVE",
"-153 644 LINE",
"-129 635 OFFCURVE",
"-107 610 OFFCURVE",
"-107 576 CURVE SMOOTH",
"-107 536 OFFCURVE",
"-138 509 OFFCURVE",
"-199 509 CURVE SMOOTH",
"-220 509 LINE",
"-220 434 LINE"
);
}
);
width = 429;
}
);
unicode = 0CCC;
},
{
color = 3;
glyphname = knLengthmark;
lastChange = "2015-12-16 18:06:32 +0000";
layers = (
{
background = {
paths = (
{
closed = 1;
nodes = (
"140 391 OFFCURVE",
"124 360 OFFCURVE",
"124 324 CURVE SMOOTH",
"124 266 OFFCURVE",
"152 228 OFFCURVE",
"200 228 CURVE SMOOTH",
"237 228 OFFCURVE",
"293 268 OFFCURVE",
"293 344 CURVE SMOOTH",
"293 420 OFFCURVE",
"256 475 OFFCURVE",
"192 475 CURVE SMOOTH",
"101 475 OFFCURVE",
"50 362 OFFCURVE",
"50 247 CURVE SMOOTH",
"50 150 OFFCURVE",
"88 59 OFFCURVE",
"157 -15 CURVE",
"240 -15 LINE",
"142 70 OFFCURVE",
"86 160 OFFCURVE",
"86 239 CURVE SMOOTH",
"86 345 OFFCURVE",
"129 407 OFFCURVE",
"199 407 CURVE SMOOTH",
"237 407 OFFCURVE",
"265 385 OFFCURVE",
"265 346 CURVE SMOOTH",
"265 316 OFFCURVE",
"240 286 OFFCURVE",
"201 286 CURVE SMOOTH",
"167 286 OFFCURVE",
"148 313 OFFCURVE",
"148 346 CURVE SMOOTH",
"148 380 OFFCURVE",
"162 407 OFFCURVE",
"188 437 CURVE",
"150 419 LINE"
);
}
);
};
layerId = "034236B8-3FA8-43DA-9EDA-EFF269A687EC";
name = Regular;
paths = (
{
closed = 1;
nodes = (
"248 -13 LINE",
"144 72 OFFCURVE",
"85 164 OFFCURVE",
"85 243 CURVE SMOOTH",
"85 349 OFFCURVE",
"129 411 OFFCURVE",
"199 411 CURVE SMOOTH",
"248 411 OFFCURVE",
"270 389 OFFCURVE",
"270 353 CURVE SMOOTH",
"270 320 OFFCURVE",
"247 296 OFFCURVE",
"206 296 CURVE SMOOTH",
"173 296 OFFCURVE",
"146 319 OFFCURVE",
"146 360 CURVE SMOOTH",
"146 394 OFFCURVE",
"149 411 OFFCURVE",
"165 441 CURVE",
"124 419 LINE",
"118 391 OFFCURVE",
"116 374 OFFCURVE",
"116 338 CURVE SMOOTH",
"116 280 OFFCURVE",
"152 234 OFFCURVE",
"206 234 CURVE SMOOTH",
"257 234 OFFCURVE",
"300 279 OFFCURVE",
"300 352 CURVE SMOOTH",
"300 425 OFFCURVE",
"265 484 OFFCURVE",
"195 484 CURVE SMOOTH",
"104 484 OFFCURVE",
"50 373 OFFCURVE",
"50 247 CURVE SMOOTH",
"50 150 OFFCURVE",
"83 61 OFFCURVE",
"145 -13 CURVE"
);
}
);
width = 345;
}
);
unicode = 0CD5;
},
{
color = 0;
glyphname = knAIlengthmark;
lastChange = "2015-12-16 18:06:35 +0000";
layers = (
{
background = {
paths = (
{
closed = 1;
nodes = (
"34 -76 LINE",
"70 -61 OFFCURVE",
"104 -36 OFFCURVE",
"104 6 CURVE SMOOTH",
"104 45 OFFCURVE",
"66 71 OFFCURVE",
"30 85 CURVE",
"22 73 LINE",
"49 61 OFFCURVE",
"70 35 OFFCURVE",
"70 7 CURVE SMOOTH",
"70 -26 OFFCURVE",
"43 -54 OFFCURVE",
"20 -64 CURVE"
);
},
{
closed = 1;
nodes = (
"115 -106 OFFCURVE",
"56 -69 OFFCURVE",
"20 -64 CURVE",
"18 -75 LINE",
"54 -91 OFFCURVE",
"92 -121 OFFCURVE",
"92 -173 CURVE",
"92 -221 OFFCURVE",
"50 -269 OFFCURVE",
"-18 -269 CURVE SMOOTH",
"-78 -269 OFFCURVE",
"-127 -229 OFFCURVE",
"-127 -175 CURVE SMOOTH",
"-127 -115 OFFCURVE",
"-91 -91 OFFCURVE",
"-65 -91 CURVE SMOOTH",
"-46 -91 OFFCURVE",
"-31 -105 OFFCURVE",
"-31 -124 CURVE SMOOTH",
"-31 -144 OFFCURVE",
"-42 -160 OFFCURVE",
"-61 -160 CURVE SMOOTH",
"-79 -160 OFFCURVE",
"-92 -145 OFFCURVE",
"-92 -123 CURVE SMOOTH",
"-92 -108 OFFCURVE",
"-86 -89 OFFCURVE",
"-72 -76 CURVE",
"-95 -77 LINE",
"-105 -93 OFFCURVE",
"-108 -108 OFFCURVE",
"-108 -134 CURVE SMOOTH",
"-108 -162 OFFCURVE",
"-88 -188 OFFCURVE",
"-61 -188 CURVE SMOOTH",
"-29 -188 OFFCURVE",
"-16 -161 OFFCURVE",
"-16 -127 CURVE SMOOTH",
"-16 -78 OFFCURVE",
"-44 -62 OFFCURVE",
"-70 -62 CURVE SMOOTH",
"-103 -62 OFFCURVE",
"-147 -95 OFFCURVE",
"-147 -175 CURVE SMOOTH",
"-147 -259 OFFCURVE",
"-83 -308 OFFCURVE",
"-21 -308 CURVE SMOOTH",
"65 -308 OFFCURVE",
"115 -245 OFFCURVE",
"115 -177 CURVE"
);
}
);
};
layerId = "034236B8-3FA8-43DA-9EDA-EFF269A687EC";
name = Regular;
paths = (
{
closed = 1;
nodes = (
"79 -308 OFFCURVE",
"126 -242 OFFCURVE",
"126 -169 CURVE SMOOTH",
"126 -118 OFFCURVE",
"103 -71 OFFCURVE",
"47 -36 CURVE",
"16 -28 LINE",
"31 -52 LINE",
"81 -81 OFFCURVE",
"99 -125 OFFCURVE",
"99 -164 CURVE SMOOTH",
"99 -215 OFFCURVE",
"62 -250 OFFCURVE",
"-13 -250 CURVE SMOOTH",
"-93 -250 OFFCURVE",
"-130 -211 OFFCURVE",
"-130 -165 CURVE SMOOTH",
"-130 -115 OFFCURVE",
"-95 -90 OFFCURVE",
"-64 -90 CURVE SMOOTH",
"-42 -90 OFFCURVE",
"-29 -103 OFFCURVE",
"-29 -120 CURVE SMOOTH",
"-29 -136 OFFCURVE",
"-45 -149 OFFCURVE",
"-68 -149 CURVE SMOOTH",
"-92 -149 OFFCURVE",
"-113 -132 OFFCURVE",
"-113 -111 CURVE SMOOTH",
"-113 -96 OFFCURVE",
"-112 -89 OFFCURVE",
"-109 -76 CURVE",
"-122 -87 LINE",
"-127 -93 OFFCURVE",
"-129 -103 OFFCURVE",
"-129 -122 CURVE SMOOTH",
"-129 -159 OFFCURVE",
"-101 -187 OFFCURVE",
"-67 -187 CURVE SMOOTH",
"-30 -187 OFFCURVE",
"-6 -160 OFFCURVE",
"-6 -123 CURVE SMOOTH",
"-6 -81 OFFCURVE",
"-27 -52 OFFCURVE",
"-66 -52 CURVE SMOOTH",
"-112 -52 OFFCURVE",
"-155 -105 OFFCURVE",
"-155 -165 CURVE SMOOTH",
"-155 -249 OFFCURVE",
"-99 -308 OFFCURVE",
"-14 -308 CURVE SMOOTH"
);
},
{
closed = 1;
nodes = (
"81 -35 OFFCURVE",
"124 -4 OFFCURVE",
"124 34 CURVE SMOOTH",
"124 78 OFFCURVE",
"86 112 OFFCURVE",
"33 119 CURVE",
"23 102 LINE",
"59 96 OFFCURVE",
"80 69 OFFCURVE",
"80 37 CURVE SMOOTH",
"80 6 OFFCURVE",
"50 -14 OFFCURVE",
"16 -28 CURVE",
"38 -45 LINE"
);
}
);
width = 106;
}
);
unicode = 0CD6;
},
{
color = 3;
glyphname = knKA;
lastChange = "2015-12-16 17:45:47 +0000";
layers = (
{
background = {
paths = (
{
closed = 1;
nodes = (
"142 327 OFFCURVE",
"65 248 OFFCURVE",
"65 158 CURVE SMOOTH",
"65 64 OFFCURVE",
"142 -14 OFFCURVE",
"239 -14 CURVE SMOOTH",
"333 -14 OFFCURVE",
"410 64 OFFCURVE",
"410 158 CURVE SMOOTH",
"410 248 OFFCURVE",
"333 327 OFFCURVE",
"239 327 CURVE SMOOTH"
);
},
{
closed = 1;
nodes = (
"301 303 OFFCURVE",
"354 251 OFFCURVE",
"354 185 CURVE SMOOTH",
"354 117 OFFCURVE",
"303 71 OFFCURVE",
"239 71 CURVE SMOOTH",
"174 71 OFFCURVE",
"123 117 OFFCURVE",
"123 185 CURVE SMOOTH",
"123 251 OFFCURVE",
"176 303 OFFCURVE",
"239 303 CURVE"
);
},
{
closed = 1;
nodes = (
"25 360 LINE",
"25 294 LINE",
"183 294 LINE",
"239 306 LINE SMOOTH",
"298 294 LINE",
"450 294 LINE",
"450 360 LINE"
);
},
{
closed = 1;
nodes = (
"361 644 LINE",
"385 635 OFFCURVE",
"407 610 OFFCURVE",
"407 576 CURVE SMOOTH",
"407 536 OFFCURVE",
"376 509 OFFCURVE",
"315 509 CURVE SMOOTH",
"25 509 LINE",
"25 434 LINE",
"315 434 LINE SMOOTH",
"397 434 OFFCURVE",
"450 480 OFFCURVE",
"450 552 CURVE SMOOTH",
"450 607 OFFCURVE",
"419 648 OFFCURVE",
"376 664 CURVE"
);
},
{
closed = 1;
nodes = (
"266 438 OFFCURVE",
"249 471 OFFCURVE",
"209 488 CURVE",
"194 465 LINE",
"218 453 OFFCURVE",
"230 430 OFFCURVE",
"230 401 CURVE SMOOTH",
"230 372 OFFCURVE",
"218 349 OFFCURVE",
"194 337 CURVE",
"209 314 LINE",
"249 331 OFFCURVE",
"266 364 OFFCURVE",
"266 401 CURVE SMOOTH"
);
}
);
};
guideLines = (
{
angle = 90;
position = "{286, 488}";
},
{
angle = 270;
position = "{31, -78}";
}
);
layerId = "034236B8-3FA8-43DA-9EDA-EFF269A687EC";
name = Regular;
paths = (
{
closed = 1;
nodes = (
"333 -14 OFFCURVE",
"406 64 OFFCURVE",
"406 159 CURVE SMOOTH",
"406 249 OFFCURVE",
"333 327 OFFCURVE",
"239 327 CURVE SMOOTH",
"142 327 OFFCURVE",
"69 249 OFFCURVE",
"69 159 CURVE SMOOTH",
"69 64 OFFCURVE",
"142 -14 OFFCURVE",
"239 -14 CURVE SMOOTH"
);
},
{
closed = 1;
nodes = (
"167 71 OFFCURVE",
"117 117 OFFCURVE",
"117 186 CURVE SMOOTH",
"117 252 OFFCURVE",
"176 297 OFFCURVE",
"239 297 CURVE SMOOTH",
"301 297 OFFCURVE",
"359 252 OFFCURVE",
"359 186 CURVE SMOOTH",
"359 117 OFFCURVE",
"310 71 OFFCURVE",
"239 71 CURVE SMOOTH"
);
},
{
closed = 1;
nodes = (
"183 294 LINE",
"239 306 LINE",
"298 294 LINE",
"450 294 LINE",
"450 360 LINE",
"25 360 LINE",
"25 294 LINE"
);
},
{
closed = 1;
nodes = (
"249 331 OFFCURVE",
"266 364 OFFCURVE",
"266 401 CURVE SMOOTH",
"266 438 OFFCURVE",
"249 471 OFFCURVE",
"209 488 CURVE",
"196 465 LINE",
"220 453 OFFCURVE",
"232 430 OFFCURVE",
"232 401 CURVE SMOOTH",
"232 372 OFFCURVE",
"216 350 OFFCURVE",
"192 337 CURVE",
"209 314 LINE"
);
},
{
closed = 1;
nodes = (
"315 434 LINE SMOOTH",
"397 434 OFFCURVE",
"450 480 OFFCURVE",
"450 552 CURVE SMOOTH",
"450 607 OFFCURVE",
"419 648 OFFCURVE",
"376 664 CURVE",
"361 644 LINE",
"385 635 OFFCURVE",
"407 610 OFFCURVE",
"407 576 CURVE SMOOTH",
"407 537 OFFCURVE",
"376 509 OFFCURVE",
"315 509 CURVE SMOOTH",
"25 509 LINE",
"25 434 LINE"
);
}
);
width = 480;
}
);
unicode = 0C95;
},
{
color = 3;
glyphname = knKHA;
lastChange = "2016-01-05 18:13:08 +0000";
layers = (
{
layerId = "034236B8-3FA8-43DA-9EDA-EFF269A687EC";
name = Regular;
paths = (
{
closed = 1;
nodes = (
"348 -14 OFFCURVE",
"436 169 OFFCURVE",
"436 279 CURVE SMOOTH",
"436 445 OFFCURVE",
"357 520 OFFCURVE",
"258 520 CURVE SMOOTH",
"197 520 OFFCURVE",
"146 469 OFFCURVE",
"146 407 CURVE SMOOTH",
"146 350 OFFCURVE",
"180 300 OFFCURVE",
"236 300 CURVE SMOOTH",
"280 300 OFFCURVE",
"304 330 OFFCURVE",
"304 356 CURVE SMOOTH",
"304 385 OFFCURVE",
"283 408 OFFCURVE",
"256 408 CURVE SMOOTH",
"228 408 OFFCURVE",
"211 387 OFFCURVE",
"211 357 CURVE SMOOTH",
"211 352 OFFCURVE",
"210 351 OFFCURVE",
"207 351 CURVE SMOOTH",
"194 351 OFFCURVE",
"185 369 OFFCURVE",
"185 390 CURVE SMOOTH",
"185 426 OFFCURVE",
"217 455 OFFCURVE",
"265 455 CURVE SMOOTH",
"336 455 OFFCURVE",
"397 397 OFFCURVE",
"397 287 CURVE SMOOTH",
"397 159 OFFCURVE",
"326 71 OFFCURVE",
"199 71 CURVE SMOOTH",
"125 71 OFFCURVE",
"94 104 OFFCURVE",
"94 136 CURVE SMOOTH",
"94 167 OFFCURVE",
"117 196 OFFCURVE",
"169 196 CURVE SMOOTH",
"311 196 OFFCURVE",
"380 -14 OFFCURVE",
"528 -14 CURVE SMOOTH",
"641 -14 OFFCURVE",
"721 95 OFFCURVE",
"723 242 CURVE",
"721 415 OFFCURVE",
"625 513 OFFCURVE",
"556 513 CURVE SMOOTH",
"523 513 OFFCURVE",
"506 493 OFFCURVE",
"508 470 CURVE",
"506 451 OFFCURVE",
"518 435 OFFCURVE",
"536 430 CURVE",
"557 423 OFFCURVE",
"578 428 OFFCURVE",
"604 420 CURVE",
"639 407 OFFCURVE",
"686 344 OFFCURVE",
"688 255 CURVE",
"686 137 OFFCURVE",
"616 71 OFFCURVE",
"530 71 CURVE SMOOTH",
"381 71 OFFCURVE",
"312 231 OFFCURVE",
"168 231 CURVE SMOOTH",
"92 231 OFFCURVE",
"40 187 OFFCURVE",
"40 116 CURVE SMOOTH",
"40 46 OFFCURVE",
"100 -14 OFFCURVE",
"194 -14 CURVE SMOOTH"
);
}
);
width = 778;
},
{
associatedMasterId = "034236B8-3FA8-43DA-9EDA-EFF269A687EC";
layerId = "D6E0259D-88FF-445B-AE63-115C229FBC8F";
name = "Regular Nov 2 15, 17:16";
paths = (
{
closed = 1;
nodes = (
"698 92 OFFCURVE",
"626 -14 OFFCURVE",
"503 -14 CURVE SMOOTH",
"387 -14 OFFCURVE",
"326 167 OFFCURVE",
"209 167 CURVE SMOOTH",
"161 167 OFFCURVE",
"122 144 OFFCURVE",
"122 118 CURVE",
"122 93 OFFCURVE",
"154 79 OFFCURVE",
"194 79 CURVE SMOOTH",
"310 79 OFFCURVE",
"369 137 OFFCURVE",
"369 254 CURVE SMOOTH",
"369 344 OFFCURVE",
"318 409 OFFCURVE",
"256 409 CURVE SMOOTH",
"219 409 OFFCURVE",
"189 384 OFFCURVE",
"189 352 CURVE SMOOTH",
"189 323 OFFCURVE",
"203 301 OFFCURVE",
"220 301 CURVE",
"211 308 OFFCURVE",
"206 319 OFFCURVE",
"206 331 CURVE SMOOTH",
"206 351 OFFCURVE",
"224 367 OFFCURVE",
"245 367 CURVE SMOOTH",
"269 367 OFFCURVE",
"286 350 OFFCURVE",
"286 326 CURVE SMOOTH",
"286 301 OFFCURVE",
"262 280 OFFCURVE",
"230 280 CURVE SMOOTH",
"188 280 OFFCURVE",
"153 319 OFFCURVE",
"153 367 CURVE SMOOTH",
"153 421 OFFCURVE",
"197 465 OFFCURVE",
"250 465 CURVE SMOOTH",
"336 465 OFFCURVE",
"405 386 OFFCURVE",
"405 244 CURVE SMOOTH",
"405 146 OFFCURVE",
"328 -14 OFFCURVE",
"194 -14 CURVE SMOOTH",
"120 -14 OFFCURVE",
"60 33 OFFCURVE",
"60 89 CURVE",
"60 148 OFFCURVE",
"127 198 OFFCURVE",
"209 198 CURVE SMOOTH",
"316 198 OFFCURVE",
"383 79 OFFCURVE",
"503 79 CURVE SMOOTH",
"582 79 OFFCURVE",
"657 124 OFFCURVE",
"657 243 CURVE",
"657 383 OFFCURVE",
"576 512 OFFCURVE",
"474 512 CURVE SMOOTH",
"465 512 OFFCURVE",
"457 509 OFFCURVE",
"450 506 CURVE SMOOTH",
"444 504 OFFCURVE",
"438 501 OFFCURVE",
"431 501 CURVE SMOOTH",
"419 501 OFFCURVE",
"410 511 OFFCURVE",
"410 522 CURVE SMOOTH",
"410 546 OFFCURVE",
"438 563 OFFCURVE",
"472 563 CURVE SMOOTH",
"550 563 OFFCURVE",
"698 444 OFFCURVE",
"698 223 CURVE"
);
}
);
width = 698;
},
{
associatedMasterId = "034236B8-3FA8-43DA-9EDA-EFF269A687EC";
layerId = "16A2C33D-AFAE-47CB-AF6F-98191B6DF76D";
name = "Regular Nov 18 15, 11:36";
paths = (
{
closed = 1;
nodes = (
"385 146 OFFCURVE",
"308 -14 OFFCURVE",
"174 -14 CURVE SMOOTH",
"100 -14 OFFCURVE",
"40 33 OFFCURVE",
"40 94 CURVE",
"40 148 OFFCURVE",
"87 198 OFFCURVE",
"179 198 CURVE SMOOTH",
"296 198 OFFCURVE",
"363 79 OFFCURVE",
"483 79 CURVE SMOOTH",
"562 79 OFFCURVE",
"637 124 OFFCURVE",
"637 243 CURVE",
"637 383 OFFCURVE",
"556 512 OFFCURVE",
"454 512 CURVE SMOOTH",
"445 512 OFFCURVE",
"437 509 OFFCURVE",
"430 506 CURVE SMOOTH",
"424 504 OFFCURVE",
"418 501 OFFCURVE",
"411 501 CURVE SMOOTH",
"399 501 OFFCURVE",
"390 511 OFFCURVE",
"390 522 CURVE SMOOTH",
"390 546 OFFCURVE",
"418 563 OFFCURVE",
"452 563 CURVE SMOOTH",
"530 563 OFFCURVE",
"678 444 OFFCURVE",
"678 243 CURVE",
"678 92 OFFCURVE",
"606 -14 OFFCURVE",
"483 -14 CURVE SMOOTH",
"367 -14 OFFCURVE",
"306 167 OFFCURVE",
"179 167 CURVE SMOOTH",
"129 167 OFFCURVE",
"102 144 OFFCURVE",
"102 118 CURVE",
"102 93 OFFCURVE",
"124 79 OFFCURVE",
"179 79 CURVE SMOOTH",
"289 79 OFFCURVE",
"349 137 OFFCURVE",
"349 254 CURVE",
"349 344 OFFCURVE",
"298 409 OFFCURVE",
"236 409 CURVE SMOOTH",
"199 409 OFFCURVE",
"169 384 OFFCURVE",
"169 352 CURVE",
"169 338 OFFCURVE",
"175 318 OFFCURVE",
"186 318 CURVE SMOOTH",
"188 318 OFFCURVE",
"189 319 OFFCURVE",
"189 324 CURVE SMOOTH",
"189 350 OFFCURVE",
"204 368 OFFCURVE",
"228 368 CURVE SMOOTH",
"252 368 OFFCURVE",
"270 348 OFFCURVE",
"270 323 CURVE SMOOTH",
"270 300 OFFCURVE",
"249 274 OFFCURVE",
"211 274 CURVE SMOOTH",
"159 274 OFFCURVE",
"133 320 OFFCURVE",
"133 367 CURVE",
"133 421 OFFCURVE",
"177 465 OFFCURVE",
"230 465 CURVE SMOOTH",
"316 465 OFFCURVE",
"385 386 OFFCURVE",
"385 244 CURVE"
);
}
);
width = 728;
}
);
unicode = 0C96;
},
{
color = 3;
glyphname = knGA;
lastChange = "2015-12-30 17:55:29 +0000";
layers = (
{
background = {
paths = (
{
closed = 1;
nodes = (
"231 449 LINE",
"128 388 OFFCURVE",
"65 247 OFFCURVE",
"65 71 CURVE SMOOTH",
"65 0 LINE",
"143 0 LINE",
"143 118 LINE SMOOTH",
"143 317 OFFCURVE",
"217 438 OFFCURVE",
"302 438 CURVE SMOOTH",
"387 438 OFFCURVE",
"461 317 OFFCURVE",
"461 118 CURVE SMOOTH",
"461 0 LINE",
"539 0 LINE",
"539 71 LINE SMOOTH",
"539 247 OFFCURVE",
"476 388 OFFCURVE",
"373 449 CURVE",
"302 465 LINE"
);
},
{
closed = 1;
nodes = (
"444 644 LINE",
"468 635 OFFCURVE",
"490 610 OFFCURVE",
"490 576 CURVE SMOOTH",
"490 536 OFFCURVE",
"459 509 OFFCURVE",
"398 509 CURVE SMOOTH",
"77 509 LINE",
"77 434 LINE",
"237 434 LINE",
"302 444 LINE",
"368 434 LINE",
"398 434 LINE SMOOTH",
"479 434 OFFCURVE",
"533 480 OFFCURVE",
"533 552 CURVE SMOOTH",
"533 607 OFFCURVE",
"502 648 OFFCURVE",
"459 664 CURVE"
);
}
);
};
guideLines = (
{
angle = 270;
position = "{60, -78}";
}
);
layerId = "034236B8-3FA8-43DA-9EDA-EFF269A687EC";
name = Regular;
paths = (
{
closed = 1;
nodes = (
"143 0 LINE",
"143 78 LINE SMOOTH",
"143 247 OFFCURVE",
"197 438 OFFCURVE",
"302 438 CURVE SMOOTH",
"407 438 OFFCURVE",
"461 247 OFFCURVE",
"461 78 CURVE SMOOTH",
"461 0 LINE",
"539 0 LINE",
"539 51 LINE SMOOTH",
"539 186 OFFCURVE",
"476 388 OFFCURVE",
"373 449 CURVE",
"302 465 LINE",
"231 449 LINE",
"128 388 OFFCURVE",
"65 186 OFFCURVE",
"65 51 CURVE SMOOTH",
"65 0 LINE"
);
},
{
closed = 1;
nodes = (
"237 434 LINE",
"302 444 LINE",
"368 434 LINE",
"398 434 LINE SMOOTH",
"479 434 OFFCURVE",
"533 480 OFFCURVE",
"533 552 CURVE SMOOTH",
"533 607 OFFCURVE",
"502 648 OFFCURVE",
"459 664 CURVE",
"444 644 LINE",
"468 635 OFFCURVE",
"490 610 OFFCURVE",
"490 576 CURVE SMOOTH",
"490 536 OFFCURVE",
"459 509 OFFCURVE",
"398 509 CURVE SMOOTH",
"77 509 LINE",
"77 434 LINE"
);
}
);
width = 604;
}
);
unicode = 0C97;
},
{
color = 3;
glyphname = knGHA;
lastChange = "2015-12-16 17:45:47 +0000";
layers = (
{
background = {
paths = (
{
closed = 1;
nodes = (
"309 390 OFFCURVE",
"284 363 OFFCURVE",
"284 331 CURVE SMOOTH",
"284 298 OFFCURVE",
"309 271 OFFCURVE",
"343 271 CURVE SMOOTH",
"376 271 OFFCURVE",
"403 298 OFFCURVE",
"403 331 CURVE SMOOTH",
"403 363 OFFCURVE",
"376 390 OFFCURVE",
"343 390 CURVE SMOOTH"
);
},
{
closed = 1;
nodes = (
"691 472 LINE",
"726 447 OFFCURVE",
"757 401 OFFCURVE",
"757 358 CURVE SMOOTH",
"757 321 OFFCURVE",
"738 294 OFFCURVE",
"704 294 CURVE SMOOTH",
"653 294 OFFCURVE",
"601 368 OFFCURVE",
"585 390 CURVE",
"562 372 LINE",
"599 288 OFFCURVE",
"667 211 OFFCURVE",
"723 211 CURVE SMOOTH",
"779 211 OFFCURVE",
"806 253 OFFCURVE",
"806 323 CURVE SMOOTH",
"806 401 OFFCURVE",
"761 457 OFFCURVE",
"706 490 CURVE"
);
},
{
closed = 1;
nodes = (
"326 145 OFFCURVE",
"261 71 OFFCURVE",
"186 71 CURVE",
"135 71 OFFCURVE",
"103 114 OFFCURVE",
"103 156 CURVE SMOOTH",
"103 203 OFFCURVE",
"129 227 OFFCURVE",
"166 227 CURVE SMOOTH",
"196 227 OFFCURVE",
"221 217 OFFCURVE",
"232 193 CURVE",
"248 208 LINE",
"235 250 OFFCURVE",
"211 287 OFFCURVE",
"163 287 CURVE",
"103 287 OFFCURVE",
"60 232 OFFCURVE",
"60 143 CURVE SMOOTH",
"60 56 OFFCURVE",
"94 -14 OFFCURVE",
"183 -14 CURVE",
"251 -14 OFFCURVE",
"321 43 OFFCURVE",
"344 126 CURVE",
"346 126 LINE",
"369 43 OFFCURVE",
"438 -14 OFFCURVE",
"506 -14 CURVE SMOOTH",
"598 -14 OFFCURVE",
"635 84 OFFCURVE",
"635 174 CURVE SMOOTH",
"635 252 OFFCURVE",
"618 355 OFFCURVE",
"585 390 CURVE",
"562 372 LINE",
"580 330 OFFCURVE",
"597 260 OFFCURVE",
"597 202 CURVE SMOOTH",
"597 141 OFFCURVE",
"569 71 OFFCURVE",
"493 71 CURVE SMOOTH",
"428 71 OFFCURVE",
"363 145 OFFCURVE",
"349 221 CURVE",
"340 221 LINE"
);
},
{
closed = 1;
nodes = (
"407 -90 OFFCURVE",
"365 -34 OFFCURVE",
"352 46 CURVE",
"334 46 LINE",
"322 -34 OFFCURVE",
"278 -90 OFFCURVE",
"278 -131 CURVE SMOOTH",
"278 -180 OFFCURVE",
"316 -200 OFFCURVE",
"343 -200 CURVE",
"367 -200 OFFCURVE",
"407 -184 OFFCURVE",
"407 -131 CURVE SMOOTH"
);
},
{
closed = 1;
nodes = (
"597 644 LINE",
"621 635 OFFCURVE",
"643 610 OFFCURVE",
"643 576 CURVE SMOOTH",
"643 536 OFFCURVE",
"612 509 OFFCURVE",
"551 509 CURVE SMOOTH",
"60 509 LINE",
"60 434 LINE",
"551 434 LINE SMOOTH",
"632 434 OFFCURVE",
"686 480 OFFCURVE",
"686 552 CURVE SMOOTH",
"686 607 OFFCURVE",
"655 648 OFFCURVE",
"612 664 CURVE"
);
}
);
};
guideLines = (
{
angle = 270;
position = "{60, -78}";
}
);
layerId = "034236B8-3FA8-43DA-9EDA-EFF269A687EC";
name = Regular;
paths = (
{
closed = 1;
nodes = (
"251 -14 OFFCURVE",
"321 43 OFFCURVE",
"344 126 CURVE",
"346 126 LINE",
"369 43 OFFCURVE",
"438 -14 OFFCURVE",
"506 -14 CURVE SMOOTH",
"598 -14 OFFCURVE",
"635 84 OFFCURVE",
"635 174 CURVE SMOOTH",
"635 251 OFFCURVE",
"618 335 OFFCURVE",
"585 390 CURVE",
"562 372 LINE",
"582 330 OFFCURVE",
"599 270 OFFCURVE",
"599 202 CURVE SMOOTH",
"599 141 OFFCURVE",
"569 71 OFFCURVE",
"493 71 CURVE SMOOTH",
"428 71 OFFCURVE",
"363 145 OFFCURVE",
"349 221 CURVE",
"340 221 LINE",
"326 145 OFFCURVE",
"261 71 OFFCURVE",
"186 71 CURVE SMOOTH",
"135 71 OFFCURVE",
"100 104 OFFCURVE",
"100 156 CURVE SMOOTH",
"100 201 OFFCURVE",
"129 227 OFFCURVE",
"166 227 CURVE SMOOTH",
"196 227 OFFCURVE",
"221 217 OFFCURVE",
"232 193 CURVE",
"248 208 LINE",
"235 250 OFFCURVE",
"211 287 OFFCURVE",
"163 287 CURVE SMOOTH",
"103 287 OFFCURVE",
"60 232 OFFCURVE",
"60 143 CURVE SMOOTH",
"60 56 OFFCURVE",
"109 -14 OFFCURVE",
"183 -14 CURVE SMOOTH"
);
},
{
closed = 1;
nodes = (
"370 -220 OFFCURVE",
"395 -201 OFFCURVE",
"395 -161 CURVE SMOOTH",
"395 -117 OFFCURVE",
"366 -104 OFFCURVE",
"352 16 CURVE",
"336 16 LINE",
"323 -104 OFFCURVE",
"292 -117 OFFCURVE",
"292 -161 CURVE SMOOTH",
"292 -197 OFFCURVE",
"317 -220 OFFCURVE",
"344 -220 CURVE SMOOTH"
);
},
{
closed = 1;
nodes = (
"376 271 OFFCURVE",
"403 298 OFFCURVE",
"403 331 CURVE SMOOTH",
"403 363 OFFCURVE",
"376 390 OFFCURVE",
"343 390 CURVE SMOOTH",
"309 390 OFFCURVE",
"284 363 OFFCURVE",
"284 331 CURVE SMOOTH",
"284 298 OFFCURVE",
"309 271 OFFCURVE",
"343 271 CURVE SMOOTH"
);
},
{
closed = 1;
nodes = (
"551 434 LINE SMOOTH",
"632 434 OFFCURVE",
"686 480 OFFCURVE",
"686 552 CURVE SMOOTH",
"686 607 OFFCURVE",
"655 648 OFFCURVE",
"612 664 CURVE",
"597 644 LINE",
"621 635 OFFCURVE",
"643 610 OFFCURVE",
"643 576 CURVE SMOOTH",
"643 536 OFFCURVE",
"612 509 OFFCURVE",
"551 509 CURVE SMOOTH",
"60 509 LINE",
"60 434 LINE"
);
},
{
closed = 1;
nodes = (
"766 201 OFFCURVE",
"806 248 OFFCURVE",
"806 308 CURVE SMOOTH",
"806 362 OFFCURVE",
"777 411 OFFCURVE",
"715 449 CURVE",
"696 429 LINE",
"739 399 OFFCURVE",
"757 367 OFFCURVE",
"757 337 CURVE SMOOTH",
"757 301 OFFCURVE",
"736 275 OFFCURVE",
"703 275 CURVE SMOOTH",
"662 275 OFFCURVE",
"629 298 OFFCURVE",
"585 390 CURVE",
"579 372 LINE",
"619 228 OFFCURVE",
"660 201 OFFCURVE",
"716 201 CURVE SMOOTH"
);
}
);
width = 831;
}
);
unicode = 0C98;
},
{
color = 3;
glyphname = knNGA;
lastChange = "2015-12-16 18:04:59 +0000";
layers = (
{
background = {
paths = (
{
closed = 1;
nodes = (
"331 371 OFFCURVE",
"354 395 OFFCURVE",
"384 395 CURVE SMOOTH",
"414 395 OFFCURVE",
"437 371 OFFCURVE",
"437 341 CURVE SMOOTH",
"437 312 OFFCURVE",
"414 288 OFFCURVE",
"384 288 CURVE SMOOTH",
"354 288 OFFCURVE",
"331 312 OFFCURVE",
"331 341 CURVE SMOOTH"
);
},
{
closed = 1;
nodes = (
"365 536 OFFCURVE",
"273 438 OFFCURVE",
"221 346 CURVE",
"226 307 LINE",
"292 393 OFFCURVE",
"370 467 OFFCURVE",
"467 467 CURVE SMOOTH",
"531 467 OFFCURVE",
"572 430 OFFCURVE",
"572 376 CURVE SMOOTH",
"572 355 OFFCURVE",
"566 337 OFFCURVE",
"552 324 CURVE",
"571 308 LINE",
"597 325 OFFCURVE",
"615 356 OFFCURVE",
"615 402 CURVE SMOOTH",
"615 472 OFFCURVE",
"566 536 OFFCURVE",
"482 536 CURVE SMOOTH"
);
},
{
closed = 1;
nodes = (
"640 185 OFFCURVE",
"613 220 OFFCURVE",
"582 250 CURVE",
"556 233 LINE",
"578 209 OFFCURVE",
"590 184 OFFCURVE",
"590 154 CURVE",
"590 116 OFFCURVE",
"567 71 OFFCURVE",
"509 71 CURVE SMOOTH",
"436 71 OFFCURVE",
"370 146 OFFCURVE",
"357 221 CURVE",
"348 221 LINE",
"334 145 OFFCURVE",
"269 71 OFFCURVE",
"196 71 CURVE SMOOTH",
"143 71 OFFCURVE",
"116 114 OFFCURVE",
"116 156 CURVE",
"116 187 OFFCURVE",
"146 219 OFFCURVE",
"178 253 CURVE SMOOTH",
"218 294 OFFCURVE",
"263 340 OFFCURVE",
"263 399 CURVE SMOOTH",
"263 473 OFFCURVE",
"205 519 OFFCURVE",
"139 519 CURVE SMOOTH",
"81 519 OFFCURVE",
"22 485 OFFCURVE",
"22 416 CURVE SMOOTH",
"22 384 OFFCURVE",
"33 352 OFFCURVE",
"54 330 CURVE",
"85 350 LINE",
"77 365 OFFCURVE",
"75 377 OFFCURVE",
"75 388 CURVE SMOOTH",
"75 425 OFFCURVE",
"100 452 OFFCURVE",
"139 452 CURVE SMOOTH",
"176 452 OFFCURVE",
"210 427 OFFCURVE",
"210 385 CURVE SMOOTH",
"210 344 OFFCURVE",
"179 311 OFFCURVE",
"147 278 CURVE SMOOTH",
"108 238 OFFCURVE",
"65 193 OFFCURVE",
"65 125 CURVE",
"65 38 OFFCURVE",
"126 -14 OFFCURVE",
"193 -14 CURVE SMOOTH",
"261 -14 OFFCURVE",
"329 43 OFFCURVE",
"352 126 CURVE",
"354 126 LINE",
"377 43 OFFCURVE",
"445 -14 OFFCURVE",
"513 -14 CURVE SMOOTH",
"579 -14 OFFCURVE",
"640 38 OFFCURVE",
"640 125 CURVE"
);
}
);
};
layerId = "034236B8-3FA8-43DA-9EDA-EFF269A687EC";
name = Regular;
paths = (
{
closed = 1;
nodes = (
"261 -14 OFFCURVE",
"329 43 OFFCURVE",
"352 126 CURVE",
"354 126 LINE",
"377 43 OFFCURVE",
"445 -14 OFFCURVE",
"513 -14 CURVE SMOOTH",
"579 -14 OFFCURVE",
"640 38 OFFCURVE",
"640 125 CURVE SMOOTH",
"640 172 OFFCURVE",
"611 222 OFFCURVE",
"577 251 CURVE",
"556 236 LINE",
"580 212 OFFCURVE",
"592 183 OFFCURVE",
"592 154 CURVE SMOOTH",
"592 116 OFFCURVE",
"567 71 OFFCURVE",
"509 71 CURVE SMOOTH",
"436 71 OFFCURVE",
"370 146 OFFCURVE",
"357 221 CURVE",
"348 221 LINE",
"334 145 OFFCURVE",
"269 71 OFFCURVE",
"196 71 CURVE SMOOTH",
"143 71 OFFCURVE",
"116 114 OFFCURVE",
"116 156 CURVE SMOOTH",
"116 187 OFFCURVE",
"140 223 OFFCURVE",
"174 257 CURVE SMOOTH",
"215 298 OFFCURVE",
"263 349 OFFCURVE",
"263 399 CURVE SMOOTH",
"263 465 OFFCURVE",
"215 519 OFFCURVE",
"139 519 CURVE SMOOTH",
"64 519 OFFCURVE",
"25 465 OFFCURVE",
"25 413 CURVE SMOOTH",
"25 381 OFFCURVE",
"33 352 OFFCURVE",
"54 330 CURVE",
"74 345 LINE",
"67 360 OFFCURVE",
"64 372 OFFCURVE",
"64 383 CURVE SMOOTH",
"64 421 OFFCURVE",
"87 452 OFFCURVE",
"139 452 CURVE SMOOTH",
"176 452 OFFCURVE",
"210 427 OFFCURVE",
"210 385 CURVE SMOOTH",
"210 344 OFFCURVE",
"179 311 OFFCURVE",
"147 278 CURVE SMOOTH",
"108 238 OFFCURVE",
"65 193 OFFCURVE",
"65 125 CURVE SMOOTH",
"65 38 OFFCURVE",
"126 -14 OFFCURVE",
"193 -14 CURVE SMOOTH"
);
},
{
closed = 1;
nodes = (
"414 278 OFFCURVE",
"437 302 OFFCURVE",
"437 331 CURVE SMOOTH",
"437 361 OFFCURVE",
"414 385 OFFCURVE",
"384 385 CURVE SMOOTH",
"354 385 OFFCURVE",
"331 361 OFFCURVE",
"331 331 CURVE SMOOTH",
"331 302 OFFCURVE",
"354 278 OFFCURVE",
"384 278 CURVE SMOOTH"
);
},
{
closed = 1;
nodes = (
"309 423 OFFCURVE",
"380 467 OFFCURVE",
"467 467 CURVE SMOOTH",
"531 467 OFFCURVE",
"572 430 OFFCURVE",
"572 376 CURVE SMOOTH",
"572 355 OFFCURVE",
"564 337 OFFCURVE",
"552 324 CURVE",
"571 308 LINE",
"594 332 OFFCURVE",
"615 360 OFFCURVE",
"615 402 CURVE SMOOTH",
"615 472 OFFCURVE",
"566 536 OFFCURVE",
"482 536 CURVE SMOOTH",
"373 536 OFFCURVE",
"273 438 OFFCURVE",
"221 346 CURVE",
"221 307 LINE"
);
}
);
width = 680;
}
);
unicode = 0C99;
},
{
color = 3;
glyphname = knCA;
lastChange = "2015-12-16 18:05:00 +0000";
layers = (
{
background = {
paths = (
{
closed = 1;
nodes = (
"375 365 LINE",
"375 294 LINE",
"651 294 LINE",
"651 365 LINE"
);
},
{
closed = 1;
nodes = (
"495 448 LINE",
"548 425 OFFCURVE",
"548 365 OFFCURVE",
"495 342 CURVE",
"510 309 LINE",
"592 344 OFFCURVE",
"592 447 OFFCURVE",
"510 482 CURVE"
);
},
{
closed = 1;
nodes = (
"640 225 OFFCURVE",
"594 311 OFFCURVE",
"510 327 CURVE",
"491 310 LINE",
"551 287 OFFCURVE",
"590 244 OFFCURVE",
"590 167 CURVE SMOOTH",
"590 116 OFFCURVE",
"567 71 OFFCURVE",
"509 71 CURVE SMOOTH",
"436 71 OFFCURVE",
"370 146 OFFCURVE",
"357 221 CURVE",
"348 221 LINE",
"334 145 OFFCURVE",
"269 71 OFFCURVE",
"196 71 CURVE SMOOTH",
"143 71 OFFCURVE",
"116 104 OFFCURVE",
"116 146 CURVE",
"116 187 OFFCURVE",
"146 217 OFFCURVE",
"178 251 CURVE SMOOTH",
"218 292 OFFCURVE",
"263 338 OFFCURVE",
"263 399 CURVE SMOOTH",
"263 471 OFFCURVE",
"204 519 OFFCURVE",
"139 519 CURVE SMOOTH",
"81 519 OFFCURVE",
"22 483 OFFCURVE",
"22 416 CURVE SMOOTH",
"22 384 OFFCURVE",
"33 350 OFFCURVE",
"54 328 CURVE",
"85 348 LINE",
"77 363 OFFCURVE",
"74 376 OFFCURVE",
"74 387 CURVE SMOOTH",
"74 424 OFFCURVE",
"100 450 OFFCURVE",
"139 450 CURVE SMOOTH",
"176 450 OFFCURVE",
"210 427 OFFCURVE",
"210 385 CURVE SMOOTH",
"210 342 OFFCURVE",
"179 309 OFFCURVE",
"147 276 CURVE SMOOTH",
"108 236 OFFCURVE",
"65 194 OFFCURVE",
"65 125 CURVE",
"65 39 OFFCURVE",
"127 -14 OFFCURVE",
"193 -14 CURVE SMOOTH",
"262 -14 OFFCURVE",
"329 43 OFFCURVE",
"352 126 CURVE",
"354 126 LINE",
"377 43 OFFCURVE",
"446 -14 OFFCURVE",
"513 -14 CURVE SMOOTH",
"580 -14 OFFCURVE",
"640 38 OFFCURVE",
"640 145 CURVE SMOOTH"
);
},
{
closed = 1;
nodes = (
"573 644 LINE",
"597 635 OFFCURVE",
"619 610 OFFCURVE",
"619 576 CURVE SMOOTH",
"619 536 OFFCURVE",
"588 509 OFFCURVE",
"527 509 CURVE SMOOTH",
"375 509 LINE",
"375 434 LINE",
"527 434 LINE SMOOTH",
"608 434 OFFCURVE",
"662 480 OFFCURVE",
"662 552 CURVE SMOOTH",
"662 607 OFFCURVE",
"631 648 OFFCURVE",
"588 664 CURVE"
);
}
);
};
layerId = "034236B8-3FA8-43DA-9EDA-EFF269A687EC";
name = Regular;
paths = (
{
closed = 1;
nodes = (
"261 -14 OFFCURVE",
"329 43 OFFCURVE",
"352 126 CURVE",
"354 126 LINE",
"377 43 OFFCURVE",
"445 -14 OFFCURVE",
"513 -14 CURVE SMOOTH",
"579 -14 OFFCURVE",
"640 38 OFFCURVE",
"640 125 CURVE SMOOTH",
"640 195 OFFCURVE",
"594 311 OFFCURVE",
"510 327 CURVE",
"491 310 LINE",
"551 287 OFFCURVE",
"592 221 OFFCURVE",
"592 154 CURVE SMOOTH",
"592 116 OFFCURVE",
"567 71 OFFCURVE",
"509 71 CURVE SMOOTH",
"436 71 OFFCURVE",
"370 146 OFFCURVE",
"357 221 CURVE",
"348 221 LINE",
"334 145 OFFCURVE",
"269 71 OFFCURVE",
"196 71 CURVE SMOOTH",
"143 71 OFFCURVE",
"116 114 OFFCURVE",
"116 156 CURVE SMOOTH",
"116 187 OFFCURVE",
"141 223 OFFCURVE",
"174 257 CURVE SMOOTH",
"214 298 OFFCURVE",
"263 349 OFFCURVE",
"263 399 CURVE SMOOTH",
"263 465 OFFCURVE",
"215 519 OFFCURVE",
"139 519 CURVE SMOOTH",
"64 519 OFFCURVE",
"25 465 OFFCURVE",
"25 413 CURVE SMOOTH",
"25 381 OFFCURVE",
"33 352 OFFCURVE",
"54 330 CURVE",
"74 345 LINE",
"67 360 OFFCURVE",
"64 372 OFFCURVE",
"64 383 CURVE SMOOTH",
"64 421 OFFCURVE",
"87 452 OFFCURVE",
"139 452 CURVE SMOOTH",
"176 452 OFFCURVE",
"210 427 OFFCURVE",
"210 385 CURVE SMOOTH",
"210 344 OFFCURVE",
"179 311 OFFCURVE",
"147 278 CURVE SMOOTH",
"108 238 OFFCURVE",
"65 193 OFFCURVE",
"65 125 CURVE SMOOTH",
"65 38 OFFCURVE",
"126 -14 OFFCURVE",
"193 -14 CURVE SMOOTH"
);
},
{
closed = 1;
nodes = (
"651 294 LINE",
"651 365 LINE",
"375 365 LINE",
"375 294 LINE"
);
},
{
closed = 1;
nodes = (
"551 331 OFFCURVE",
"569 363 OFFCURVE",
"569 396 CURVE SMOOTH",
"569 429 OFFCURVE",
"542 462 OFFCURVE",
"510 479 CURVE",
"495 448 LINE",
"522 437 OFFCURVE",
"535 416 OFFCURVE",
"535 395 CURVE SMOOTH",
"535 374 OFFCURVE",
"522 354 OFFCURVE",
"495 342 CURVE",
"510 313 LINE"
);
},
{
closed = 1;
nodes = (
"527 434 LINE SMOOTH",
"608 434 OFFCURVE",
"662 480 OFFCURVE",
"662 552 CURVE SMOOTH",
"662 607 OFFCURVE",
"631 648 OFFCURVE",
"588 664 CURVE",
"573 644 LINE",
"597 635 OFFCURVE",
"619 610 OFFCURVE",
"619 576 CURVE SMOOTH",
"619 536 OFFCURVE",
"588 509 OFFCURVE",
"527 509 CURVE SMOOTH",
"375 509 LINE",
"375 434 LINE"
);
}
);
width = 707;
}
);
unicode = 0C9A;
},
{
color = 3;
glyphname = knCHA;
lastChange = "2015-12-16 18:05:01 +0000";
layers = (
{
background = {
paths = (
{
closed = 1;
nodes = (
"128 519 OFFCURVE",
"56 374 OFFCURVE",
"56 253 CURVE",
"56 97 OFFCURVE",
"142 -14 OFFCURVE",
"248 -14 CURVE",
"318 -14 OFFCURVE",
"386 43 OFFCURVE",
"409 126 CURVE",
"411 126 LINE",
"434 43 OFFCURVE",
"502 -14 OFFCURVE",
"572 -14 CURVE",
"683 -14 OFFCURVE",
"745 78 OFFCURVE",
"745 224 CURVE SMOOTH",
"745 426 OFFCURVE",
"621 509 OFFCURVE",
"488 509 CURVE",
"528 434 LINE",
"657 434 OFFCURVE",
"704 362 OFFCURVE",
"704 237 CURVE SMOOTH",
"704 168 OFFCURVE",
"664 71 OFFCURVE",
"566 71 CURVE",
"493 71 OFFCURVE",
"427 146 OFFCURVE",
"414 221 CURVE",
"405 221 LINE",
"391 145 OFFCURVE",
"326 71 OFFCURVE",
"243 71 CURVE",
"147 71 OFFCURVE",
"104 178 OFFCURVE",
"104 264 CURVE",
"104 367 OFFCURVE",
"142 454 OFFCURVE",
"235 454 CURVE",
"273 454 OFFCURVE",
"307 440 OFFCURVE",
"307 401 CURVE SMOOTH",
"307 365 OFFCURVE",
"279 344 OFFCURVE",
"232 344 CURVE SMOOTH",
"190 344 OFFCURVE",
"162 362 OFFCURVE",
"162 408 CURVE SMOOTH",
"162 419 OFFCURVE",
"163 440 OFFCURVE",
"166 450 CURVE",
"177 475 OFFCURVE",
"172 481 OFFCURVE",
"157 477 CURVE",
"136 429 LINE",
"133 407 OFFCURVE",
"132 394 OFFCURVE",
"132 381 CURVE SMOOTH",
"132 308 OFFCURVE",
"174 273 OFFCURVE",
"232 273 CURVE SMOOTH",
"295 273 OFFCURVE",
"337 325 OFFCURVE",
"337 391 CURVE SMOOTH",
"337 457 OFFCURVE",
"301 519 OFFCURVE",
"230 519 CURVE SMOOTH"
);
},
{
closed = 1;
nodes = (
"400 46 LINE",
"389 -34 OFFCURVE",
"345 -90 OFFCURVE",
"345 -131 CURVE SMOOTH",
"345 -180 OFFCURVE",
"383 -200 OFFCURVE",
"409 -200 CURVE",
"434 -200 OFFCURVE",
"474 -184 OFFCURVE",
"474 -131 CURVE SMOOTH",
"474 -90 OFFCURVE",
"431 -34 OFFCURVE",
"419 46 CURVE"
);
},
{
closed = 1;
nodes = (
"657 644 LINE",
"681 635 OFFCURVE",
"703 610 OFFCURVE",
"703 576 CURVE SMOOTH",
"703 536 OFFCURVE",
"672 509 OFFCURVE",
"611 509 CURVE SMOOTH",
"450 509 LINE",
"450 434 LINE",
"611 434 LINE SMOOTH",
"692 434 OFFCURVE",
"746 480 OFFCURVE",
"746 552 CURVE SMOOTH",
"746 607 OFFCURVE",
"715 648 OFFCURVE",
"672 664 CURVE"
);
}
);
};
layerId = "034236B8-3FA8-43DA-9EDA-EFF269A687EC";
name = Regular;
paths = (
{
closed = 1;
nodes = (
"318 -14 OFFCURVE",
"386 43 OFFCURVE",
"409 126 CURVE",
"411 126 LINE",
"434 43 OFFCURVE",
"502 -14 OFFCURVE",
"572 -14 CURVE SMOOTH",
"683 -14 OFFCURVE",
"745 78 OFFCURVE",
"745 224 CURVE SMOOTH",
"745 416 OFFCURVE",
"591 509 OFFCURVE",
"458 509 CURVE",
"498 434 LINE",
"627 434 OFFCURVE",
"706 372 OFFCURVE",
"706 237 CURVE SMOOTH",
"706 158 OFFCURVE",
"664 71 OFFCURVE",
"566 71 CURVE SMOOTH",
"493 71 OFFCURVE",
"427 146 OFFCURVE",
"414 221 CURVE",
"405 221 LINE",
"391 145 OFFCURVE",
"323 71 OFFCURVE",
"248 71 CURVE SMOOTH",
"157 71 OFFCURVE",
"100 149 OFFCURVE",
"100 272 CURVE SMOOTH",
"100 365 OFFCURVE",
"142 454 OFFCURVE",
"235 454 CURVE SMOOTH",
"273 454 OFFCURVE",
"307 440 OFFCURVE",
"307 401 CURVE SMOOTH",
"307 365 OFFCURVE",
"279 344 OFFCURVE",
"232 344 CURVE SMOOTH",
"190 344 OFFCURVE",
"159 365 OFFCURVE",
"159 408 CURVE SMOOTH",
"159 419 OFFCURVE",
"163 440 OFFCURVE",
"166 450 CURVE",
"177 475 OFFCURVE",
"172 501 OFFCURVE",
"157 497 CURVE",
"135 429 LINE",
"132 407 OFFCURVE",
"131 394 OFFCURVE",
"131 381 CURVE SMOOTH",
"131 308 OFFCURVE",
"174 273 OFFCURVE",
"232 273 CURVE SMOOTH",
"295 273 OFFCURVE",
"337 325 OFFCURVE",
"337 391 CURVE SMOOTH",
"337 457 OFFCURVE",
"301 519 OFFCURVE",
"230 519 CURVE SMOOTH",
"128 519 OFFCURVE",
"60 392 OFFCURVE",
"60 261 CURVE SMOOTH",
"60 82 OFFCURVE",
"137 -14 OFFCURVE",
"248 -14 CURVE SMOOTH"
);
},
{
closed = 1;
nodes = (
"437 -220 OFFCURVE",
"462 -201 OFFCURVE",
"462 -161 CURVE SMOOTH",
"462 -117 OFFCURVE",
"433 -104 OFFCURVE",
"419 16 CURVE",
"403 16 LINE",
"390 -104 OFFCURVE",
"359 -117 OFFCURVE",
"359 -161 CURVE SMOOTH",
"359 -197 OFFCURVE",
"384 -220 OFFCURVE",
"411 -220 CURVE SMOOTH"
);
},
{
closed = 1;
nodes = (
"611 434 LINE SMOOTH",
"692 434 OFFCURVE",
"746 480 OFFCURVE",
"746 552 CURVE SMOOTH",
"746 607 OFFCURVE",
"715 648 OFFCURVE",
"672 664 CURVE",
"657 644 LINE",
"681 635 OFFCURVE",
"703 610 OFFCURVE",
"703 576 CURVE SMOOTH",
"703 536 OFFCURVE",
"672 509 OFFCURVE",
"611 509 CURVE SMOOTH",
"450 509 LINE",
"450 434 LINE"
);
}
);
width = 811;
}
);
unicode = 0C9B;
},
{
color = 3;
glyphname = knJA;
lastChange = "2015-12-16 18:05:03 +0000";
layers = (
{
background = {
paths = (
{
closed = 1;
nodes = (
"569 287 OFFCURVE",
"622 350 OFFCURVE",
"622 432 CURVE SMOOTH",
"622 477 OFFCURVE",
"599 510 OFFCURVE",
"563 536 CURVE",
"544 519 LINE",
"569 500 OFFCURVE",
"579 480 OFFCURVE",
"579 452 CURVE SMOOTH",
"579 396 OFFCURVE",
"531 356 OFFCURVE",
"457 356 CURVE SMOOTH",
"384 356 OFFCURVE",
"310 410 OFFCURVE",
"231 480 CURVE",
"196 477 LINE",
"272 396 OFFCURVE",
"354 287 OFFCURVE",
"477 287 CURVE SMOOTH"
);
},
{
closed = 1;
nodes = (
"640 185 OFFCURVE",
"613 220 OFFCURVE",
"582 250 CURVE",
"556 233 LINE",
"578 209 OFFCURVE",
"590 184 OFFCURVE",
"590 154 CURVE",
"590 116 OFFCURVE",
"567 71 OFFCURVE",
"509 71 CURVE SMOOTH",
"436 71 OFFCURVE",
"370 146 OFFCURVE",
"357 221 CURVE",
"348 221 LINE",
"334 145 OFFCURVE",
"269 71 OFFCURVE",
"196 71 CURVE SMOOTH",
"143 71 OFFCURVE",
"116 114 OFFCURVE",
"116 156 CURVE",
"116 187 OFFCURVE",
"146 219 OFFCURVE",
"178 253 CURVE SMOOTH",
"218 294 OFFCURVE",
"263 340 OFFCURVE",
"263 399 CURVE SMOOTH",
"263 473 OFFCURVE",
"205 519 OFFCURVE",
"139 519 CURVE SMOOTH",
"81 519 OFFCURVE",
"22 485 OFFCURVE",
"22 416 CURVE SMOOTH",
"22 384 OFFCURVE",
"33 352 OFFCURVE",
"54 330 CURVE",
"85 350 LINE",
"77 365 OFFCURVE",
"75 377 OFFCURVE",
"75 388 CURVE SMOOTH",
"75 425 OFFCURVE",
"100 452 OFFCURVE",
"139 452 CURVE SMOOTH",
"176 452 OFFCURVE",
"210 427 OFFCURVE",
"210 385 CURVE SMOOTH",
"210 344 OFFCURVE",
"179 311 OFFCURVE",
"147 278 CURVE SMOOTH",
"108 238 OFFCURVE",
"65 193 OFFCURVE",
"65 125 CURVE",
"65 38 OFFCURVE",
"126 -14 OFFCURVE",
"193 -14 CURVE SMOOTH",
"261 -14 OFFCURVE",
"329 43 OFFCURVE",
"352 126 CURVE",
"354 126 LINE",
"377 43 OFFCURVE",
"445 -14 OFFCURVE",
"513 -14 CURVE SMOOTH",
"579 -14 OFFCURVE",
"640 38 OFFCURVE",
"640 125 CURVE"
);
}
);
};
layerId = "034236B8-3FA8-43DA-9EDA-EFF269A687EC";
name = Regular;
paths = (
{
closed = 1;
nodes = (
"261 -14 OFFCURVE",
"329 43 OFFCURVE",
"352 126 CURVE",
"354 126 LINE",
"377 43 OFFCURVE",
"445 -14 OFFCURVE",
"513 -14 CURVE SMOOTH",
"579 -14 OFFCURVE",
"640 38 OFFCURVE",
"640 125 CURVE SMOOTH",
"640 172 OFFCURVE",
"611 222 OFFCURVE",
"577 251 CURVE",
"556 236 LINE",
"580 212 OFFCURVE",
"592 183 OFFCURVE",
"592 154 CURVE SMOOTH",
"592 116 OFFCURVE",
"567 71 OFFCURVE",
"509 71 CURVE SMOOTH",
"436 71 OFFCURVE",
"370 146 OFFCURVE",
"357 221 CURVE",
"348 221 LINE",
"334 145 OFFCURVE",
"269 71 OFFCURVE",
"196 71 CURVE SMOOTH",
"143 71 OFFCURVE",
"116 114 OFFCURVE",
"116 156 CURVE SMOOTH",
"116 187 OFFCURVE",
"140 223 OFFCURVE",
"174 257 CURVE SMOOTH",
"215 298 OFFCURVE",
"263 349 OFFCURVE",
"263 399 CURVE SMOOTH",
"263 465 OFFCURVE",
"215 519 OFFCURVE",
"139 519 CURVE SMOOTH",
"64 519 OFFCURVE",
"25 465 OFFCURVE",
"25 413 CURVE SMOOTH",
"25 381 OFFCURVE",
"33 352 OFFCURVE",
"54 330 CURVE",
"74 345 LINE",
"67 360 OFFCURVE",
"64 372 OFFCURVE",
"64 383 CURVE SMOOTH",
"64 421 OFFCURVE",
"87 452 OFFCURVE",
"139 452 CURVE SMOOTH",
"176 452 OFFCURVE",
"210 427 OFFCURVE",
"210 385 CURVE SMOOTH",
"210 344 OFFCURVE",
"179 311 OFFCURVE",
"147 278 CURVE SMOOTH",
"108 238 OFFCURVE",
"65 193 OFFCURVE",
"65 125 CURVE SMOOTH",
"65 38 OFFCURVE",
"126 -14 OFFCURVE",
"193 -14 CURVE SMOOTH"
);
},
{
closed = 1;
nodes = (
"529 287 OFFCURVE",
"582 339 OFFCURVE",
"582 414 CURVE SMOOTH",
"582 458 OFFCURVE",
"560 503 OFFCURVE",
"523 536 CURVE",
"504 519 LINE",
"529 494 OFFCURVE",
"540 469 OFFCURVE",
"540 443 CURVE SMOOTH",
"540 387 OFFCURVE",
"500 360 OFFCURVE",
"446 360 CURVE SMOOTH",
"380 360 OFFCURVE",
"310 393 OFFCURVE",
"231 480 CURVE",
"199 477 LINE",
"286 356 OFFCURVE",
"372 287 OFFCURVE",
"464 287 CURVE SMOOTH"
);
}
);
width = 680;
}
);
unicode = 0C9C;
},
{
color = 3;
glyphname = knJHA;
lastChange = "2015-12-16 17:45:47 +0000";
layers = (
{
background = {
paths = (
{
closed = 1;
nodes = (
"874 -90 OFFCURVE",
"832 -34 OFFCURVE",
"819 46 CURVE",
"801 46 LINE",
"789 -34 OFFCURVE",
"746 -90 OFFCURVE",
"746 -131 CURVE SMOOTH",
"746 -180 OFFCURVE",
"784 -200 OFFCURVE",
"810 -200 CURVE",
"834 -200 OFFCURVE",
"874 -184 OFFCURVE",
"874 -131 CURVE SMOOTH"
);
},
{
closed = 1;
nodes = (
"244 461 OFFCURVE",
"207 453 OFFCURVE",
"175 436 CURVE SMOOTH",
"101 398 OFFCURVE",
"55 315 OFFCURVE",
"55 226 CURVE SMOOTH",
"55 86 OFFCURVE",
"157 -14 OFFCURVE",
"285 -14 CURVE",
"413 -14 OFFCURVE",
"515 86 OFFCURVE",
"515 226 CURVE SMOOTH",
"515 315 OFFCURVE",
"469 398 OFFCURVE",
"395 436 CURVE SMOOTH",
"363 453 OFFCURVE",
"326 461 OFFCURVE",
"285 461 CURVE"
);
},
{
closed = 1;
nodes = (
"386 433 OFFCURVE",
"463 360 OFFCURVE",
"463 261 CURVE SMOOTH",
"463 161 OFFCURVE",
"396 71 OFFCURVE",
"285 71 CURVE",
"174 71 OFFCURVE",
"107 161 OFFCURVE",
"107 261 CURVE SMOOTH",
"107 360 OFFCURVE",
"184 433 OFFCURVE",
"285 433 CURVE"
);
},
{
closed = 1;
nodes = (
"426 644 LINE",
"450 635 OFFCURVE",
"472 610 OFFCURVE",
"472 576 CURVE SMOOTH",
"472 536 OFFCURVE",
"441 509 OFFCURVE",
"380 509 CURVE SMOOTH",
"55 509 LINE",
"55 434 LINE",
"218 434 LINE",
"284 451 LINE",
"348 434 LINE",
"380 434 LINE SMOOTH",
"461 434 OFFCURVE",
"515 480 OFFCURVE",
"515 552 CURVE SMOOTH",
"515 607 OFFCURVE",
"484 648 OFFCURVE",
"441 664 CURVE"
);
},
{
closed = 1;
nodes = (
"831 392 OFFCURVE",
"717 509 OFFCURVE",
"631 509 CURVE SMOOTH",
"595 509 OFFCURVE",
"576 496 OFFCURVE",
"576 473 CURVE SMOOTH",
"576 450 OFFCURVE",
"587 434 OFFCURVE",
"617 434 CURVE",
"716 434 OFFCURVE",
"789 338 OFFCURVE",
"789 257 CURVE SMOOTH",
"789 158 OFFCURVE",
"720 71 OFFCURVE",
"635 71 CURVE",
"548 71 OFFCURVE",
"499 145 OFFCURVE",
"479 189 CURVE",
"455 139 LINE",
"467 82 OFFCURVE",
"542 -14 OFFCURVE",
"647 -14 CURVE",
"772 -14 OFFCURVE",
"831 109 OFFCURVE",
"831 245 CURVE SMOOTH"
);
},
{
closed = 1;
nodes = (
"888 71 OFFCURVE",
"839 145 OFFCURVE",
"819 189 CURVE",
"795 139 LINE",
"807 82 OFFCURVE",
"882 -14 OFFCURVE",
"978 -14 CURVE",
"1091 -14 OFFCURVE",
"1171 115 OFFCURVE",
"1171 242 CURVE",
"1171 415 OFFCURVE",
"1085 513 OFFCURVE",
"1014 513 CURVE SMOOTH",
"983 513 OFFCURVE",
"966 493 OFFCURVE",
"966 470 CURVE SMOOTH",
"966 451 OFFCURVE",
"978 435 OFFCURVE",
"994 430 CURVE SMOOTH",
"1017 423 OFFCURVE",
"1038 428 OFFCURVE",
"1062 420 CURVE SMOOTH",
"1099 407 OFFCURVE",
"1130 344 OFFCURVE",
"1130 255 CURVE",
"1130 159 OFFCURVE",
"1060 71 OFFCURVE",
"978 71 CURVE"
);
}
);
};
layerId = "034236B8-3FA8-43DA-9EDA-EFF269A687EC";
name = Regular;
paths = (
{
closed = 1;
nodes = (
"421 -14 OFFCURVE",
"515 86 OFFCURVE",
"515 226 CURVE SMOOTH",
"515 315 OFFCURVE",
"469 398 OFFCURVE",
"395 436 CURVE SMOOTH",
"363 453 OFFCURVE",
"326 461 OFFCURVE",
"285 461 CURVE SMOOTH",
"244 461 OFFCURVE",
"207 453 OFFCURVE",
"175 436 CURVE SMOOTH",
"101 398 OFFCURVE",
"55 315 OFFCURVE",
"55 226 CURVE SMOOTH",
"55 86 OFFCURVE",
"149 -14 OFFCURVE",
"285 -14 CURVE SMOOTH"
);
},
{
closed = 1;
nodes = (
"175 71 OFFCURVE",
"100 144 OFFCURVE",
"100 247 CURVE SMOOTH",
"100 348 OFFCURVE",
"184 433 OFFCURVE",
"285 433 CURVE SMOOTH",
"386 433 OFFCURVE",
"470 349 OFFCURVE",
"470 248 CURVE SMOOTH",
"470 145 OFFCURVE",
"394 71 OFFCURVE",
"285 71 CURVE SMOOTH"
);
},
{
closed = 1;
nodes = (
"836 -220 OFFCURVE",
"861 -201 OFFCURVE",
"861 -161 CURVE SMOOTH",
"861 -117 OFFCURVE",
"832 -104 OFFCURVE",
"818 16 CURVE",
"802 16 LINE",
"789 -104 OFFCURVE",
"758 -117 OFFCURVE",
"758 -161 CURVE SMOOTH",
"758 -197 OFFCURVE",
"783 -220 OFFCURVE",
"810 -220 CURVE SMOOTH"
);
},
{
closed = 1;
nodes = (
"218 434 LINE",
"284 451 LINE",
"348 434 LINE",
"380 434 LINE SMOOTH",
"461 434 OFFCURVE",
"515 480 OFFCURVE",
"515 552 CURVE SMOOTH",
"515 607 OFFCURVE",
"484 648 OFFCURVE",
"441 664 CURVE",
"426 644 LINE",
"450 635 OFFCURVE",
"472 610 OFFCURVE",
"472 576 CURVE SMOOTH",
"472 536 OFFCURVE",
"441 509 OFFCURVE",
"380 509 CURVE SMOOTH",
"55 509 LINE",
"55 434 LINE"
);
},
{
closed = 1;
nodes = (
"755 -14 OFFCURVE",
"835 95 OFFCURVE",
"835 242 CURVE SMOOTH",
"835 415 OFFCURVE",
"739 513 OFFCURVE",
"668 513 CURVE SMOOTH",
"637 513 OFFCURVE",
"620 493 OFFCURVE",
"620 470 CURVE SMOOTH",
"620 451 OFFCURVE",
"632 435 OFFCURVE",
"648 430 CURVE SMOOTH",
"671 423 OFFCURVE",
"692 428 OFFCURVE",
"716 420 CURVE SMOOTH",
"753 407 OFFCURVE",
"800 344 OFFCURVE",
"800 255 CURVE SMOOTH",
"800 137 OFFCURVE",
"730 71 OFFCURVE",
"642 71 CURVE SMOOTH",
"573 71 OFFCURVE",
"520 105 OFFCURVE",
"483 207 CURVE",
"463 188 LINE",
"481 61 OFFCURVE",
"556 -14 OFFCURVE",
"642 -14 CURVE SMOOTH"
);
},
{
closed = 1;
nodes = (
"1091 -14 OFFCURVE",
"1171 95 OFFCURVE",
"1171 242 CURVE SMOOTH",
"1171 415 OFFCURVE",
"1075 513 OFFCURVE",
"1004 513 CURVE SMOOTH",
"973 513 OFFCURVE",
"956 493 OFFCURVE",
"956 470 CURVE SMOOTH",
"956 451 OFFCURVE",
"968 435 OFFCURVE",
"984 430 CURVE SMOOTH",
"1007 423 OFFCURVE",
"1028 428 OFFCURVE",
"1052 420 CURVE SMOOTH",
"1089 407 OFFCURVE",
"1136 344 OFFCURVE",
"1136 255 CURVE SMOOTH",
"1136 137 OFFCURVE",
"1066 71 OFFCURVE",
"978 71 CURVE SMOOTH",
"909 71 OFFCURVE",
"856 105 OFFCURVE",
"819 207 CURVE",
"799 188 LINE",
"817 61 OFFCURVE",
"892 -14 OFFCURVE",
"978 -14 CURVE SMOOTH"
);
}
);
width = 1226;
}
);
unicode = 0C9D;
},
{
color = 3;
glyphname = knNYA;
lastChange = "2015-12-16 18:08:20 +0000";
layers = (
{
background = {
paths = (
{
closed = 0;
nodes = (
"305 377 LINE",
"307 377 LINE",
"330 461 OFFCURVE",
"398 519 OFFCURVE",
"467 519 CURVE SMOOTH",
"557 519 OFFCURVE",
"602 456 OFFCURVE",
"602 387 CURVE SMOOTH",
"602 352 OFFCURVE",
"593 323 OFFCURVE",
"572 296 CURVE",
"541 317 LINE",
"548 325 OFFCURVE",
"554 340 OFFCURVE",
"554 367 CURVE SMOOTH",
"554 392 OFFCURVE",
"538 444 OFFCURVE",
"464 444 CURVE SMOOTH",
"380 444 OFFCURVE",
"324 358 OFFCURVE",
"310 283 CURVE",
"301 283 LINE"
);
}
);
};
layerId = "034236B8-3FA8-43DA-9EDA-EFF269A687EC";
name = Regular;
paths = (
{
closed = 1;
nodes = (
"616 -97 OFFCURVE",
"627 -85 OFFCURVE",
"627 -61 CURVE SMOOTH",
"627 60 OFFCURVE",
"531 223 OFFCURVE",
"353 223 CURVE SMOOTH",
"256 223 OFFCURVE",
"196 180 OFFCURVE",
"196 117 CURVE SMOOTH",
"196 40 OFFCURVE",
"271 -14 OFFCURVE",
"382 -14 CURVE SMOOTH",
"507 -14 OFFCURVE",
"630 78 OFFCURVE",
"630 294 CURVE",
"630 430 OFFCURVE",
"560 519 OFFCURVE",
"469 519 CURVE SMOOTH",
"398 519 OFFCURVE",
"330 461 OFFCURVE",
"307 377 CURVE",
"305 377 LINE",
"282 461 OFFCURVE",
"214 519 OFFCURVE",
"145 519 CURVE SMOOTH",
"55 519 OFFCURVE",
"10 456 OFFCURVE",
"10 387 CURVE SMOOTH",
"10 352 OFFCURVE",
"19 323 OFFCURVE",
"40 296 CURVE",
"71 317 LINE",
"64 325 OFFCURVE",
"58 340 OFFCURVE",
"58 367 CURVE SMOOTH",
"58 392 OFFCURVE",
"74 444 OFFCURVE",
"148 444 CURVE SMOOTH",
"232 444 OFFCURVE",
"288 358 OFFCURVE",
"302 283 CURVE",
"310 283 LINE",
"324 358 OFFCURVE",
"380 444 OFFCURVE",
"464 444 CURVE SMOOTH",
"537 444 OFFCURVE",
"592 392 OFFCURVE",
"592 295 CURVE",
"592 129 OFFCURVE",
"496 71 OFFCURVE",
"375 71 CURVE",
"280 71 OFFCURVE",
"249 96 OFFCURVE",
"249 127 CURVE SMOOTH",
"249 153 OFFCURVE",
"280 184 OFFCURVE",
"352 184 CURVE SMOOTH",
"497 184 OFFCURVE",
"579 48 OFFCURVE",
"579 -70 CURVE SMOOTH",
"579 -85 OFFCURVE",
"590 -97 OFFCURVE",
"603 -97 CURVE SMOOTH"
);
},
{
closed = 1;
nodes = (
"625 367 OFFCURVE",
"680 444 OFFCURVE",
"761 444 CURVE SMOOTH",
"835 444 OFFCURVE",
"851 392 OFFCURVE",
"851 367 CURVE SMOOTH",
"851 340 OFFCURVE",
"845 325 OFFCURVE",
"838 317 CURVE",
"869 296 LINE",
"890 323 OFFCURVE",
"899 352 OFFCURVE",
"899 387 CURVE SMOOTH",
"899 456 OFFCURVE",
"854 519 OFFCURVE",
"775 519 CURVE SMOOTH",
"689 519 OFFCURVE",
"617 441 OFFCURVE",
"614 347 CURVE",
"624 293 LINE"
);
}
);
width = 909;
},
{
associatedMasterId = "034236B8-3FA8-43DA-9EDA-EFF269A687EC";
background = {
paths = (
{
closed = 1;
nodes = (
"52 390 OFFCURVE",
"113 450 OFFCURVE",
"191 450 CURVE SMOOTH",
"245 450 OFFCURVE",
"294 412 OFFCURVE",
"309 357 CURVE",
"324 412 OFFCURVE",
"375 450 OFFCURVE",
"433 450 CURVE SMOOTH",
"500 450 OFFCURVE",
"556 412 OFFCURVE",
"572 357 CURVE",
"587 412 OFFCURVE",
"639 450 OFFCURVE",
"700 450 CURVE SMOOTH",
"769 450 OFFCURVE",
"824 385 OFFCURVE",
"824 306 CURVE SMOOTH",
"824 249 OFFCURVE",
"785 202 OFFCURVE",
"731 192 CURVE SMOOTH",
"712 189 OFFCURVE",
"701 220 OFFCURVE",
"721 223 CURVE",
"757 230 OFFCURVE",
"783 259 OFFCURVE",
"783 295 CURVE SMOOTH",
"783 341 OFFCURVE",
"746 378 OFFCURVE",
"700 378 CURVE SMOOTH",
"638 378 OFFCURVE",
"587 336 OFFCURVE",
"587 285 CURVE",
"587 193 OFFCURVE",
"575 140 OFFCURVE",
"546 100 CURVE",
"586 59 OFFCURVE",
"608 1 OFFCURVE",
"608 -65 CURVE SMOOTH",
"608 -76 OFFCURVE",
"598 -86 OFFCURVE",
"587 -86 CURVE SMOOTH",
"576 -86 OFFCURVE",
"567 -76 OFFCURVE",
"567 -65 CURVE SMOOTH",
"567 -7 OFFCURVE",
"551 42 OFFCURVE",
"525 74 CURVE",
"487 19 OFFCURVE",
"425 -14 OFFCURVE",
"361 -14 CURVE SMOOTH",
"281 -14 OFFCURVE",
"216 33 OFFCURVE",
"216 89 CURVE SMOOTH",
"216 146 OFFCURVE",
"285 192 OFFCURVE",
"371 192 CURVE SMOOTH",
"423 192 OFFCURVE",
"475 171 OFFCURVE",
"515 131 CURVE",
"539 158 OFFCURVE",
"551 206 OFFCURVE",
"551 264 CURVE SMOOTH",
"551 327 OFFCURVE",
"499 378 OFFCURVE",
"433 378 CURVE SMOOTH",
"372 378 OFFCURVE",
"320 333 OFFCURVE",
"309 275 CURVE",
"293 336 OFFCURVE",
"244 378 OFFCURVE",
"191 378 CURVE SMOOTH",
"137 378 OFFCURVE",
"93 346 OFFCURVE",
"93 306 CURVE SMOOTH",
"93 260 OFFCURVE",
"125 223 OFFCURVE",
"165 223 CURVE SMOOTH",
"175 223 OFFCURVE",
"180 218 OFFCURVE",
"180 208 CURVE SMOOTH",
"180 198 OFFCURVE",
"175 192 OFFCURVE",
"165 192 CURVE SMOOTH",
"102 192 OFFCURVE",
"52 247 OFFCURVE",
"52 316 CURVE SMOOTH"
);
}
);
};
layerId = "B4E3FEA8-AF79-4D50-B8A5-D9750ABF2339";
name = "Regular Nov 2 15, 16:32";
paths = (
{
closed = 1;
nodes = (
"588 372 OFFCURVE",
"544 450 OFFCURVE",
"457 450 CURVE SMOOTH",
"399 450 OFFCURVE",
"344 399 OFFCURVE",
"325 326 CURVE",
"323 326 LINE",
"303 399 OFFCURVE",
"243 450 OFFCURVE",
"183 450 CURVE SMOOTH",
"117 450 OFFCURVE",
"66 395 OFFCURVE",
"66 326 CURVE SMOOTH",
"66 300 OFFCURVE",
"73 277 OFFCURVE",
"92 256 CURVE",
"119 274 LINE",
"113 281 OFFCURVE",
"108 294 OFFCURVE",
"108 306 CURVE SMOOTH",
"108 339 OFFCURVE",
"135 357 OFFCURVE",
"176 357 CURVE SMOOTH",
"247 357 OFFCURVE",
"308 310 OFFCURVE",
"320 244 CURVE",
"328 244 LINE",
"339 310 OFFCURVE",
"398 357 OFFCURVE",
"449 357 CURVE SMOOTH",
"506 357 OFFCURVE",
"546 322 OFFCURVE",
"546 247 CURVE",
"546 128 OFFCURVE",
"489 79 OFFCURVE",
"383 79 CURVE",
"327 79 OFFCURVE",
"300 95 OFFCURVE",
"300 114 CURVE SMOOTH",
"300 135 OFFCURVE",
"318 151 OFFCURVE",
"373 151 CURVE SMOOTH",
"490 151 OFFCURVE",
"578 40 OFFCURVE",
"578 -63 CURVE SMOOTH",
"578 -76 OFFCURVE",
"588 -86 OFFCURVE",
"599 -86 CURVE SMOOTH",
"610 -86 OFFCURVE",
"620 -76 OFFCURVE",
"620 -55 CURVE SMOOTH",
"620 24 OFFCURVE",
"528 192 OFFCURVE",
"364 192 CURVE SMOOTH",
"280 192 OFFCURVE",
"228 146 OFFCURVE",
"228 100 CURVE SMOOTH",
"228 33 OFFCURVE",
"293 -14 OFFCURVE",
"372 -14 CURVE SMOOTH",
"498 -14 OFFCURVE",
"588 92 OFFCURVE",
"588 284 CURVE"
);
}
);
width = 824;
},
{
associatedMasterId = "034236B8-3FA8-43DA-9EDA-EFF269A687EC";
layerId = "37446CAC-EA8D-40A7-9AE4-FEDA6505536F";
name = "Regular Nov 2 15, 16:38";
paths = (
{
closed = 1;
nodes = (
"328 294 LINE",
"350 340 OFFCURVE",
"381 380 OFFCURVE",
"449 380 CURVE SMOOTH",
"513 380 OFFCURVE",
"556 322 OFFCURVE",
"556 248 CURVE",
"556 128 OFFCURVE",
"489 79 OFFCURVE",
"383 79 CURVE",
"327 79 OFFCURVE",
"300 95 OFFCURVE",
"300 114 CURVE SMOOTH",
"300 135 OFFCURVE",
"318 151 OFFCURVE",
"373 151 CURVE SMOOTH",
"490 151 OFFCURVE",
"578 40 OFFCURVE",
"578 -63 CURVE SMOOTH",
"578 -76 OFFCURVE",
"588 -86 OFFCURVE",
"599 -86 CURVE SMOOTH",
"610 -86 OFFCURVE",
"620 -76 OFFCURVE",
"620 -55 CURVE SMOOTH",
"620 24 OFFCURVE",
"528 192 OFFCURVE",
"364 192 CURVE SMOOTH",
"280 192 OFFCURVE",
"228 146 OFFCURVE",
"228 100 CURVE SMOOTH",
"228 33 OFFCURVE",
"293 -14 OFFCURVE",
"372 -14 CURVE SMOOTH",
"498 -14 OFFCURVE",
"598 92 OFFCURVE",
"598 254 CURVE SMOOTH",
"598 352 OFFCURVE",
"531 450 OFFCURVE",
"457 450 CURVE SMOOTH",
"385 450 OFFCURVE",
"355 409 OFFCURVE",
"325 356 CURVE",
"323 356 LINE",
"293 409 OFFCURVE",
"263 450 OFFCURVE",
"193 450 CURVE SMOOTH",
"117 450 OFFCURVE",
"66 395 OFFCURVE",
"66 326 CURVE SMOOTH",
"66 273 OFFCURVE",
"92 236 OFFCURVE",
"127 215 CURVE",
"134 232 LINE",
"114 250 OFFCURVE",
"108 274 OFFCURVE",
"108 298 CURVE SMOOTH",
"108 338 OFFCURVE",
"135 380 OFFCURVE",
"196 380 CURVE SMOOTH",
"267 380 OFFCURVE",
"298 340 OFFCURVE",
"320 294 CURVE"
);
},
{
closed = 1;
nodes = (
"595 332 OFFCURVE",
"622 380 OFFCURVE",
"693 380 CURVE SMOOTH",
"754 380 OFFCURVE",
"781 338 OFFCURVE",
"781 298 CURVE SMOOTH",
"781 274 OFFCURVE",
"775 250 OFFCURVE",
"755 232 CURVE",
"762 215 LINE",
"797 236 OFFCURVE",
"823 273 OFFCURVE",
"823 326 CURVE SMOOTH",
"823 395 OFFCURVE",
"772 450 OFFCURVE",
"696 450 CURVE SMOOTH",
"626 450 OFFCURVE",
"579 387 OFFCURVE",
"570 338 CURVE",
"573 276 LINE"
);
}
);
width = 824;
},
{
associatedMasterId = "034236B8-3FA8-43DA-9EDA-EFF269A687EC";
background = {
paths = (
{
closed = 1;
nodes = (
"555 372 OFFCURVE",
"511 450 OFFCURVE",
"424 450 CURVE SMOOTH",
"366 450 OFFCURVE",
"311 399 OFFCURVE",
"292 326 CURVE",
"290 326 LINE",
"270 399 OFFCURVE",
"210 450 OFFCURVE",
"150 450 CURVE SMOOTH",
"84 450 OFFCURVE",
"33 395 OFFCURVE",
"33 326 CURVE SMOOTH",
"33 300 OFFCURVE",
"40 277 OFFCURVE",
"59 256 CURVE",
"86 274 LINE",
"80 281 OFFCURVE",
"75 294 OFFCURVE",
"75 306 CURVE SMOOTH",
"75 339 OFFCURVE",
"102 357 OFFCURVE",
"143 357 CURVE SMOOTH",
"214 357 OFFCURVE",
"275 310 OFFCURVE",
"287 244 CURVE",
"295 244 LINE",
"306 310 OFFCURVE",
"365 357 OFFCURVE",
"416 357 CURVE SMOOTH",
"473 357 OFFCURVE",
"513 322 OFFCURVE",
"513 247 CURVE",
"513 128 OFFCURVE",
"456 79 OFFCURVE",
"350 79 CURVE",
"294 79 OFFCURVE",
"267 95 OFFCURVE",
"267 114 CURVE SMOOTH",
"267 135 OFFCURVE",
"285 151 OFFCURVE",
"340 151 CURVE SMOOTH",
"457 151 OFFCURVE",
"545 40 OFFCURVE",
"545 -63 CURVE SMOOTH",
"545 -76 OFFCURVE",
"555 -86 OFFCURVE",
"566 -86 CURVE SMOOTH",
"577 -86 OFFCURVE",
"587 -76 OFFCURVE",
"587 -55 CURVE SMOOTH",
"587 24 OFFCURVE",
"495 192 OFFCURVE",
"331 192 CURVE SMOOTH",
"247 192 OFFCURVE",
"195 146 OFFCURVE",
"195 100 CURVE SMOOTH",
"195 33 OFFCURVE",
"260 -14 OFFCURVE",
"339 -14 CURVE SMOOTH",
"465 -14 OFFCURVE",
"555 92 OFFCURVE",
"555 284 CURVE"
);
}
);
};
layerId = "CDF7EE7E-1A0B-4135-A4F4-D4C42443C0C1";
name = "Regular Nov 13 15, 13:10";
paths = (
{
closed = 1;
nodes = (
"295 294 LINE",
"317 340 OFFCURVE",
"348 380 OFFCURVE",
"416 380 CURVE SMOOTH",
"480 380 OFFCURVE",
"523 322 OFFCURVE",
"523 237 CURVE",
"523 128 OFFCURVE",
"456 79 OFFCURVE",
"350 79 CURVE",
"294 79 OFFCURVE",
"267 95 OFFCURVE",
"267 114 CURVE SMOOTH",
"267 135 OFFCURVE",
"285 151 OFFCURVE",
"340 151 CURVE SMOOTH",
"457 151 OFFCURVE",
"545 40 OFFCURVE",
"545 -63 CURVE SMOOTH",
"545 -76 OFFCURVE",
"555 -86 OFFCURVE",
"566 -86 CURVE SMOOTH",
"577 -86 OFFCURVE",
"587 -76 OFFCURVE",
"587 -55 CURVE SMOOTH",
"587 24 OFFCURVE",
"495 192 OFFCURVE",
"331 192 CURVE SMOOTH",
"247 192 OFFCURVE",
"195 146 OFFCURVE",
"195 100 CURVE SMOOTH",
"195 33 OFFCURVE",
"260 -14 OFFCURVE",
"339 -14 CURVE SMOOTH",
"465 -14 OFFCURVE",
"565 92 OFFCURVE",
"565 254 CURVE SMOOTH",
"565 352 OFFCURVE",
"498 450 OFFCURVE",
"424 450 CURVE SMOOTH",
"352 450 OFFCURVE",
"322 409 OFFCURVE",
"292 356 CURVE",
"290 356 LINE",
"260 409 OFFCURVE",
"230 450 OFFCURVE",
"160 450 CURVE SMOOTH",
"84 450 OFFCURVE",
"33 395 OFFCURVE",
"33 326 CURVE SMOOTH",
"33 273 OFFCURVE",
"59 236 OFFCURVE",
"94 215 CURVE",
"101 232 LINE",
"81 250 OFFCURVE",
"75 274 OFFCURVE",
"75 298 CURVE SMOOTH",
"75 338 OFFCURVE",
"102 380 OFFCURVE",
"163 380 CURVE SMOOTH",
"234 380 OFFCURVE",
"265 340 OFFCURVE",
"287 294 CURVE"
);
},
{
closed = 1;
nodes = (
"552 332 OFFCURVE",
"579 380 OFFCURVE",
"650 380 CURVE SMOOTH",
"711 380 OFFCURVE",
"738 338 OFFCURVE",
"738 298 CURVE SMOOTH",
"738 274 OFFCURVE",
"732 250 OFFCURVE",
"712 232 CURVE",
"719 215 LINE",
"754 236 OFFCURVE",
"780 273 OFFCURVE",
"780 326 CURVE SMOOTH",
"780 395 OFFCURVE",
"729 450 OFFCURVE",
"653 450 CURVE SMOOTH",
"583 450 OFFCURVE",
"536 387 OFFCURVE",
"527 338 CURVE",
"530 276 LINE"
);
}
);
width = 813;
}
);
unicode = 0C9E;
},
{
color = 3;
glyphname = knTTA;
lastChange = "2015-12-16 18:06:39 +0000";
layers = (
{
background = {
paths = (
{
closed = 1;
nodes = (
"178 530 OFFCURVE",
"166 560 OFFCURVE",
"166 590 CURVE SMOOTH",
"166 623 OFFCURVE",
"187 655 OFFCURVE",
"229 670 CURVE",
"210 692 LINE",
"146 680 OFFCURVE",
"108 639 OFFCURVE",
"108 596 CURVE SMOOTH",
"108 551 OFFCURVE",
"137 517 OFFCURVE",
"193 493 CURVE",
"214 508 LINE"
);
},
{
closed = 1;
nodes = (
"576 470 LINE",
"632 494 OFFCURVE",
"661 539 OFFCURVE",
"661 585 CURVE SMOOTH",
"661 639 OFFCURVE",
"623 680 OFFCURVE",
"559 692 CURVE",
"540 670 LINE",
"582 655 OFFCURVE",
"604 623 OFFCURVE",
"604 581 CURVE SMOOTH",
"604 549 OFFCURVE",
"591 507 OFFCURVE",
"555 485 CURVE"
);
},
{
closed = 1;
nodes = (
"552 465 LINE",
"643 421 OFFCURVE",
"684 352 OFFCURVE",
"684 263 CURVE SMOOTH",
"684 149 OFFCURVE",
"634 71 OFFCURVE",
"547 71 CURVE SMOOTH",
"474 71 OFFCURVE",
"408 146 OFFCURVE",
"396 221 CURVE",
"386 221 LINE",
"374 146 OFFCURVE",
"308 71 OFFCURVE",
"235 71 CURVE SMOOTH",
"144 71 OFFCURVE",
"98 149 OFFCURVE",
"98 263 CURVE SMOOTH",
"98 331 OFFCURVE",
"115 392 OFFCURVE",
"148 425 CURVE",
"146 414 OFFCURVE",
"145 401 OFFCURVE",
"145 389 CURVE SMOOTH",
"145 316 OFFCURVE",
"186 281 OFFCURVE",
"235 281 CURVE SMOOTH",
"288 281 OFFCURVE",
"320 333 OFFCURVE",
"320 399 CURVE SMOOTH",
"320 465 OFFCURVE",
"293 517 OFFCURVE",
"223 517 CURVE SMOOTH",
"130 517 OFFCURVE",
"56 397 OFFCURVE",
"56 263 CURVE SMOOTH",
"56 75 OFFCURVE",
"116 -14 OFFCURVE",
"230 -14 CURVE SMOOTH",
"299 -14 OFFCURVE",
"367 43 OFFCURVE",
"390 126 CURVE",
"392 126 LINE",
"415 43 OFFCURVE",
"483 -14 OFFCURVE",
"552 -14 CURVE SMOOTH",
"661 -14 OFFCURVE",
"726 75 OFFCURVE",
"726 240 CURVE SMOOTH",
"726 401 OFFCURVE",
"626 475 OFFCURVE",
"555 485 CURVE"
);
},
{
closed = 1;
nodes = (
"290 373 OFFCURVE",
"271 352 OFFCURVE",
"235 352 CURVE SMOOTH",
"202 352 OFFCURVE",
"175 370 OFFCURVE",
"175 416 CURVE SMOOTH",
"175 427 OFFCURVE",
"176 438 OFFCURVE",
"178 448 CURVE",
"190 453 OFFCURVE",
"204 457 OFFCURVE",
"217 457 CURVE SMOOTH",
"266 457 OFFCURVE",
"290 438 OFFCURVE",
"290 399 CURVE SMOOTH"
);
}
);
};
layerId = "034236B8-3FA8-43DA-9EDA-EFF269A687EC";
name = Regular;
paths = (
{
closed = 1;
nodes = (
"318 -14 OFFCURVE",
"386 43 OFFCURVE",
"409 126 CURVE",
"411 126 LINE",
"434 43 OFFCURVE",
"502 -14 OFFCURVE",
"572 -14 CURVE SMOOTH",
"683 -14 OFFCURVE",
"745 78 OFFCURVE",
"745 214 CURVE SMOOTH",
"745 329 OFFCURVE",
"683 409 OFFCURVE",
"575 425 CURVE",
"545 425 LINE",
"561 386 LINE",
"659 378 OFFCURVE",
"706 302 OFFCURVE",
"706 227 CURVE SMOOTH",
"706 138 OFFCURVE",
"654 71 OFFCURVE",
"566 71 CURVE SMOOTH",
"493 71 OFFCURVE",
"427 146 OFFCURVE",
"414 221 CURVE",
"405 221 LINE",
"391 145 OFFCURVE",
"323 71 OFFCURVE",
"248 71 CURVE SMOOTH",
"157 71 OFFCURVE",
"100 149 OFFCURVE",
"100 252 CURVE SMOOTH",
"100 345 OFFCURVE",
"142 414 OFFCURVE",
"235 414 CURVE SMOOTH",
"273 414 OFFCURVE",
"307 400 OFFCURVE",
"307 361 CURVE SMOOTH",
"307 325 OFFCURVE",
"279 304 OFFCURVE",
"232 304 CURVE SMOOTH",
"190 304 OFFCURVE",
"159 325 OFFCURVE",
"159 368 CURVE SMOOTH",
"159 379 OFFCURVE",
"163 400 OFFCURVE",
"166 410 CURVE",
"135 389 LINE",
"132 367 OFFCURVE",
"131 354 OFFCURVE",
"131 341 CURVE SMOOTH",
"131 268 OFFCURVE",
"174 233 OFFCURVE",
"232 233 CURVE SMOOTH",
"295 233 OFFCURVE",
"337 285 OFFCURVE",
"337 351 CURVE SMOOTH",
"337 417 OFFCURVE",
"301 479 OFFCURVE",
"230 479 CURVE SMOOTH",
"128 479 OFFCURVE",
"60 372 OFFCURVE",
"60 241 CURVE SMOOTH",
"60 82 OFFCURVE",
"137 -14 OFFCURVE",
"248 -14 CURVE SMOOTH"
);
},
{
closed = 1;
nodes = (
"234 468 LINE",
"192 497 OFFCURVE",
"174 524 OFFCURVE",
"174 561 CURVE SMOOTH",
"174 606 OFFCURVE",
"197 637 OFFCURVE",
"249 649 CURVE",
"240 671 LINE",
"156 666 OFFCURVE",
"110 620 OFFCURVE",
"110 566 CURVE SMOOTH",
"110 511 OFFCURVE",
"159 471 OFFCURVE",
"213 452 CURVE"
);
},
{
closed = 1;
nodes = (
"643 441 OFFCURVE",
"703 488 OFFCURVE",
"703 554 CURVE SMOOTH",
"703 613 OFFCURVE",
"658 663 OFFCURVE",
"572 671 CURVE",
"560 651 LINE",
"613 636 OFFCURVE",
"642 602 OFFCURVE",
"642 557 CURVE SMOOTH",
"642 509 OFFCURVE",
"611 464 OFFCURVE",
"545 425 CURVE",
"577 407 LINE"
);
}
);
width = 780;
}
);
unicode = 0C9F;
},
{
color = 3;
glyphname = knTTHA;
lastChange = "2015-12-16 17:45:47 +0000";
layers = (
{
background = {
paths = (
{
closed = 1;
nodes = (
"244 461 OFFCURVE",
"207 453 OFFCURVE",
"175 436 CURVE SMOOTH",
"101 398 OFFCURVE",
"55 315 OFFCURVE",
"55 226 CURVE SMOOTH",
"55 86 OFFCURVE",
"157 -14 OFFCURVE",
"285 -14 CURVE",
"413 -14 OFFCURVE",
"515 86 OFFCURVE",
"515 226 CURVE SMOOTH",
"515 315 OFFCURVE",
"469 398 OFFCURVE",
"395 436 CURVE SMOOTH",
"363 453 OFFCURVE",
"326 461 OFFCURVE",
"285 461 CURVE"
);
},
{
closed = 1;
nodes = (
"386 433 OFFCURVE",
"463 360 OFFCURVE",
"463 261 CURVE SMOOTH",
"463 161 OFFCURVE",
"396 71 OFFCURVE",
"285 71 CURVE",
"174 71 OFFCURVE",
"107 161 OFFCURVE",
"107 261 CURVE SMOOTH",
"107 360 OFFCURVE",
"184 433 OFFCURVE",
"285 433 CURVE"
);
},
{
closed = 1;
nodes = (
"426 644 LINE",
"450 635 OFFCURVE",
"472 610 OFFCURVE",
"472 576 CURVE SMOOTH",
"472 536 OFFCURVE",
"441 509 OFFCURVE",
"380 509 CURVE SMOOTH",
"55 509 LINE",
"55 434 LINE",
"218 434 LINE",
"284 451 LINE",
"348 434 LINE",
"380 434 LINE SMOOTH",
"461 434 OFFCURVE",
"515 480 OFFCURVE",
"515 552 CURVE SMOOTH",
"515 607 OFFCURVE",
"484 648 OFFCURVE",
"441 664 CURVE"
);
},
{
closed = 1;
nodes = (
"219 300 OFFCURVE",
"248 329 OFFCURVE",
"285 329 CURVE SMOOTH",
"322 329 OFFCURVE",
"350 300 OFFCURVE",
"350 263 CURVE SMOOTH",
"350 226 OFFCURVE",
"322 199 OFFCURVE",
"285 199 CURVE SMOOTH",
"248 199 OFFCURVE",
"219 226 OFFCURVE",
"219 263 CURVE SMOOTH"
);
}
);
};
guideLines = (
{
angle = 270;
position = "{55, -78}";
}
);
layerId = "034236B8-3FA8-43DA-9EDA-EFF269A687EC";
name = Regular;
paths = (
{
closed = 1;
nodes = (
"421 -14 OFFCURVE",
"515 86 OFFCURVE",
"515 226 CURVE SMOOTH",
"515 315 OFFCURVE",
"469 398 OFFCURVE",
"395 436 CURVE SMOOTH",
"363 453 OFFCURVE",
"326 461 OFFCURVE",
"285 461 CURVE SMOOTH",
"244 461 OFFCURVE",
"207 453 OFFCURVE",
"175 436 CURVE SMOOTH",
"101 398 OFFCURVE",
"55 315 OFFCURVE",
"55 226 CURVE SMOOTH",
"55 86 OFFCURVE",
"149 -14 OFFCURVE",
"285 -14 CURVE SMOOTH"
);
},
{
closed = 1;
nodes = (
"175 71 OFFCURVE",
"100 144 OFFCURVE",
"100 247 CURVE SMOOTH",
"100 348 OFFCURVE",
"184 433 OFFCURVE",
"285 433 CURVE SMOOTH",
"386 433 OFFCURVE",
"470 349 OFFCURVE",
"470 248 CURVE SMOOTH",
"470 145 OFFCURVE",
"394 71 OFFCURVE",
"285 71 CURVE SMOOTH"
);
},
{
closed = 1;
nodes = (
"319 203 OFFCURVE",
"344 227 OFFCURVE",
"344 261 CURVE SMOOTH",
"344 295 OFFCURVE",
"319 321 OFFCURVE",
"285 321 CURVE SMOOTH",
"251 321 OFFCURVE",
"225 295 OFFCURVE",
"225 261 CURVE SMOOTH",
"225 227 OFFCURVE",
"251 203 OFFCURVE",
"285 203 CURVE SMOOTH"
);
},
{
closed = 1;
nodes = (
"218 434 LINE",
"284 451 LINE",
"348 434 LINE",
"380 434 LINE SMOOTH",
"461 434 OFFCURVE",
"515 480 OFFCURVE",
"515 552 CURVE SMOOTH",
"515 607 OFFCURVE",
"484 648 OFFCURVE",
"441 664 CURVE",
"426 644 LINE",
"450 635 OFFCURVE",
"472 610 OFFCURVE",
"472 576 CURVE SMOOTH",
"472 536 OFFCURVE",
"441 509 OFFCURVE",
"380 509 CURVE SMOOTH",
"55 509 LINE",
"55 434 LINE"
);
}
);
width = 580;
}
);
unicode = 0CA0;
},
{
color = 3;
glyphname = knDDA;
lastChange = "2015-12-16 17:45:47 +0000";
layers = (
{
background = {
paths = (
{
closed = 1;
nodes = (
"466 441 OFFCURVE",
"544 355 OFFCURVE",
"544 299 CURVE SMOOTH",
"544 274 OFFCURVE",
"526 243 OFFCURVE",
"475 243 CURVE",
"438 243 OFFCURVE",
"417 262 OFFCURVE",
"417 285 CURVE SMOOTH",
"417 307 OFFCURVE",
"439 326 OFFCURVE",
"475 326 CURVE SMOOTH",
"536 326 OFFCURVE",
"583 254 OFFCURVE",
"584 174 CURVE",
"584 125 OFFCURVE",
"552 71 OFFCURVE",
"495 71 CURVE",
"429 71 OFFCURVE",
"364 145 OFFCURVE",
"350 221 CURVE SMOOTH",
"341 221 LINE",
"327 145 OFFCURVE",
"261 71 OFFCURVE",
"196 71 CURVE SMOOTH",
"138 71 OFFCURVE",
"106 124 OFFCURVE",
"106 192 CURVE SMOOTH",
"106 300 OFFCURVE",
"213 441 OFFCURVE",
"345 441 CURVE"
);
},
{
closed = 1;
nodes = (
"208 465 OFFCURVE",
"55 339 OFFCURVE",
"55 160 CURVE SMOOTH",
"55 33 OFFCURVE",
"117 -14 OFFCURVE",
"185 -14 CURVE SMOOTH",
"253 -14 OFFCURVE",
"321 43 OFFCURVE",
"344 126 CURVE",
"346 126 LINE",
"369 43 OFFCURVE",
"437 -14 OFFCURVE",
"505 -14 CURVE",
"572 -14 OFFCURVE",
"635 33 OFFCURVE",
"635 145 CURVE",
"635 218 OFFCURVE",
"575 355 OFFCURVE",
"468 355 CURVE",
"407 355 OFFCURVE",
"378 315 OFFCURVE",
"378 277 CURVE SMOOTH",
"378 229 OFFCURVE",
"420 185 OFFCURVE",
"476 185 CURVE SMOOTH",
"527 185 OFFCURVE",
"572 216 OFFCURVE",
"572 284 CURVE",
"572 397 OFFCURVE",
"450 465 OFFCURVE",
"345 465 CURVE"
);
},
{
closed = 1;
nodes = (
"448 434 LINE",
"499 434 LINE SMOOTH",
"580 434 OFFCURVE",
"634 480 OFFCURVE",
"634 552 CURVE SMOOTH",
"634 607 OFFCURVE",
"603 648 OFFCURVE",
"560 664 CURVE",
"545 644 LINE",
"569 635 OFFCURVE",
"591 610 OFFCURVE",
"591 576 CURVE SMOOTH",
"591 536 OFFCURVE",
"560 509 OFFCURVE",
"499 509 CURVE SMOOTH",
"55 509 LINE",
"55 434 LINE",
"241 434 LINE",
"345 444 LINE"
);
}
);
};
layerId = "034236B8-3FA8-43DA-9EDA-EFF269A687EC";
name = Regular;
paths = (
{
closed = 1;
nodes = (
"253 -14 OFFCURVE",
"321 43 OFFCURVE",
"344 126 CURVE",
"346 126 LINE",
"369 43 OFFCURVE",
"437 -14 OFFCURVE",
"505 -14 CURVE SMOOTH",
"572 -14 OFFCURVE",
"635 33 OFFCURVE",
"635 145 CURVE SMOOTH",
"635 218 OFFCURVE",
"575 355 OFFCURVE",
"468 355 CURVE SMOOTH",
"407 355 OFFCURVE",
"378 315 OFFCURVE",
"378 277 CURVE SMOOTH",
"378 229 OFFCURVE",
"420 185 OFFCURVE",
"476 185 CURVE SMOOTH",
"527 185 OFFCURVE",
"576 216 OFFCURVE",
"576 284 CURVE SMOOTH",
"576 397 OFFCURVE",
"450 467 OFFCURVE",
"345 467 CURVE SMOOTH",
"208 467 OFFCURVE",
"55 339 OFFCURVE",
"55 160 CURVE SMOOTH",
"55 33 OFFCURVE",
"117 -14 OFFCURVE",
"185 -14 CURVE SMOOTH"
);
},
{
closed = 1;
nodes = (
"138 71 OFFCURVE",
"104 114 OFFCURVE",
"104 192 CURVE SMOOTH",
"104 300 OFFCURVE",
"213 441 OFFCURVE",
"345 441 CURVE SMOOTH",
"456 441 OFFCURVE",
"544 355 OFFCURVE",
"544 299 CURVE SMOOTH",
"544 274 OFFCURVE",
"526 243 OFFCURVE",
"475 243 CURVE SMOOTH",
"438 243 OFFCURVE",
"417 262 OFFCURVE",
"417 285 CURVE SMOOTH",
"417 307 OFFCURVE",
"439 326 OFFCURVE",
"475 326 CURVE SMOOTH",
"536 326 OFFCURVE",
"589 254 OFFCURVE",
"589 174 CURVE SMOOTH",
"589 113 OFFCURVE",
"554 71 OFFCURVE",
"495 71 CURVE SMOOTH",
"429 71 OFFCURVE",
"364 145 OFFCURVE",
"350 221 CURVE",
"341 221 LINE",
"327 145 OFFCURVE",
"261 71 OFFCURVE",
"196 71 CURVE SMOOTH"
);
},
{
closed = 1;
nodes = (
"241 434 LINE",
"345 444 LINE",
"448 434 LINE",
"499 434 LINE SMOOTH",
"580 434 OFFCURVE",
"634 480 OFFCURVE",
"634 552 CURVE SMOOTH",
"634 607 OFFCURVE",
"603 648 OFFCURVE",
"560 664 CURVE",
"545 644 LINE",
"569 635 OFFCURVE",
"591 610 OFFCURVE",
"591 576 CURVE SMOOTH",
"591 536 OFFCURVE",
"560 509 OFFCURVE",
"499 509 CURVE SMOOTH",
"55 509 LINE",
"55 434 LINE"
);
}
);
width = 700;
}
);
unicode = 0CA1;
},
{
color = 3;
glyphname = knDDHA;
lastChange = "2015-12-16 17:45:47 +0000";
layers = (
{
background = {
paths = (
{
closed = 1;
nodes = (
"466 441 OFFCURVE",
"544 355 OFFCURVE",
"544 299 CURVE SMOOTH",
"544 274 OFFCURVE",
"526 243 OFFCURVE",
"475 243 CURVE",
"438 243 OFFCURVE",
"417 262 OFFCURVE",
"417 285 CURVE SMOOTH",
"417 307 OFFCURVE",
"439 326 OFFCURVE",
"475 326 CURVE SMOOTH",
"536 326 OFFCURVE",
"583 254 OFFCURVE",
"584 174 CURVE",
"584 125 OFFCURVE",
"552 71 OFFCURVE",
"495 71 CURVE",
"429 71 OFFCURVE",
"364 145 OFFCURVE",
"350 221 CURVE SMOOTH",
"341 221 LINE",
"327 145 OFFCURVE",
"261 71 OFFCURVE",
"196 71 CURVE SMOOTH",
"138 71 OFFCURVE",
"106 124 OFFCURVE",
"106 192 CURVE SMOOTH",
"106 300 OFFCURVE",
"213 441 OFFCURVE",
"345 441 CURVE"
);
},
{
closed = 1;
nodes = (
"208 465 OFFCURVE",
"55 339 OFFCURVE",
"55 160 CURVE SMOOTH",
"55 33 OFFCURVE",
"117 -14 OFFCURVE",
"185 -14 CURVE SMOOTH",
"253 -14 OFFCURVE",
"321 43 OFFCURVE",
"344 126 CURVE",
"346 126 LINE",
"369 43 OFFCURVE",
"437 -14 OFFCURVE",
"505 -14 CURVE",
"572 -14 OFFCURVE",
"635 33 OFFCURVE",
"635 145 CURVE",
"635 218 OFFCURVE",
"575 355 OFFCURVE",
"468 355 CURVE",
"407 355 OFFCURVE",
"378 315 OFFCURVE",
"378 277 CURVE SMOOTH",
"378 229 OFFCURVE",
"420 185 OFFCURVE",
"476 185 CURVE SMOOTH",
"527 185 OFFCURVE",
"572 216 OFFCURVE",
"572 284 CURVE",
"572 397 OFFCURVE",
"450 465 OFFCURVE",
"345 465 CURVE"
);
},
{
closed = 1;
nodes = (
"448 434 LINE",
"499 434 LINE SMOOTH",
"580 434 OFFCURVE",
"634 480 OFFCURVE",
"634 552 CURVE SMOOTH",
"634 607 OFFCURVE",
"603 648 OFFCURVE",
"560 664 CURVE",
"545 644 LINE",
"569 635 OFFCURVE",
"591 610 OFFCURVE",
"591 576 CURVE SMOOTH",
"591 536 OFFCURVE",
"560 509 OFFCURVE",
"499 509 CURVE SMOOTH",
"55 509 LINE",
"55 434 LINE",
"241 434 LINE",
"345 444 LINE"
);
},
{
closed = 1;
nodes = (
"336 44 LINE",
"325 -36 OFFCURVE",
"281 -92 OFFCURVE",
"281 -133 CURVE SMOOTH",
"281 -182 OFFCURVE",
"319 -202 OFFCURVE",
"345 -202 CURVE SMOOTH",
"369 -202 OFFCURVE",
"410 -186 OFFCURVE",
"410 -133 CURVE SMOOTH",
"410 -92 OFFCURVE",
"367 -36 OFFCURVE",
"354 44 CURVE"
);
}
);
};
layerId = "034236B8-3FA8-43DA-9EDA-EFF269A687EC";
name = Regular;
paths = (
{
closed = 1;
nodes = (
"253 -14 OFFCURVE",
"321 43 OFFCURVE",
"344 126 CURVE",
"346 126 LINE",
"369 43 OFFCURVE",
"437 -14 OFFCURVE",
"505 -14 CURVE SMOOTH",
"572 -14 OFFCURVE",
"635 33 OFFCURVE",
"635 145 CURVE SMOOTH",
"635 218 OFFCURVE",
"575 355 OFFCURVE",
"468 355 CURVE SMOOTH",
"407 355 OFFCURVE",
"378 315 OFFCURVE",
"378 277 CURVE SMOOTH",
"378 229 OFFCURVE",
"420 185 OFFCURVE",
"476 185 CURVE SMOOTH",
"527 185 OFFCURVE",
"576 216 OFFCURVE",
"576 284 CURVE SMOOTH",
"576 397 OFFCURVE",
"450 467 OFFCURVE",
"345 467 CURVE SMOOTH",
"208 467 OFFCURVE",
"55 339 OFFCURVE",
"55 160 CURVE SMOOTH",
"55 33 OFFCURVE",
"117 -14 OFFCURVE",
"185 -14 CURVE SMOOTH"
);
},
{
closed = 1;
nodes = (
"370 -220 OFFCURVE",
"395 -201 OFFCURVE",
"395 -161 CURVE SMOOTH",
"395 -117 OFFCURVE",
"366 -104 OFFCURVE",
"352 16 CURVE",
"336 16 LINE",
"323 -104 OFFCURVE",
"292 -117 OFFCURVE",
"292 -161 CURVE SMOOTH",
"292 -197 OFFCURVE",
"317 -220 OFFCURVE",
"344 -220 CURVE SMOOTH"
);
},
{
closed = 1;
nodes = (
"138 71 OFFCURVE",
"104 114 OFFCURVE",
"104 192 CURVE SMOOTH",
"104 300 OFFCURVE",
"213 441 OFFCURVE",
"345 441 CURVE SMOOTH",
"456 441 OFFCURVE",
"544 355 OFFCURVE",
"544 299 CURVE SMOOTH",
"544 274 OFFCURVE",
"526 243 OFFCURVE",
"475 243 CURVE SMOOTH",
"438 243 OFFCURVE",
"417 262 OFFCURVE",
"417 285 CURVE SMOOTH",
"417 307 OFFCURVE",
"439 326 OFFCURVE",
"475 326 CURVE SMOOTH",
"536 326 OFFCURVE",
"589 254 OFFCURVE",
"589 174 CURVE SMOOTH",
"589 113 OFFCURVE",
"554 71 OFFCURVE",
"495 71 CURVE SMOOTH",
"429 71 OFFCURVE",
"364 145 OFFCURVE",
"350 221 CURVE",
"341 221 LINE",
"327 145 OFFCURVE",
"261 71 OFFCURVE",
"196 71 CURVE SMOOTH"
);
},
{
closed = 1;
nodes = (
"241 434 LINE",
"345 444 LINE",
"448 434 LINE",
"499 434 LINE SMOOTH",
"580 434 OFFCURVE",
"634 480 OFFCURVE",
"634 552 CURVE SMOOTH",
"634 607 OFFCURVE",
"603 648 OFFCURVE",
"560 664 CURVE",
"545 644 LINE",
"569 635 OFFCURVE",
"591 610 OFFCURVE",
"591 576 CURVE SMOOTH",
"591 536 OFFCURVE",
"560 509 OFFCURVE",
"499 509 CURVE SMOOTH",
"55 509 LINE",
"55 434 LINE"
);
}
);
width = 700;
}
);
unicode = 0CA2;
},
{
color = 3;
glyphname = knNNA;
lastChange = "2015-12-16 17:45:46 +0000";
layers = (
{
background = {
paths = (
{
closed = 1;
nodes = (
"656 -14 OFFCURVE",
"730 97 OFFCURVE",
"730 235 CURVE SMOOTH",
"730 392 OFFCURVE",
"651 519 OFFCURVE",
"529 519 CURVE SMOOTH",
"443 519 OFFCURVE",
"375 461 OFFCURVE",
"352 377 CURVE",
"349 377 LINE",
"326 461 OFFCURVE",
"264 519 OFFCURVE",
"188 519 CURVE SMOOTH",
"118 519 OFFCURVE",
"55 461 OFFCURVE",
"55 369 CURVE SMOOTH",
"55 309 OFFCURVE",
"91 243 OFFCURVE",
"138 235 CURVE",
"96 214 OFFCURVE",
"55 168 OFFCURVE",
"55 104 CURVE SMOOTH",
"55 40 OFFCURVE",
"96 -14 OFFCURVE",
"168 -14 CURVE SMOOTH",
"249 -14 OFFCURVE",
"287 84 OFFCURVE",
"290 139 CURVE",
"271 157 LINE",
"249 108 OFFCURVE",
"218 71 OFFCURVE",
"173 71 CURVE SMOOTH",
"126 71 OFFCURVE",
"108 97 OFFCURVE",
"108 128 CURVE SMOOTH",
"108 176 OFFCURVE",
"150 217 OFFCURVE",
"233 231 CURVE",
"233 240 LINE",
"162 253 OFFCURVE",
"108 287 OFFCURVE",
"108 352 CURVE SMOOTH",
"108 392 OFFCURVE",
"138 434 OFFCURVE",
"196 434 CURVE SMOOTH",
"267 434 OFFCURVE",
"332 358 OFFCURVE",
"346 283 CURVE",
"355 283 LINE",
"368 357 OFFCURVE",
"433 434 OFFCURVE",
"517 434 CURVE SMOOTH",
"620 434 OFFCURVE",
"683 345 OFFCURVE",
"683 257 CURVE SMOOTH",
"683 146 OFFCURVE",
"622 71 OFFCURVE",
"547 71 CURVE",
"483 71 OFFCURVE",
"443 125 OFFCURVE",
"443 165 CURVE SMOOTH",
"443 203 OFFCURVE",
"469 227 OFFCURVE",
"506 227 CURVE SMOOTH",
"536 227 OFFCURVE",
"561 217 OFFCURVE",
"571 193 CURVE",
"587 208 LINE",
"575 250 OFFCURVE",
"551 287 OFFCURVE",
"502 287 CURVE SMOOTH",
"443 287 OFFCURVE",
"400 232 OFFCURVE",
"400 143 CURVE SMOOTH",
"400 56 OFFCURVE",
"453 -14 OFFCURVE",
"552 -14 CURVE"
);
}
);
};
layerId = "034236B8-3FA8-43DA-9EDA-EFF269A687EC";
name = Regular;
paths = (
{
closed = 1;
nodes = (
"249 -14 OFFCURVE",
"287 78 OFFCURVE",
"290 139 CURVE",
"267 151 LINE",
"246 88 OFFCURVE",
"213 66 OFFCURVE",
"168 66 CURVE SMOOTH",
"125 66 OFFCURVE",
"102 90 OFFCURVE",
"102 124 CURVE SMOOTH",
"102 172 OFFCURVE",
"146 217 OFFCURVE",
"233 231 CURVE",
"233 240 LINE",
"152 255 OFFCURVE",
"101 302 OFFCURVE",
"101 357 CURVE SMOOTH",
"101 407 OFFCURVE",
"136 441 OFFCURVE",
"196 441 CURVE SMOOTH",
"273 441 OFFCURVE",
"332 366 OFFCURVE",
"346 283 CURVE",
"355 283 LINE",
"368 365 OFFCURVE",
"433 441 OFFCURVE",
"517 441 CURVE SMOOTH",
"630 441 OFFCURVE",
"695 357 OFFCURVE",
"695 249 CURVE SMOOTH",
"695 128 OFFCURVE",
"623 71 OFFCURVE",
"550 71 CURVE SMOOTH",
"488 71 OFFCURVE",
"449 104 OFFCURVE",
"449 156 CURVE SMOOTH",
"449 201 OFFCURVE",
"478 227 OFFCURVE",
"515 227 CURVE SMOOTH",
"545 227 OFFCURVE",
"570 217 OFFCURVE",
"581 193 CURVE",
"597 208 LINE",
"584 250 OFFCURVE",
"560 287 OFFCURVE",
"512 287 CURVE SMOOTH",
"452 287 OFFCURVE",
"409 237 OFFCURVE",
"409 148 CURVE SMOOTH",
"409 51 OFFCURVE",
"471 -14 OFFCURVE",
"552 -14 CURVE SMOOTH",
"656 -14 OFFCURVE",
"730 97 OFFCURVE",
"730 235 CURVE SMOOTH",
"730 392 OFFCURVE",
"651 519 OFFCURVE",
"529 519 CURVE SMOOTH",
"443 519 OFFCURVE",
"375 461 OFFCURVE",
"352 377 CURVE",
"349 377 LINE",
"326 461 OFFCURVE",
"264 519 OFFCURVE",
"188 519 CURVE SMOOTH",
"113 519 OFFCURVE",
"55 464 OFFCURVE",
"55 385 CURVE SMOOTH",
"55 312 OFFCURVE",
"114 246 OFFCURVE",
"161 238 CURVE",
"99 217 OFFCURVE",
"55 164 OFFCURVE",
"55 102 CURVE SMOOTH",
"55 36 OFFCURVE",
"98 -14 OFFCURVE",
"168 -14 CURVE SMOOTH"
);
}
);
width = 795;
}
);
unicode = 0CA3;
},
{
color = 3;
glyphname = knTA;
lastChange = "2015-12-16 18:05:15 +0000";
layers = (
{
background = {
paths = (
{
closed = 1;
nodes = (
"348 440 OFFCURVE",
"409 394 OFFCURVE",
"409 338 CURVE SMOOTH",
"409 279 OFFCURVE",
"367 247 OFFCURVE",
"311 247 CURVE SMOOTH",
"263 247 OFFCURVE",
"233 265 OFFCURVE",
"233 294 CURVE SMOOTH",
"233 325 OFFCURVE",
"271 344 OFFCURVE",
"331 344 CURVE SMOOTH",
"420 344 OFFCURVE",
"493 293 OFFCURVE",
"493 213 CURVE SMOOTH",
"493 122 OFFCURVE",
"422 71 OFFCURVE",
"300 71 CURVE SMOOTH",
"173 71 OFFCURVE",
"99 136 OFFCURVE",
"99 206 CURVE SMOOTH",
"99 226 OFFCURVE",
"102 243 OFFCURVE",
"112 254 CURVE",
"86 258 LINE",
"69 242 OFFCURVE",
"54 215 OFFCURVE",
"54 164 CURVE SMOOTH",
"54 77 OFFCURVE",
"145 -14 OFFCURVE",
"296 -14 CURVE SMOOTH",
"444 -14 OFFCURVE",
"539 75 OFFCURVE",
"539 191 CURVE SMOOTH",
"539 307 OFFCURVE",
"440 380 OFFCURVE",
"332 380 CURVE SMOOTH",
"235 380 OFFCURVE",
"178 342 OFFCURVE",
"178 287 CURVE SMOOTH",
"178 230 OFFCURVE",
"235 191 OFFCURVE",
"306 191 CURVE SMOOTH",
"386 191 OFFCURVE",
"454 242 OFFCURVE",
"454 322 CURVE SMOOTH",
"454 383 OFFCURVE",
"397 437 OFFCURVE",
"359 449 CURVE",
"294 440 LINE"
);
},
{
closed = 1;
nodes = (
"440 644 LINE",
"464 635 OFFCURVE",
"486 610 OFFCURVE",
"486 576 CURVE SMOOTH",
"486 536 OFFCURVE",
"455 509 OFFCURVE",
"394 509 CURVE SMOOTH",
"73 509 LINE",
"73 434 LINE",
"394 434 LINE SMOOTH",
"475 434 OFFCURVE",
"529 480 OFFCURVE",
"529 552 CURVE SMOOTH",
"529 607 OFFCURVE",
"498 648 OFFCURVE",
"455 664 CURVE"
);
}
);
};
layerId = "034236B8-3FA8-43DA-9EDA-EFF269A687EC";
name = Regular;
paths = (
{
closed = 1;
nodes = (
"444 -14 OFFCURVE",
"539 75 OFFCURVE",
"539 191 CURVE SMOOTH",
"539 307 OFFCURVE",
"440 380 OFFCURVE",
"332 380 CURVE SMOOTH",
"235 380 OFFCURVE",
"178 342 OFFCURVE",
"178 287 CURVE SMOOTH",
"178 230 OFFCURVE",
"234 189 OFFCURVE",
"305 189 CURVE SMOOTH",
"385 189 OFFCURVE",
"452 242 OFFCURVE",
"452 322 CURVE SMOOTH",
"452 385 OFFCURVE",
"405 437 OFFCURVE",
"359 449 CURVE",
"294 440 LINE",
"348 440 OFFCURVE",
"414 394 OFFCURVE",
"414 338 CURVE SMOOTH",
"414 279 OFFCURVE",
"367 247 OFFCURVE",
"311 247 CURVE SMOOTH",
"263 247 OFFCURVE",
"233 265 OFFCURVE",
"233 294 CURVE SMOOTH",
"233 325 OFFCURVE",
"271 344 OFFCURVE",
"331 344 CURVE SMOOTH",
"420 344 OFFCURVE",
"493 293 OFFCURVE",
"493 213 CURVE SMOOTH",
"493 139 OFFCURVE",
"422 71 OFFCURVE",
"300 71 CURVE SMOOTH",
"173 71 OFFCURVE",
"97 129 OFFCURVE",
"97 199 CURVE SMOOTH",
"97 220 OFFCURVE",
"100 239 OFFCURVE",
"108 254 CURVE",
"84 258 LINE",
"72 240 OFFCURVE",
"60 204 OFFCURVE",
"60 170 CURVE SMOOTH",
"60 76 OFFCURVE",
"145 -14 OFFCURVE",
"296 -14 CURVE SMOOTH"
);
},
{
closed = 1;
nodes = (
"394 434 LINE SMOOTH",
"475 434 OFFCURVE",
"529 480 OFFCURVE",
"529 552 CURVE SMOOTH",
"529 607 OFFCURVE",
"498 648 OFFCURVE",
"455 664 CURVE",
"440 644 LINE",
"464 635 OFFCURVE",
"486 610 OFFCURVE",
"486 576 CURVE SMOOTH",
"486 536 OFFCURVE",
"455 509 OFFCURVE",
"394 509 CURVE SMOOTH",
"73 509 LINE",
"73 434 LINE"
);
}
);
width = 594;
}
);
unicode = 0CA4;
},
{
color = 3;
glyphname = knTHA;
lastChange = "2015-12-16 17:45:47 +0000";
layers = (
{
background = {
paths = (
{
closed = 1;
nodes = (
"336 44 LINE",
"325 -36 OFFCURVE",
"281 -92 OFFCURVE",
"281 -133 CURVE SMOOTH",
"281 -182 OFFCURVE",
"319 -202 OFFCURVE",
"345 -202 CURVE SMOOTH",
"369 -202 OFFCURVE",
"410 -186 OFFCURVE",
"410 -133 CURVE SMOOTH",
"410 -92 OFFCURVE",
"367 -36 OFFCURVE",
"354 44 CURVE"
);
},
{
closed = 1;
nodes = (
"313 375 OFFCURVE",
"287 348 OFFCURVE",
"287 315 CURVE SMOOTH",
"287 282 OFFCURVE",
"313 256 OFFCURVE",
"345 256 CURVE SMOOTH",
"379 256 OFFCURVE",
"405 282 OFFCURVE",
"405 315 CURVE SMOOTH",
"405 348 OFFCURVE",
"379 375 OFFCURVE",
"345 375 CURVE SMOOTH"
);
},
{
closed = 1;
nodes = (
"208 465 OFFCURVE",
"55 339 OFFCURVE",
"55 160 CURVE SMOOTH",
"55 33 OFFCURVE",
"117 -14 OFFCURVE",
"185 -14 CURVE SMOOTH",
"253 -14 OFFCURVE",
"321 43 OFFCURVE",
"344 126 CURVE",
"346 126 LINE",
"369 43 OFFCURVE",
"437 -14 OFFCURVE",
"505 -14 CURVE SMOOTH",
"572 -14 OFFCURVE",
"635 33 OFFCURVE",
"635 160 CURVE SMOOTH",
"635 339 OFFCURVE",
"482 465 OFFCURVE",
"345 465 CURVE"
);
},
{
closed = 1;
nodes = (
"477 441 OFFCURVE",
"584 300 OFFCURVE",
"584 192 CURVE SMOOTH",
"584 124 OFFCURVE",
"552 71 OFFCURVE",
"495 71 CURVE SMOOTH",
"429 71 OFFCURVE",
"364 145 OFFCURVE",
"350 221 CURVE SMOOTH",
"341 221 LINE",
"327 145 OFFCURVE",
"261 71 OFFCURVE",
"196 71 CURVE SMOOTH",
"138 71 OFFCURVE",
"106 124 OFFCURVE",
"106 192 CURVE SMOOTH",
"106 300 OFFCURVE",
"213 441 OFFCURVE",
"345 441 CURVE"
);
},
{
closed = 1;
nodes = (
"545 644 LINE",
"569 635 OFFCURVE",
"591 610 OFFCURVE",
"591 576 CURVE SMOOTH",
"591 536 OFFCURVE",
"560 509 OFFCURVE",
"499 509 CURVE SMOOTH",
"55 509 LINE",
"55 434 LINE",
"241 434 LINE",
"345 444 LINE",
"448 434 LINE",
"499 434 LINE SMOOTH",
"580 434 OFFCURVE",
"634 480 OFFCURVE",
"634 552 CURVE SMOOTH",
"634 607 OFFCURVE",
"603 648 OFFCURVE",
"560 664 CURVE"
);
}
);
};
guideLines = (
{
angle = 270;
position = "{55, -78}";
}
);
layerId = "034236B8-3FA8-43DA-9EDA-EFF269A687EC";
name = Regular;
paths = (
{
closed = 1;
nodes = (
"253 -14 OFFCURVE",
"321 43 OFFCURVE",
"344 126 CURVE",
"346 126 LINE",
"369 43 OFFCURVE",
"437 -14 OFFCURVE",
"505 -14 CURVE SMOOTH",
"572 -14 OFFCURVE",
"635 33 OFFCURVE",
"635 160 CURVE SMOOTH",
"635 339 OFFCURVE",
"482 467 OFFCURVE",
"345 467 CURVE SMOOTH",
"208 467 OFFCURVE",
"55 339 OFFCURVE",
"55 160 CURVE SMOOTH",
"55 33 OFFCURVE",
"117 -14 OFFCURVE",
"185 -14 CURVE SMOOTH"
);
},
{
closed = 1;
nodes = (
"370 -220 OFFCURVE",
"395 -201 OFFCURVE",
"395 -161 CURVE SMOOTH",
"395 -117 OFFCURVE",
"366 -104 OFFCURVE",
"352 16 CURVE",
"336 16 LINE",
"323 -104 OFFCURVE",
"292 -117 OFFCURVE",
"292 -161 CURVE SMOOTH",
"292 -197 OFFCURVE",
"317 -220 OFFCURVE",
"344 -220 CURVE SMOOTH"
);
},
{
closed = 1;
nodes = (
"138 71 OFFCURVE",
"104 114 OFFCURVE",
"104 192 CURVE SMOOTH",
"104 300 OFFCURVE",
"213 441 OFFCURVE",
"345 441 CURVE SMOOTH",
"477 441 OFFCURVE",
"586 300 OFFCURVE",
"586 192 CURVE SMOOTH",
"586 114 OFFCURVE",
"552 71 OFFCURVE",
"495 71 CURVE SMOOTH",
"429 71 OFFCURVE",
"364 145 OFFCURVE",
"350 221 CURVE",
"341 221 LINE",
"327 145 OFFCURVE",
"261 71 OFFCURVE",
"196 71 CURVE SMOOTH"
);
},
{
closed = 1;
nodes = (
"379 256 OFFCURVE",
"405 282 OFFCURVE",
"405 315 CURVE SMOOTH",
"405 348 OFFCURVE",
"379 375 OFFCURVE",
"345 375 CURVE SMOOTH",
"313 375 OFFCURVE",
"287 348 OFFCURVE",
"287 315 CURVE SMOOTH",
"287 282 OFFCURVE",
"313 256 OFFCURVE",
"345 256 CURVE SMOOTH"
);
},
{
closed = 1;
nodes = (
"241 434 LINE",
"345 444 LINE",
"448 434 LINE",
"499 434 LINE SMOOTH",
"580 434 OFFCURVE",
"634 480 OFFCURVE",
"634 552 CURVE SMOOTH",
"634 607 OFFCURVE",
"603 648 OFFCURVE",
"560 664 CURVE",
"545 644 LINE",
"569 635 OFFCURVE",
"591 610 OFFCURVE",
"591 576 CURVE SMOOTH",
"591 536 OFFCURVE",
"560 509 OFFCURVE",
"499 509 CURVE SMOOTH",
"55 509 LINE",
"55 434 LINE"
);
}
);
width = 700;
}
);
unicode = 0CA5;
},
{
color = 3;
glyphname = knDA;
lastChange = "2016-01-05 16:38:11 +0000";
layers = (
{
layerId = "034236B8-3FA8-43DA-9EDA-EFF269A687EC";
name = Regular;
paths = (
{
closed = 1;
nodes = (
"253 -14 OFFCURVE",
"321 43 OFFCURVE",
"344 126 CURVE",
"346 126 LINE",
"369 43 OFFCURVE",
"437 -14 OFFCURVE",
"505 -14 CURVE SMOOTH",
"572 -14 OFFCURVE",
"635 33 OFFCURVE",
"635 160 CURVE SMOOTH",
"635 339 OFFCURVE",
"482 467 OFFCURVE",
"345 467 CURVE SMOOTH",
"208 467 OFFCURVE",
"55 339 OFFCURVE",
"55 160 CURVE SMOOTH",
"55 33 OFFCURVE",
"117 -14 OFFCURVE",
"185 -14 CURVE SMOOTH"
);
},
{
closed = 1;
nodes = (
"138 71 OFFCURVE",
"104 114 OFFCURVE",
"104 192 CURVE SMOOTH",
"104 300 OFFCURVE",
"213 441 OFFCURVE",
"345 441 CURVE SMOOTH",
"477 441 OFFCURVE",
"586 300 OFFCURVE",
"586 192 CURVE SMOOTH",
"586 114 OFFCURVE",
"552 71 OFFCURVE",
"495 71 CURVE SMOOTH",
"429 71 OFFCURVE",
"364 145 OFFCURVE",
"350 221 CURVE",
"341 221 LINE",
"327 145 OFFCURVE",
"261 71 OFFCURVE",
"196 71 CURVE SMOOTH"
);
},
{
closed = 1;
nodes = (
"241 434 LINE",
"345 444 LINE",
"448 434 LINE",
"499 434 LINE SMOOTH",
"580 434 OFFCURVE",
"634 480 OFFCURVE",
"634 552 CURVE SMOOTH",
"634 607 OFFCURVE",
"603 648 OFFCURVE",
"560 664 CURVE",
"545 644 LINE",
"569 635 OFFCURVE",
"591 610 OFFCURVE",
"591 576 CURVE SMOOTH",
"591 536 OFFCURVE",
"560 509 OFFCURVE",
"499 509 CURVE SMOOTH",
"55 509 LINE",
"55 434 LINE"
);
}
);
width = 700;
}
);
unicode = 0CA6;
},
{
color = 3;
glyphname = knDHA;
lastChange = "2015-12-16 17:45:47 +0000";
layers = (
{
background = {
paths = (
{
closed = 1;
nodes = (
"336 44 LINE",
"325 -36 OFFCURVE",
"281 -92 OFFCURVE",
"281 -133 CURVE SMOOTH",
"281 -182 OFFCURVE",
"319 -202 OFFCURVE",
"345 -202 CURVE SMOOTH",
"369 -202 OFFCURVE",
"410 -186 OFFCURVE",
"410 -133 CURVE SMOOTH",
"410 -92 OFFCURVE",
"367 -36 OFFCURVE",
"354 44 CURVE"
);
},
{
closed = 1;
nodes = (
"208 465 OFFCURVE",
"55 339 OFFCURVE",
"55 160 CURVE SMOOTH",
"55 33 OFFCURVE",
"117 -14 OFFCURVE",
"185 -14 CURVE SMOOTH",
"253 -14 OFFCURVE",
"321 43 OFFCURVE",
"344 126 CURVE",
"346 126 LINE",
"369 43 OFFCURVE",
"437 -14 OFFCURVE",
"505 -14 CURVE SMOOTH",
"572 -14 OFFCURVE",
"635 33 OFFCURVE",
"635 160 CURVE SMOOTH",
"635 339 OFFCURVE",
"482 465 OFFCURVE",
"345 465 CURVE"
);
},
{
closed = 1;
nodes = (
"477 441 OFFCURVE",
"584 300 OFFCURVE",
"584 192 CURVE SMOOTH",
"584 124 OFFCURVE",
"552 71 OFFCURVE",
"495 71 CURVE SMOOTH",
"429 71 OFFCURVE",
"364 145 OFFCURVE",
"350 221 CURVE SMOOTH",
"341 221 LINE",
"327 145 OFFCURVE",
"261 71 OFFCURVE",
"196 71 CURVE SMOOTH",
"138 71 OFFCURVE",
"106 124 OFFCURVE",
"106 192 CURVE SMOOTH",
"106 300 OFFCURVE",
"213 441 OFFCURVE",
"345 441 CURVE"
);
},
{
closed = 1;
nodes = (
"545 644 LINE",
"569 635 OFFCURVE",
"591 610 OFFCURVE",
"591 576 CURVE SMOOTH",
"591 536 OFFCURVE",
"560 509 OFFCURVE",
"499 509 CURVE SMOOTH",
"55 509 LINE",
"55 434 LINE",
"241 434 LINE",
"345 444 LINE",
"448 434 LINE",
"499 434 LINE SMOOTH",
"580 434 OFFCURVE",
"634 480 OFFCURVE",
"634 552 CURVE SMOOTH",
"634 607 OFFCURVE",
"603 648 OFFCURVE",
"560 664 CURVE"
);
}
);
};
guideLines = (
{
angle = 270;
position = "{55, -78}";
}
);
layerId = "034236B8-3FA8-43DA-9EDA-EFF269A687EC";
name = Regular;
paths = (
{
closed = 1;
nodes = (
"253 -14 OFFCURVE",
"321 43 OFFCURVE",
"344 126 CURVE",
"346 126 LINE",
"369 43 OFFCURVE",
"437 -14 OFFCURVE",
"505 -14 CURVE SMOOTH",
"572 -14 OFFCURVE",
"635 33 OFFCURVE",
"635 160 CURVE SMOOTH",
"635 339 OFFCURVE",
"482 467 OFFCURVE",
"345 467 CURVE SMOOTH",
"208 467 OFFCURVE",
"55 339 OFFCURVE",
"55 160 CURVE SMOOTH",
"55 33 OFFCURVE",
"117 -14 OFFCURVE",
"185 -14 CURVE SMOOTH"
);
},
{
closed = 1;
nodes = (
"370 -220 OFFCURVE",
"395 -201 OFFCURVE",
"395 -161 CURVE SMOOTH",
"395 -117 OFFCURVE",
"366 -104 OFFCURVE",
"352 16 CURVE",
"336 16 LINE",
"323 -104 OFFCURVE",
"292 -117 OFFCURVE",
"292 -161 CURVE SMOOTH",
"292 -197 OFFCURVE",
"317 -220 OFFCURVE",
"344 -220 CURVE SMOOTH"
);
},
{
closed = 1;
nodes = (
"138 71 OFFCURVE",
"104 114 OFFCURVE",
"104 192 CURVE SMOOTH",
"104 300 OFFCURVE",
"213 441 OFFCURVE",
"345 441 CURVE SMOOTH",
"477 441 OFFCURVE",
"586 300 OFFCURVE",
"586 192 CURVE SMOOTH",
"586 114 OFFCURVE",
"552 71 OFFCURVE",
"495 71 CURVE SMOOTH",
"429 71 OFFCURVE",
"364 145 OFFCURVE",
"350 221 CURVE",
"341 221 LINE",
"327 145 OFFCURVE",
"261 71 OFFCURVE",
"196 71 CURVE SMOOTH"
);
},
{
closed = 1;
nodes = (
"241 434 LINE",
"345 444 LINE",
"448 434 LINE",
"499 434 LINE SMOOTH",
"580 434 OFFCURVE",
"634 480 OFFCURVE",
"634 552 CURVE SMOOTH",
"634 607 OFFCURVE",
"603 648 OFFCURVE",
"560 664 CURVE",
"545 644 LINE",
"569 635 OFFCURVE",
"591 610 OFFCURVE",
"591 576 CURVE SMOOTH",
"591 536 OFFCURVE",
"560 509 OFFCURVE",
"499 509 CURVE SMOOTH",
"55 509 LINE",
"55 434 LINE"
);
}
);
width = 700;
}
);
unicode = 0CA7;
},
{
color = 3;
glyphname = knNA;
lastChange = "2015-12-16 17:45:47 +0000";
layers = (
{
background = {
paths = (
{
closed = 1;
nodes = (
"518 392 OFFCURVE",
"584 284 OFFCURVE",
"584 176 CURVE SMOOTH",
"584 72 OFFCURVE",
"521 -14 OFFCURVE",
"441 -14 CURVE SMOOTH",
"287 -14 OFFCURVE",
"357 212 OFFCURVE",
"199 212 CURVE SMOOTH",
"143 212 OFFCURVE",
"110 171 OFFCURVE",
"110 112 CURVE SMOOTH",
"110 73 OFFCURVE",
"142 27 OFFCURVE",
"193 10 CURVE SMOOTH",
"218 1 OFFCURVE",
"234 -20 OFFCURVE",
"234 -43 CURVE SMOOTH",
"234 -66 OFFCURVE",
"204 -75 OFFCURVE",
"181 -61 CURVE SMOOTH",
"115 -23 OFFCURVE",
"75 54 OFFCURVE",
"75 140 CURVE SMOOTH",
"75 224 OFFCURVE",
"134 294 OFFCURVE",
"200 294 CURVE SMOOTH",
"347 294 OFFCURVE",
"307 71 OFFCURVE",
"441 71 CURVE SMOOTH",
"493 71 OFFCURVE",
"536 116 OFFCURVE",
"536 188 CURVE SMOOTH",
"536 311 OFFCURVE",
"435 398 OFFCURVE",
"289 432 CURVE",
"381 435 LINE"
);
}
);
};
layerId = "034236B8-3FA8-43DA-9EDA-EFF269A687EC";
name = Regular;
paths = (
{
closed = 1;
nodes = (
"204 -75 OFFCURVE",
"234 -66 OFFCURVE",
"234 -43 CURVE SMOOTH",
"234 -20 OFFCURVE",
"218 1 OFFCURVE",
"193 10 CURVE SMOOTH",
"142 27 OFFCURVE",
"110 73 OFFCURVE",
"110 112 CURVE SMOOTH",
"110 171 OFFCURVE",
"143 212 OFFCURVE",
"199 212 CURVE SMOOTH",
"357 212 OFFCURVE",
"287 -14 OFFCURVE",
"441 -14 CURVE SMOOTH",
"521 -14 OFFCURVE",
"584 72 OFFCURVE",
"584 176 CURVE SMOOTH",
"584 295 OFFCURVE",
"508 399 OFFCURVE",
"373 437 CURVE",
"247 438 LINE",
"289 432 LINE",
"435 398 OFFCURVE",
"536 311 OFFCURVE",
"536 188 CURVE SMOOTH",
"536 116 OFFCURVE",
"493 71 OFFCURVE",
"441 71 CURVE SMOOTH",
"307 71 OFFCURVE",
"347 294 OFFCURVE",
"200 294 CURVE SMOOTH",
"134 294 OFFCURVE",
"75 224 OFFCURVE",
"75 140 CURVE SMOOTH",
"75 54 OFFCURVE",
"115 -23 OFFCURVE",
"181 -61 CURVE SMOOTH"
);
},
{
closed = 1;
nodes = (
"430 434 LINE SMOOTH",
"512 434 OFFCURVE",
"565 480 OFFCURVE",
"565 552 CURVE SMOOTH",
"565 607 OFFCURVE",
"534 648 OFFCURVE",
"491 664 CURVE",
"476 644 LINE",
"500 635 OFFCURVE",
"522 610 OFFCURVE",
"522 576 CURVE SMOOTH",
"522 537 OFFCURVE",
"491 509 OFFCURVE",
"430 509 CURVE SMOOTH",
"75 509 LINE",
"75 434 LINE"
);
}
);
width = 649;
}
);
unicode = 0CA8;
},
{
color = 3;
glyphname = knPA;
lastChange = "2015-12-16 17:45:47 +0000";
layers = (
{
background = {
paths = (
{
closed = 1;
nodes = (
"598 -14 OFFCURVE",
"635 84 OFFCURVE",
"635 179 CURVE SMOOTH",
"635 271 OFFCURVE",
"613 392 OFFCURVE",
"561 392 CURVE SMOOTH",
"536 392 OFFCURVE",
"519 375 OFFCURVE",
"519 352 CURVE SMOOTH",
"519 304 OFFCURVE",
"597 339 OFFCURVE",
"597 202 CURVE SMOOTH",
"597 141 OFFCURVE",
"569 71 OFFCURVE",
"493 71 CURVE",
"428 71 OFFCURVE",
"363 145 OFFCURVE",
"349 221 CURVE",
"340 221 LINE",
"326 145 OFFCURVE",
"261 71 OFFCURVE",
"186 71 CURVE",
"135 71 OFFCURVE",
"103 114 OFFCURVE",
"103 156 CURVE SMOOTH",
"103 203 OFFCURVE",
"129 227 OFFCURVE",
"166 227 CURVE SMOOTH",
"196 227 OFFCURVE",
"221 217 OFFCURVE",
"232 193 CURVE",
"248 208 LINE",
"235 250 OFFCURVE",
"211 287 OFFCURVE",
"163 287 CURVE",
"103 287 OFFCURVE",
"60 232 OFFCURVE",
"60 143 CURVE SMOOTH",
"60 56 OFFCURVE",
"94 -14 OFFCURVE",
"183 -14 CURVE",
"251 -14 OFFCURVE",
"321 43 OFFCURVE",
"344 126 CURVE",
"346 126 LINE",
"369 43 OFFCURVE",
"438 -14 OFFCURVE",
"503 -14 CURVE"
);
},
{
closed = 1;
nodes = (
"567 644 LINE",
"591 635 OFFCURVE",
"613 610 OFFCURVE",
"613 576 CURVE SMOOTH",
"613 536 OFFCURVE",
"582 509 OFFCURVE",
"521 509 CURVE SMOOTH",
"60 509 LINE",
"60 434 LINE",
"521 434 LINE SMOOTH",
"602 434 OFFCURVE",
"656 480 OFFCURVE",
"656 552 CURVE SMOOTH",
"656 607 OFFCURVE",
"625 648 OFFCURVE",
"582 664 CURVE"
);
},
{
closed = 1;
nodes = (
"309 390 OFFCURVE",
"284 363 OFFCURVE",
"284 331 CURVE SMOOTH",
"284 298 OFFCURVE",
"309 271 OFFCURVE",
"343 271 CURVE SMOOTH",
"376 271 OFFCURVE",
"403 298 OFFCURVE",
"403 331 CURVE SMOOTH",
"403 363 OFFCURVE",
"376 390 OFFCURVE",
"343 390 CURVE SMOOTH"
);
}
);
};
guideLines = (
{
angle = 270;
position = "{60, -78}";
}
);
layerId = "034236B8-3FA8-43DA-9EDA-EFF269A687EC";
name = Regular;
paths = (
{
closed = 1;
nodes = (
"251 -14 OFFCURVE",
"321 43 OFFCURVE",
"344 126 CURVE",
"346 126 LINE",
"369 43 OFFCURVE",
"438 -14 OFFCURVE",
"503 -14 CURVE SMOOTH",
"598 -14 OFFCURVE",
"635 84 OFFCURVE",
"635 179 CURVE SMOOTH",
"635 271 OFFCURVE",
"613 392 OFFCURVE",
"561 392 CURVE SMOOTH",
"536 392 OFFCURVE",
"519 375 OFFCURVE",
"519 352 CURVE SMOOTH",
"519 304 OFFCURVE",
"600 339 OFFCURVE",
"600 202 CURVE SMOOTH",
"600 131 OFFCURVE",
"569 71 OFFCURVE",
"493 71 CURVE SMOOTH",
"428 71 OFFCURVE",
"363 145 OFFCURVE",
"349 221 CURVE",
"340 221 LINE",
"326 145 OFFCURVE",
"261 71 OFFCURVE",
"186 71 CURVE SMOOTH",
"135 71 OFFCURVE",
"100 104 OFFCURVE",
"100 156 CURVE SMOOTH",
"100 201 OFFCURVE",
"129 227 OFFCURVE",
"166 227 CURVE SMOOTH",
"196 227 OFFCURVE",
"221 217 OFFCURVE",
"232 193 CURVE",
"248 208 LINE",
"235 250 OFFCURVE",
"211 287 OFFCURVE",
"163 287 CURVE SMOOTH",
"103 287 OFFCURVE",
"60 232 OFFCURVE",
"60 143 CURVE SMOOTH",
"60 56 OFFCURVE",
"109 -14 OFFCURVE",
"183 -14 CURVE SMOOTH"
);
},
{
closed = 1;
nodes = (
"376 271 OFFCURVE",
"403 298 OFFCURVE",
"403 331 CURVE SMOOTH",
"403 363 OFFCURVE",
"376 390 OFFCURVE",
"343 390 CURVE SMOOTH",
"309 390 OFFCURVE",
"284 363 OFFCURVE",
"284 331 CURVE SMOOTH",
"284 298 OFFCURVE",
"309 271 OFFCURVE",
"343 271 CURVE SMOOTH"
);
},
{
closed = 1;
nodes = (
"521 434 LINE SMOOTH",
"602 434 OFFCURVE",
"656 480 OFFCURVE",
"656 552 CURVE SMOOTH",
"656 607 OFFCURVE",
"625 648 OFFCURVE",
"582 664 CURVE",
"567 644 LINE",
"591 635 OFFCURVE",
"613 610 OFFCURVE",
"613 576 CURVE SMOOTH",
"613 536 OFFCURVE",
"582 509 OFFCURVE",
"521 509 CURVE SMOOTH",
"60 509 LINE",
"60 434 LINE"
);
}
);
width = 716;
}
);
unicode = 0CAA;
},
